<svg width="22" height="21" viewBox="0 0 22 21" fill="none" xmlns="http://www.w3.org/2000/svg">
<path fill-rule="evenodd" clip-rule="evenodd" d="M7.66667 19.7359C8.58714 19.7359 9.33333 18.9897 9.33333 18.0693C9.33333 17.1488 8.58714 16.4026 7.66667 16.4026C6.74619 16.4026 6 17.1488 6 18.0693C6 18.9897 6.74619 19.7359 7.66667 19.7359Z" stroke="black" stroke-width="2" stroke-linecap="round" stroke-linejoin="round"/>
<path fill-rule="evenodd" clip-rule="evenodd" d="M17.6667 19.7359C18.5871 19.7359 19.3333 18.9897 19.3333 18.0693C19.3333 17.1488 18.5871 16.4026 17.6667 16.4026C16.7462 16.4026 16 17.1488 16 18.0693C16 18.9897 16.7462 19.7359 17.6667 19.7359Z" stroke="black" stroke-width="2" stroke-linecap="round" stroke-linejoin="round"/>
<path d="M5.7237 5.56925H20.1654L18.7654 12.5609C18.6081 13.3528 17.9059 13.9181 17.0987 13.9026H8.29036C7.44827 13.9097 6.73314 13.2876 6.6237 12.4526L5.35703 2.85259C5.24838 2.02392 4.54279 1.40385 3.70703 1.40259H1.83203" stroke="black" stroke-width="2" stroke-linecap="round" stroke-linejoin="round"/>
</svg>
