<svg width="23" height="23" viewBox="0 0 23 23" fill="none" xmlns="http://www.w3.org/2000/svg">
<path d="M19.7078 3.33748C19.2191 2.77693 18.6389 2.33226 18.0003 2.02887C17.3617 1.72549 16.6772 1.56934 15.9859 1.56934C15.2946 1.56934 14.6101 1.72549 13.9715 2.02887C13.3329 2.33226 12.7526 2.77693 12.2639 3.33748L11.2497 4.50028L10.2355 3.33748C9.24842 2.20573 7.9096 1.56992 6.51361 1.56992C5.11761 1.56992 3.77879 2.20573 2.79168 3.33748C1.80456 4.46923 1.25 6.00421 1.25 7.60474C1.25 9.20528 1.80456 10.7403 2.79168 11.872L11.2497 21.5693L19.7078 11.872C20.1967 11.3117 20.5846 10.6465 20.8492 9.91428C21.1138 9.18209 21.25 8.3973 21.25 7.60474C21.25 6.81219 21.1138 6.0274 20.8492 5.29521C20.5846 4.56301 20.1967 3.89777 19.7078 3.33748Z" stroke="black" stroke-width="2" stroke-linecap="round" stroke-linejoin="round"/>
</svg>
