<svg width="64" height="35" viewBox="0 0 64 35" fill="none" xmlns="http://www.w3.org/2000/svg">
<path d="M4.688 13.837C3.504 13.837 2.528 13.4477 1.76 12.669C0.992 11.8797 0.608 10.877 0.608 9.66103C0.608 8.28503 0.805333 7.23436 1.2 6.50903C1.60533 5.77303 2.42667 5.10636 3.664 4.50903C3.728 4.47703 3.80267 4.43969 3.888 4.39703C3.984 4.35436 4.096 4.30636 4.224 4.25303C4.36267 4.18903 4.48 4.13569 4.576 4.09303L5.44 3.70903C6.29333 3.28236 6.74667 2.77036 6.8 2.17303L7.92 2.81303C7.84533 3.18636 7.72267 3.48503 7.552 3.70903C7.54133 3.73036 7.50933 3.77836 7.456 3.85303C7.40267 3.91703 7.36533 3.96503 7.344 3.99703C7.32267 4.01836 7.28533 4.05569 7.232 4.10903C7.18933 4.15169 7.14133 4.19436 7.088 4.23703C7.04533 4.27969 6.98667 4.32236 6.912 4.36503C6.51733 4.61036 6.23467 4.77036 6.064 4.84503C6 4.87703 5.93067 4.90903 5.856 4.94103C5.792 4.97303 5.73867 4.99969 5.696 5.02103C5.65333 5.04236 5.62133 5.05836 5.6 5.06903L5.072 5.29303L4.56 5.50103C3.84533 5.81036 3.31733 6.12503 2.976 6.44503C2.63467 6.76503 2.38933 7.17036 2.24 7.66103C2.57067 7.25569 2.98667 6.94636 3.488 6.73303C4 6.51969 4.52267 6.41303 5.056 6.41303C6.06933 6.41303 6.91733 6.75436 7.6 7.43703C8.304 8.13036 8.656 9.01036 8.656 10.077C8.656 11.165 8.28267 12.0664 7.536 12.781C6.77867 13.485 5.82933 13.837 4.688 13.837ZM7.264 10.077C7.264 9.36236 7.02933 8.78103 6.56 8.33303C6.10133 7.87436 5.49333 7.64503 4.736 7.64503C4.064 7.64503 3.44533 7.86369 2.88 8.30103C2.336 8.73836 2.064 9.30369 2.064 9.99703C2.064 10.7224 2.31467 11.3197 2.816 11.789C3.31733 12.2584 3.94133 12.493 4.688 12.493C5.44533 12.493 6.05867 12.2637 6.528 11.805C7.01867 11.3464 7.264 10.7704 7.264 10.077ZM18.0061 12.621C17.1955 13.4317 16.1981 13.837 15.0141 13.837C13.8301 13.837 12.8328 13.4317 12.0221 12.621C11.2115 11.8104 10.8061 10.813 10.8061 9.62903C10.8061 8.44503 11.2115 7.44769 12.0221 6.63703C12.8328 5.82636 13.8301 5.42103 15.0141 5.42103C16.1981 5.42103 17.1955 5.82636 18.0061 6.63703C18.8275 7.45836 19.2381 8.45569 19.2381 9.62903C19.2381 10.8024 18.8275 11.7997 18.0061 12.621ZM15.0141 12.477C15.8141 12.477 16.4861 12.205 17.0301 11.661C17.5741 11.117 17.8461 10.4397 17.8461 9.62903C17.8461 8.81836 17.5741 8.14103 17.0301 7.59703C16.4861 7.05303 15.8141 6.78103 15.0141 6.78103C14.2248 6.78103 13.5581 7.05303 13.0141 7.59703C12.4701 8.14103 12.1981 8.81836 12.1981 9.62903C12.1981 10.4397 12.4701 11.117 13.0141 11.661C13.5581 12.205 14.2248 12.477 15.0141 12.477ZM22.4539 5.62903H28.3899V13.629H26.9979V6.97303H23.8459V10.237C23.8459 11.517 23.5899 12.429 23.0779 12.973C22.5659 13.5064 21.8139 13.725 20.8219 13.629V12.317C21.3765 12.3917 21.7872 12.269 22.0539 11.949C22.3205 11.6184 22.4539 11.037 22.4539 10.205V5.62903ZM33.0111 8.50903H34.9951C35.7951 8.50903 36.4565 8.74903 36.9791 9.22903C37.5125 9.69836 37.7791 10.3117 37.7791 11.069C37.7791 11.8264 37.5125 12.445 36.9791 12.925C36.4458 13.3944 35.7845 13.629 34.9951 13.629H31.6191V5.62903H33.0111V8.50903ZM33.0111 12.333H34.9951C35.4005 12.333 35.7365 12.2157 36.0031 11.981C36.2698 11.7464 36.4031 11.4424 36.4031 11.069C36.4031 10.6957 36.2645 10.3917 35.9871 10.157C35.7205 9.91169 35.3898 9.78903 34.9951 9.78903H33.0111V12.333ZM49.9634 12.301V5.62903H51.3554V13.629H40.3954V5.62903H41.7874V12.301H45.1794V5.62903H46.5714V12.301H49.9634ZM62.2891 10.269H55.5851C55.7238 10.973 56.0491 11.5277 56.5611 11.933C57.0731 12.3277 57.7131 12.525 58.4811 12.525C59.5371 12.525 60.3051 12.1357 60.7851 11.357L61.9691 12.029C61.1798 13.2344 60.0065 13.837 58.4491 13.837C57.1905 13.837 56.1558 13.4424 55.3451 12.653C54.5558 11.8424 54.1611 10.8344 54.1611 9.62903C54.1611 8.41303 54.5505 7.41036 55.3291 6.62103C56.1078 5.82103 57.1158 5.42103 58.3531 5.42103C59.5265 5.42103 60.4811 5.83703 61.2171 6.66903C61.9638 7.47969 62.3371 8.47169 62.3371 9.64503C62.3371 9.84769 62.3211 10.0557 62.2891 10.269ZM58.3531 6.73303C57.6171 6.73303 56.9985 6.94103 56.4971 7.35703C56.0065 7.77303 55.7025 8.33836 55.5851 9.05303H60.9291C60.8118 8.31703 60.5185 7.74636 60.0491 7.34103C59.5798 6.93569 59.0145 6.73303 58.3531 6.73303Z" fill="black"/>
<line y1="24.6541" x2="63" y2="24.6541" stroke="black"/>
<line y1="-0.5" x2="25.3991" y2="-0.5" transform="matrix(-0.936229 0.35139 -0.128789 -0.991672 63 24.629)" stroke="black"/>
</svg>
