<svg width="390" height="96" viewBox="0 0 390 96" fill="none" xmlns="http://www.w3.org/2000/svg">
<rect width="390" height="95" transform="translate(0 0.569336)" fill="#7991F5"/>
<path d="M136.803 26.7473C136.822 27.2233 136.971 27.606 137.251 27.8953C137.541 28.1847 137.965 28.3293 138.525 28.3293C138.833 28.3293 139.109 28.2733 139.351 28.1613C139.594 28.04 139.818 27.8627 140.023 27.6293C140.817 27.9373 141.745 28.2033 142.809 28.4273C142.501 29.146 141.979 29.706 141.241 30.1073C140.513 30.5087 139.566 30.7093 138.399 30.7093C136.841 30.7093 135.688 30.3453 134.941 29.6173C134.195 28.8893 133.821 27.9327 133.821 26.7473C133.821 25.562 134.195 24.6053 134.941 23.8773C135.688 23.1493 136.841 22.7853 138.399 22.7853C139.566 22.7853 140.513 22.986 141.241 23.3873C141.979 23.7887 142.501 24.3487 142.809 25.0673C141.979 25.2447 141.05 25.5107 140.023 25.8653C139.818 25.632 139.594 25.4593 139.351 25.3473C139.109 25.226 138.833 25.1653 138.525 25.1653C137.965 25.1653 137.541 25.31 137.251 25.5993C136.971 25.8887 136.822 26.2713 136.803 26.7473ZM151.574 26.9153C151.994 27.2513 152.316 27.6293 152.54 28.0493C152.764 28.4693 152.974 28.9733 153.17 29.5613C153.366 30.0747 153.506 30.4107 153.59 30.5693H150.216C150.188 30.504 150.132 30.2987 150.048 29.9533C149.973 29.608 149.898 29.3327 149.824 29.1273C149.749 28.9127 149.637 28.726 149.488 28.5673C149.254 28.3153 148.993 28.152 148.704 28.0773C148.414 28.0027 147.985 27.9653 147.416 27.9653V30.5693H144.42C144.466 29.5053 144.49 28.2313 144.49 26.7473C144.49 25.2633 144.466 23.9893 144.42 22.9253H147.416V25.6693H147.472C148.582 24.5587 149.39 23.644 149.894 22.9253H153.59L150.314 26.1873C150.799 26.3927 151.219 26.6353 151.574 26.9153ZM163.478 22.9253C163.431 24.2787 163.408 25.5013 163.408 26.5933C163.408 27.6667 163.431 28.8893 163.478 30.2613H160.608L160.762 25.4173L158.62 30.2613H154.714C154.77 29.0293 154.798 27.8067 154.798 26.5933C154.798 25.3613 154.77 24.1387 154.714 22.9253H157.472L157.332 27.8953L159.474 22.9253H163.478ZM173.895 28.5813H174.315V32.3473H171.669V30.8213H167.245V32.3753H164.599V28.5813H165.061C165.378 28.5347 165.616 28.418 165.775 28.2313C165.943 28.0447 166.073 27.7367 166.167 27.3073C166.232 26.9713 166.265 26.1687 166.265 24.8993V22.9253L173.895 22.9393V28.5813ZM168.645 28.1193C168.626 28.222 168.589 28.376 168.533 28.5813H171.221V25.2913H168.841V25.7113C168.831 26.2527 168.817 26.682 168.799 26.9993C168.78 27.3073 168.729 27.6807 168.645 28.1193ZM183.154 26.9153C183.574 27.2513 183.896 27.6293 184.12 28.0493C184.344 28.4693 184.554 28.9733 184.75 29.5613C184.946 30.0747 185.086 30.4107 185.17 30.5693H181.796C181.768 30.504 181.712 30.2987 181.628 29.9533C181.553 29.608 181.479 29.3327 181.404 29.1273C181.329 28.9127 181.217 28.726 181.068 28.5673C180.835 28.3153 180.573 28.152 180.284 28.0773C179.995 28.0027 179.565 27.9653 178.996 27.9653V30.5693H176C176.047 29.5053 176.07 28.2313 176.07 26.7473C176.07 25.2633 176.047 23.9893 176 22.9253H178.996V25.6693H179.052C180.163 24.5587 180.97 23.644 181.474 22.9253H185.17L181.894 26.1873C182.379 26.3927 182.799 26.6353 183.154 26.9153ZM195.058 22.9253C195.012 24.2787 194.988 25.5013 194.988 26.5933C194.988 27.6667 195.012 28.8893 195.058 30.2613H192.188L192.342 25.4173L190.2 30.2613H186.294C186.35 29.0293 186.378 27.8067 186.378 26.5933C186.378 25.3613 186.35 24.1387 186.294 22.9253H189.052L188.912 27.8953L191.054 22.9253H195.058ZM203.616 28.1193C206.649 27.9513 209.001 27.7647 210.672 27.5593C210.513 28.0447 210.392 28.558 210.308 29.0993C210.224 29.6407 210.182 30.1307 210.182 30.5693H200.172L200.158 30.2753C200.158 29.3607 200.424 28.5673 200.956 27.8953C201.497 27.2233 202.249 26.6027 203.21 26.0333C203.49 25.8653 203.929 25.6507 204.526 25.3893C205.301 25.0533 205.898 24.7593 206.318 24.5073C206.738 24.246 206.948 23.9893 206.948 23.7373C206.948 23.42 206.817 23.168 206.556 22.9813C206.295 22.7947 205.889 22.7013 205.338 22.7013C204.731 22.7013 204.269 22.8553 203.952 23.1633C203.644 23.4713 203.49 23.8633 203.49 24.3393C203.49 24.4887 203.504 24.6427 203.532 24.8013C202.356 24.652 201.213 24.5493 200.102 24.4933C200.102 23.7 200.307 22.986 200.718 22.3513C201.138 21.7073 201.763 21.1987 202.594 20.8253C203.434 20.452 204.461 20.2653 205.674 20.2653C206.785 20.2653 207.709 20.4193 208.446 20.7273C209.193 21.026 209.739 21.4087 210.084 21.8753C210.439 22.3327 210.616 22.804 210.616 23.2893C210.616 23.8493 210.49 24.33 210.238 24.7313C209.995 25.1327 209.641 25.492 209.174 25.8093C208.717 26.1173 208.101 26.4533 207.326 26.8173C207.214 26.8733 207.032 26.9387 206.78 27.0133C206.528 27.0787 206.369 27.1207 206.304 27.1393C205.641 27.3353 205.114 27.4987 204.722 27.6293C204.33 27.76 203.961 27.9233 203.616 28.1193ZM218.217 30.7093C216.211 30.7093 214.731 30.2473 213.779 29.3233C212.827 28.3993 212.351 27.116 212.351 25.4733C212.351 23.84 212.827 22.566 213.779 21.6513C214.741 20.7273 216.22 20.2653 218.217 20.2653C220.215 20.2653 221.689 20.7273 222.641 21.6513C223.593 22.566 224.069 23.84 224.069 25.4733C224.069 27.116 223.593 28.3993 222.641 29.3233C221.689 30.2473 220.215 30.7093 218.217 30.7093ZM218.231 28.2593C219.09 28.2593 219.715 27.998 220.107 27.4753C220.499 26.9433 220.695 26.276 220.695 25.4733C220.695 24.68 220.499 24.022 220.107 23.4993C219.715 22.9673 219.09 22.7013 218.231 22.7013C217.345 22.7013 216.701 22.9673 216.299 23.4993C215.907 24.022 215.711 24.68 215.711 25.4733C215.711 26.2667 215.907 26.9293 216.299 27.4613C216.701 27.9933 217.345 28.2593 218.231 28.2593ZM234.569 25.5573C235.185 25.5573 235.713 25.6693 236.151 25.8933C236.59 26.108 236.921 26.4067 237.145 26.7893C237.379 27.172 237.495 27.5967 237.495 28.0633C237.495 28.5393 237.379 28.9687 237.145 29.3513C236.921 29.734 236.59 30.0373 236.151 30.2613C235.713 30.476 235.185 30.5833 234.569 30.5833C233.944 30.5833 233.407 30.476 232.959 30.2613C232.521 30.0373 232.185 29.734 231.951 29.3513C231.727 28.9687 231.615 28.5393 231.615 28.0633C231.615 27.7833 231.657 27.5173 231.741 27.2653L229.263 30.5833H226.029L230.383 24.7593C229.861 25.2073 229.161 25.4313 228.283 25.4313C227.658 25.4313 227.121 25.324 226.673 25.1093C226.235 24.8853 225.899 24.582 225.665 24.1993C225.441 23.8167 225.329 23.3873 225.329 22.9113C225.329 22.4447 225.441 22.02 225.665 21.6373C225.899 21.2547 226.235 20.956 226.673 20.7413C227.121 20.5173 227.658 20.4053 228.283 20.4053C228.899 20.4053 229.427 20.5173 229.865 20.7413C230.304 20.956 230.635 21.2547 230.859 21.6373C231.093 22.02 231.209 22.4447 231.209 22.9113C231.209 23.2847 231.139 23.6253 230.999 23.9333L233.561 20.5173H236.781L232.623 26.0893C233.127 25.7347 233.776 25.5573 234.569 25.5573ZM228.283 23.6673C228.479 23.6673 228.657 23.588 228.815 23.4293C228.983 23.2707 229.067 23.0933 229.067 22.8973C229.067 22.7013 228.983 22.5333 228.815 22.3933C228.657 22.2533 228.479 22.1833 228.283 22.1833C228.069 22.1833 227.877 22.2533 227.709 22.3933C227.551 22.5333 227.471 22.7013 227.471 22.8973C227.471 23.1027 227.551 23.2847 227.709 23.4433C227.877 23.5927 228.069 23.6673 228.283 23.6673ZM234.569 28.8193C234.765 28.8193 234.943 28.74 235.101 28.5813C235.269 28.4227 235.353 28.2453 235.353 28.0493C235.353 27.8533 235.269 27.6853 235.101 27.5453C234.943 27.4053 234.765 27.3353 234.569 27.3353C234.355 27.3353 234.163 27.4053 233.995 27.5453C233.837 27.6853 233.757 27.8533 233.757 28.0493C233.757 28.2547 233.837 28.4367 233.995 28.5953C234.163 28.7447 234.355 28.8193 234.569 28.8193ZM250.933 22.9253C250.887 24.344 250.863 25.618 250.863 26.7473C250.863 27.8767 250.887 29.1507 250.933 30.5693H247.895V28.0213H245.151V30.5693H242.113C242.16 29.5053 242.183 28.2313 242.183 26.7473C242.183 25.2633 242.16 23.9893 242.113 22.9253H245.151V25.4733H247.895V22.9253H250.933ZM261.587 28.2453C261.587 28.5627 261.624 28.7867 261.699 28.9173C261.774 29.048 261.923 29.1413 262.147 29.1973L262.091 30.5133C261.792 30.56 261.531 30.5927 261.307 30.6113C261.092 30.63 260.803 30.6393 260.439 30.6393C259.636 30.6393 259.104 30.462 258.843 30.1073C258.582 29.7433 258.451 29.2813 258.451 28.7213V28.3713C258.18 29.1367 257.784 29.706 257.261 30.0793C256.748 30.4527 256.09 30.6393 255.287 30.6393C254.354 30.6393 253.649 30.4527 253.173 30.0793C252.706 29.706 252.473 29.1507 252.473 28.4133C252.473 27.8067 252.674 27.3307 253.075 26.9853C253.476 26.64 254.097 26.402 254.937 26.2713C254.228 25.7673 253.518 25.3287 252.809 24.9553C253.369 24.246 254.008 23.7093 254.727 23.3453C255.446 22.972 256.318 22.7853 257.345 22.7853C258.782 22.7853 259.846 23.098 260.537 23.7233C261.237 24.3393 261.587 25.2913 261.587 26.5793V28.2453ZM257.639 25.2493C257.163 25.2493 256.743 25.3287 256.379 25.4873C256.015 25.646 255.688 25.884 255.399 26.2013C255.959 26.136 256.659 26.1033 257.499 26.1033C257.844 26.1033 258.087 26.0613 258.227 25.9773C258.367 25.8933 258.437 25.786 258.437 25.6553C258.437 25.5433 258.367 25.45 258.227 25.3753C258.087 25.2913 257.891 25.2493 257.639 25.2493ZM256.169 28.3573C256.692 28.3573 257.163 28.2593 257.583 28.0633C258.003 27.858 258.292 27.592 258.451 27.2653V26.9013C258.227 27.0133 257.98 27.102 257.709 27.1673C257.438 27.2233 257.112 27.2793 256.729 27.3353L256.225 27.4193C255.702 27.522 255.441 27.6993 255.441 27.9513C255.441 28.222 255.684 28.3573 256.169 28.3573ZM275.887 28.2453C275.887 28.5627 275.924 28.7867 275.999 28.9173C276.073 29.048 276.223 29.1413 276.447 29.1973L276.391 30.5133C276.092 30.56 275.831 30.5927 275.607 30.6113C275.392 30.63 275.103 30.6393 274.739 30.6393C273.936 30.6393 273.404 30.462 273.143 30.1073C272.881 29.7433 272.751 29.2813 272.751 28.7213V28.3713C272.48 29.1367 272.083 29.706 271.561 30.0793C271.047 30.4527 270.389 30.6393 269.587 30.6393C268.653 30.6393 267.949 30.4527 267.473 30.0793C267.006 29.706 266.773 29.1507 266.773 28.4133C266.773 27.8067 266.973 27.3307 267.375 26.9853C267.776 26.64 268.397 26.402 269.237 26.2713C268.527 25.7673 267.818 25.3287 267.109 24.9553C267.669 24.246 268.308 23.7093 269.027 23.3453C269.745 22.972 270.618 22.7853 271.645 22.7853C273.082 22.7853 274.146 23.098 274.837 23.7233C275.537 24.3393 275.887 25.2913 275.887 26.5793V28.2453ZM271.939 25.2493C271.463 25.2493 271.043 25.3287 270.679 25.4873C270.315 25.646 269.988 25.884 269.699 26.2013C270.259 26.136 270.959 26.1033 271.799 26.1033C272.144 26.1033 272.387 26.0613 272.527 25.9773C272.667 25.8933 272.737 25.786 272.737 25.6553C272.737 25.5433 272.667 25.45 272.527 25.3753C272.387 25.2913 272.191 25.2493 271.939 25.2493ZM270.469 28.3573C270.991 28.3573 271.463 28.2593 271.883 28.0633C272.303 27.858 272.592 27.592 272.751 27.2653V26.9013C272.527 27.0133 272.279 27.102 272.009 27.1673C271.738 27.2233 271.411 27.2793 271.029 27.3353L270.525 27.4193C270.002 27.522 269.741 27.6993 269.741 27.9513C269.741 28.222 269.983 28.3573 270.469 28.3573ZM285.004 26.9153C285.424 27.2513 285.746 27.6293 285.97 28.0493C286.194 28.4693 286.404 28.9733 286.6 29.5613C286.796 30.0747 286.936 30.4107 287.02 30.5693H283.646C283.618 30.504 283.562 30.2987 283.478 29.9533C283.403 29.608 283.328 29.3327 283.254 29.1273C283.179 28.9127 283.067 28.726 282.918 28.5673C282.684 28.3153 282.423 28.152 282.134 28.0773C281.844 28.0027 281.415 27.9653 280.846 27.9653V30.5693H277.85C277.896 29.5053 277.92 28.2313 277.92 26.7473C277.92 25.2633 277.896 23.9893 277.85 22.9253H280.846V25.6693H280.902C282.012 24.5587 282.82 23.644 283.324 22.9253H287.02L283.744 26.1873C284.229 26.3927 284.649 26.6353 285.004 26.9153ZM290.712 26.7473C290.731 27.2233 290.88 27.606 291.16 27.8953C291.45 28.1847 291.874 28.3293 292.434 28.3293C292.742 28.3293 293.018 28.2733 293.26 28.1613C293.503 28.04 293.727 27.8627 293.932 27.6293C294.726 27.9373 295.654 28.2033 296.718 28.4273C296.41 29.146 295.888 29.706 295.15 30.1073C294.422 30.5087 293.475 30.7093 292.308 30.7093C290.75 30.7093 289.597 30.3453 288.85 29.6173C288.104 28.8893 287.73 27.9327 287.73 26.7473C287.73 25.562 288.104 24.6053 288.85 23.8773C289.597 23.1493 290.75 22.7853 292.308 22.7853C293.475 22.7853 294.422 22.986 295.15 23.3873C295.888 23.7887 296.41 24.3487 296.718 25.0673C295.888 25.2447 294.959 25.5107 293.932 25.8653C293.727 25.632 293.503 25.4593 293.26 25.3473C293.018 25.226 292.742 25.1653 292.434 25.1653C291.874 25.1653 291.45 25.31 291.16 25.5993C290.88 25.8887 290.731 26.2713 290.712 26.7473ZM305.735 27.0693H301.171C301.246 27.48 301.428 27.816 301.717 28.0773C302.016 28.3293 302.436 28.4553 302.977 28.4553C303.369 28.4553 303.738 28.3807 304.083 28.2313C304.428 28.0727 304.704 27.8533 304.909 27.5733C305.534 27.8813 306.365 28.2127 307.401 28.5673C307.112 29.2207 306.584 29.7433 305.819 30.1353C305.063 30.518 304.074 30.7093 302.851 30.7093C301.264 30.7093 300.088 30.3453 299.323 29.6173C298.567 28.88 298.189 27.914 298.189 26.7193C298.189 25.5527 298.567 24.6053 299.323 23.8773C300.079 23.1493 301.255 22.7853 302.851 22.7853C303.803 22.7853 304.629 22.944 305.329 23.2613C306.029 23.5787 306.566 24.022 306.939 24.5913C307.312 25.1513 307.499 25.7953 307.499 26.5233C307.499 26.766 307.49 26.948 307.471 27.0693H305.735ZM303.047 24.8993C302.58 24.8993 302.198 24.988 301.899 25.1653C301.6 25.3427 301.39 25.5853 301.269 25.8933H304.573C304.461 25.5947 304.279 25.3567 304.027 25.1793C303.775 24.9927 303.448 24.8993 303.047 24.8993ZM311.875 26.7473C311.894 27.2233 312.043 27.606 312.323 27.8953C312.613 28.1847 313.037 28.3293 313.597 28.3293C313.905 28.3293 314.181 28.2733 314.423 28.1613C314.666 28.04 314.89 27.8627 315.095 27.6293C315.889 27.9373 316.817 28.2033 317.881 28.4273C317.573 29.146 317.051 29.706 316.313 30.1073C315.585 30.5087 314.638 30.7093 313.471 30.7093C311.913 30.7093 310.76 30.3453 310.013 29.6173C309.267 28.8893 308.893 27.9327 308.893 26.7473C308.893 25.562 309.267 24.6053 310.013 23.8773C310.76 23.1493 311.913 22.7853 313.471 22.7853C314.638 22.7853 315.585 22.986 316.313 23.3873C317.051 23.7887 317.573 24.3487 317.881 25.0673C317.051 25.2447 316.122 25.5107 315.095 25.8653C314.89 25.632 314.666 25.4593 314.423 25.3473C314.181 25.226 313.905 25.1653 313.597 25.1653C313.037 25.1653 312.613 25.31 312.323 25.5993C312.043 25.8887 311.894 26.2713 311.875 26.7473ZM322.334 26.7473C322.353 27.2233 322.502 27.606 322.782 27.8953C323.071 28.1847 323.496 28.3293 324.056 28.3293C324.364 28.3293 324.639 28.2733 324.882 28.1613C325.125 28.04 325.349 27.8627 325.554 27.6293C326.347 27.9373 327.276 28.2033 328.34 28.4273C328.032 29.146 327.509 29.706 326.772 30.1073C326.044 30.5087 325.097 30.7093 323.93 30.7093C322.371 30.7093 321.219 30.3453 320.472 29.6173C319.725 28.8893 319.352 27.9327 319.352 26.7473C319.352 25.562 319.725 24.6053 320.472 23.8773C321.219 23.1493 322.371 22.7853 323.93 22.7853C325.097 22.7853 326.044 22.986 326.772 23.3873C327.509 23.7887 328.032 24.3487 328.34 25.0673C327.509 25.2447 326.581 25.5107 325.554 25.8653C325.349 25.632 325.125 25.4593 324.882 25.3473C324.639 25.226 324.364 25.1653 324.056 25.1653C323.496 25.1653 323.071 25.31 322.782 25.5993C322.502 25.8887 322.353 26.2713 322.334 26.7473ZM338.328 22.9253L338.006 23.7373C337.12 26.0987 336.191 28.376 335.22 30.5693C334.716 31.6893 333.988 32.5853 333.036 33.2573C332.084 33.9387 330.89 34.2653 329.452 34.2373C329.275 33.4627 329.126 32.856 329.004 32.4173C328.892 31.988 328.743 31.554 328.556 31.1153C329.07 31.2367 329.55 31.2973 329.998 31.2973C330.726 31.2973 331.305 31.1433 331.734 30.8353C331.398 29.8367 331.002 28.7633 330.544 27.6153C330.087 26.4673 329.424 24.904 328.556 22.9253H331.874C331.986 23.392 332.14 23.9333 332.336 24.5493C332.532 25.1653 332.728 25.758 332.924 26.3273C332.98 26.5047 333.069 26.7753 333.19 27.1393C333.321 27.494 333.424 27.7927 333.498 28.0353L333.862 26.9293C334.562 24.904 334.978 23.5693 335.108 22.9253H338.328ZM348.426 28.2453C348.426 28.5627 348.463 28.7867 348.538 28.9173C348.612 29.048 348.762 29.1413 348.986 29.1973L348.93 30.5133C348.631 30.56 348.37 30.5927 348.146 30.6113C347.931 30.63 347.642 30.6393 347.278 30.6393C346.475 30.6393 345.943 30.462 345.682 30.1073C345.42 29.7433 345.29 29.2813 345.29 28.7213V28.3713C345.019 29.1367 344.622 29.706 344.1 30.0793C343.586 30.4527 342.928 30.6393 342.126 30.6393C341.192 30.6393 340.488 30.4527 340.012 30.0793C339.545 29.706 339.312 29.1507 339.312 28.4133C339.312 27.8067 339.512 27.3307 339.914 26.9853C340.315 26.64 340.936 26.402 341.776 26.2713C341.066 25.7673 340.357 25.3287 339.648 24.9553C340.208 24.246 340.847 23.7093 341.566 23.3453C342.284 22.972 343.157 22.7853 344.184 22.7853C345.621 22.7853 346.685 23.098 347.376 23.7233C348.076 24.3393 348.426 25.2913 348.426 26.5793V28.2453ZM344.478 25.2493C344.002 25.2493 343.582 25.3287 343.218 25.4873C342.854 25.646 342.527 25.884 342.238 26.2013C342.798 26.136 343.498 26.1033 344.338 26.1033C344.683 26.1033 344.926 26.0613 345.066 25.9773C345.206 25.8933 345.276 25.786 345.276 25.6553C345.276 25.5433 345.206 25.45 345.066 25.3753C344.926 25.2913 344.73 25.2493 344.478 25.2493ZM343.008 28.3573C343.53 28.3573 344.002 28.2593 344.422 28.0633C344.842 27.858 345.131 27.592 345.29 27.2653V26.9013C345.066 27.0133 344.818 27.102 344.548 27.1673C344.277 27.2233 343.95 27.2793 343.568 27.3353L343.064 27.4193C342.541 27.522 342.28 27.6993 342.28 27.9513C342.28 28.222 342.522 28.3573 343.008 28.3573ZM356.507 22.7853C357.113 22.7853 357.659 22.958 358.145 23.3033C358.63 23.6487 359.008 24.12 359.279 24.7173C359.549 25.3053 359.685 25.954 359.685 26.6633C359.685 27.3633 359.549 28.026 359.279 28.6513C359.008 29.2673 358.625 29.7667 358.131 30.1493C357.645 30.5227 357.09 30.7093 356.465 30.7093C355.737 30.7093 355.111 30.56 354.589 30.2613C354.075 29.9533 353.693 29.482 353.441 28.8473C353.441 29.3793 353.459 30.2333 353.497 31.4093C353.534 32.548 353.553 33.3507 353.553 33.8173H350.389C350.445 32.0813 350.473 30.266 350.473 28.3713C350.473 26.4767 350.445 24.6613 350.389 22.9253H353.077L353.483 24.6753C353.744 24.022 354.136 23.546 354.659 23.2473C355.181 22.9393 355.797 22.7853 356.507 22.7853ZM355.009 28.1893C355.429 28.1893 355.779 28.0587 356.059 27.7973C356.348 27.5267 356.493 27.1767 356.493 26.7473C356.493 26.2713 356.362 25.884 356.101 25.5853C355.839 25.2867 355.485 25.1373 355.037 25.1373C354.523 25.1373 354.136 25.2633 353.875 25.5153C353.613 25.758 353.483 26.1687 353.483 26.7473C353.483 27.074 353.567 27.3493 353.735 27.5733C353.903 27.788 354.103 27.9467 354.337 28.0493C354.57 28.1427 354.794 28.1893 355.009 28.1893ZM366.088 24.6333C367.479 24.6333 368.449 24.9087 369 25.4593C369.551 26.0007 369.826 26.7567 369.826 27.7273C369.826 28.6327 369.551 29.3327 369 29.8273C368.459 30.3127 367.488 30.5553 366.088 30.5553H364.226V30.5693H361.23C361.277 29.5053 361.3 28.2313 361.3 26.7473C361.3 25.2633 361.277 23.9893 361.23 22.9253H364.226V24.6333H366.088ZM373.438 22.9253C373.391 23.9707 373.368 25.24 373.368 26.7333C373.368 28.2173 373.391 29.4867 373.438 30.5413H370.372C370.4 28.6653 370.414 27.088 370.414 25.8093C370.414 24.5307 370.4 23.5693 370.372 22.9253H373.438ZM365.248 28.3293C365.911 28.3293 366.373 28.278 366.634 28.1753C366.895 28.0727 367.026 27.872 367.026 27.5733C367.026 27.2747 366.891 27.074 366.62 26.9713C366.349 26.8593 365.892 26.8033 365.248 26.8033L364.226 26.8173V28.3293H365.248Z" fill="black"/>
<path d="M254.336 58.8413L256.64 52.5693H258.128L254.864 61.0653C254.523 61.972 254.043 62.66 253.424 63.1293C252.805 63.6093 252.101 63.8227 251.312 63.7693V62.4733C252.283 62.548 253.003 62.0147 253.472 60.8733L253.6 60.5853L250.128 52.5693H251.6L254.336 58.8413ZM264.559 56.4733C265.444 56.8467 265.887 57.4813 265.887 58.3773C265.887 59.0707 265.615 59.6467 265.071 60.1053C264.527 60.5533 263.774 60.7773 262.815 60.7773C261.215 60.7773 260.142 60.1373 259.598 58.8573L260.766 58.1693C261.065 59.044 261.753 59.4813 262.831 59.4813C263.353 59.4813 263.764 59.3693 264.062 59.1453C264.361 58.9213 264.51 58.6227 264.51 58.2493C264.51 57.9293 264.388 57.668 264.142 57.4653C263.908 57.2627 263.588 57.1613 263.182 57.1613H262.014V55.8973H262.878C263.284 55.8973 263.599 55.8013 263.823 55.6093C264.047 55.4067 264.159 55.1347 264.159 54.7933C264.159 54.4413 264.025 54.164 263.759 53.9613C263.492 53.748 263.135 53.6413 262.687 53.6413C261.791 53.6413 261.182 54.02 260.862 54.7773L259.726 54.1213C260.292 52.948 261.279 52.3613 262.687 52.3613C263.54 52.3613 264.223 52.5853 264.734 53.0333C265.257 53.4707 265.519 54.02 265.519 54.6813C265.519 55.492 265.199 56.0893 264.559 56.4733ZM274.051 55.8973V52.5693H275.443V60.5693H274.051V57.2253H269.907V60.5693H268.515V52.5693H269.907V55.8973H274.051ZM285.306 53.9453V52.5693H286.698V60.5693H285.306V59.1933C284.623 60.2493 283.615 60.7773 282.282 60.7773C281.151 60.7773 280.196 60.372 279.418 59.5613C278.628 58.74 278.234 57.7427 278.234 56.5693C278.234 55.4067 278.628 54.4147 279.418 53.5933C280.207 52.772 281.162 52.3613 282.282 52.3613C283.615 52.3613 284.623 52.8893 285.306 53.9453ZM282.458 59.4333C283.268 59.4333 283.946 59.1613 284.49 58.6173C285.034 58.052 285.306 57.3693 285.306 56.5693C285.306 55.7587 285.034 55.0813 284.49 54.5373C283.946 53.9827 283.268 53.7053 282.458 53.7053C281.658 53.7053 280.986 53.9827 280.442 54.5373C279.898 55.0813 279.626 55.7587 279.626 56.5693C279.626 57.3693 279.898 58.052 280.442 58.6173C280.986 59.1613 281.658 59.4333 282.458 59.4333ZM289.031 52.5693H295.879V53.9133H293.159V60.5693H291.767V53.9133H289.031V52.5693ZM299.61 55.4493H301.594C302.394 55.4493 303.056 55.6893 303.578 56.1693C304.112 56.6387 304.378 57.252 304.378 58.0093C304.378 58.7667 304.112 59.3853 303.578 59.8653C303.045 60.3347 302.384 60.5693 301.594 60.5693H298.218V52.5693H299.61V55.4493ZM299.61 59.2733H301.594C302 59.2733 302.336 59.156 302.602 58.9213C302.869 58.6867 303.002 58.3827 303.002 58.0093C303.002 57.636 302.864 57.332 302.586 57.0973C302.32 56.852 301.989 56.7293 301.594 56.7293H299.61V59.2733ZM315.747 60.7773C314.563 60.7773 313.587 60.388 312.819 59.6093C312.051 58.82 311.667 57.8173 311.667 56.6013C311.667 55.2253 311.864 54.1747 312.259 53.4493C312.664 52.7133 313.485 52.0467 314.723 51.4493C314.787 51.4173 314.861 51.38 314.947 51.3373C315.043 51.2947 315.155 51.2467 315.283 51.1933C315.421 51.1293 315.539 51.076 315.635 51.0333L316.499 50.6493C317.352 50.2227 317.805 49.7107 317.859 49.1133L318.979 49.7533C318.904 50.1267 318.781 50.4253 318.611 50.6493C318.6 50.6707 318.568 50.7187 318.515 50.7933C318.461 50.8573 318.424 50.9053 318.403 50.9373C318.381 50.9587 318.344 50.996 318.291 51.0493C318.248 51.092 318.2 51.1347 318.147 51.1773C318.104 51.22 318.045 51.2627 317.971 51.3053C317.576 51.5507 317.293 51.7107 317.123 51.7853C317.059 51.8173 316.989 51.8493 316.915 51.8813C316.851 51.9133 316.797 51.94 316.755 51.9613C316.712 51.9827 316.68 51.9987 316.659 52.0093L316.131 52.2333L315.619 52.4413C314.904 52.7507 314.376 53.0653 314.035 53.3853C313.693 53.7053 313.448 54.1107 313.299 54.6013C313.629 54.196 314.045 53.8867 314.547 53.6733C315.059 53.46 315.581 53.3533 316.115 53.3533C317.128 53.3533 317.976 53.6947 318.659 54.3773C319.363 55.0707 319.715 55.9507 319.715 57.0173C319.715 58.1053 319.341 59.0067 318.595 59.7213C317.837 60.4253 316.888 60.7773 315.747 60.7773ZM318.323 57.0173C318.323 56.3027 318.088 55.7213 317.619 55.2733C317.16 54.8147 316.552 54.5853 315.795 54.5853C315.123 54.5853 314.504 54.804 313.939 55.2413C313.395 55.6787 313.123 56.244 313.123 56.9373C313.123 57.6627 313.373 58.26 313.875 58.7293C314.376 59.1987 315 59.4333 315.747 59.4333C316.504 59.4333 317.117 59.204 317.587 58.7453C318.077 58.2867 318.323 57.7107 318.323 57.0173ZM329.065 59.5613C328.254 60.372 327.257 60.7773 326.073 60.7773C324.889 60.7773 323.892 60.372 323.081 59.5613C322.27 58.7507 321.865 57.7533 321.865 56.5693C321.865 55.3853 322.27 54.388 323.081 53.5773C323.892 52.7667 324.889 52.3613 326.073 52.3613C327.257 52.3613 328.254 52.7667 329.065 53.5773C329.886 54.3987 330.297 55.396 330.297 56.5693C330.297 57.7427 329.886 58.74 329.065 59.5613ZM326.073 59.4173C326.873 59.4173 327.545 59.1453 328.089 58.6013C328.633 58.0573 328.905 57.38 328.905 56.5693C328.905 55.7587 328.633 55.0813 328.089 54.5373C327.545 53.9933 326.873 53.7213 326.073 53.7213C325.284 53.7213 324.617 53.9933 324.073 54.5373C323.529 55.0813 323.257 55.7587 323.257 56.5693C323.257 57.38 323.529 58.0573 324.073 58.6013C324.617 59.1453 325.284 59.4173 326.073 59.4173ZM333.513 52.5693H339.449V60.5693H338.057V53.9133H334.905V57.1773C334.905 58.4573 334.649 59.3693 334.137 59.9133C333.625 60.4467 332.873 60.6653 331.881 60.5693V59.2573C332.435 59.332 332.846 59.2093 333.113 58.8893C333.379 58.5587 333.513 57.9773 333.513 57.1453V52.5693ZM344.07 55.4493H346.054C346.854 55.4493 347.515 55.6893 348.038 56.1693C348.571 56.6387 348.838 57.252 348.838 58.0093C348.838 58.7667 348.571 59.3853 348.038 59.8653C347.505 60.3347 346.843 60.5693 346.054 60.5693H342.678V52.5693H344.07V55.4493ZM344.07 59.2733H346.054C346.459 59.2733 346.795 59.156 347.062 58.9213C347.329 58.6867 347.462 58.3827 347.462 58.0093C347.462 57.636 347.323 57.332 347.046 57.0973C346.779 56.852 346.449 56.7293 346.054 56.7293H344.07V59.2733ZM361.022 59.2413V52.5693H362.414V60.5693H351.454V52.5693H352.846V59.2413H356.238V52.5693H357.63V59.2413H361.022ZM373.348 57.2093H366.644C366.783 57.9133 367.108 58.468 367.62 58.8733C368.132 59.268 368.772 59.4653 369.54 59.4653C370.596 59.4653 371.364 59.076 371.844 58.2973L373.028 58.9693C372.239 60.1747 371.065 60.7773 369.508 60.7773C368.249 60.7773 367.215 60.3827 366.404 59.5933C365.615 58.7827 365.22 57.7747 365.22 56.5693C365.22 55.3533 365.609 54.3507 366.388 53.5613C367.167 52.7613 368.175 52.3613 369.412 52.3613C370.585 52.3613 371.54 52.7773 372.276 53.6093C373.023 54.42 373.396 55.412 373.396 56.5853C373.396 56.788 373.38 56.996 373.348 57.2093ZM369.412 53.6733C368.676 53.6733 368.057 53.8813 367.556 54.2973C367.065 54.7133 366.761 55.2787 366.644 55.9933H371.988C371.871 55.2573 371.577 54.6867 371.108 54.2813C370.639 53.876 370.073 53.6733 369.412 53.6733Z" fill="black"/>
<line x1="250" y1="71.5942" x2="374" y2="71.5942" stroke="black"/>
<line y1="-0.5" x2="47.6473" y2="-0.5" transform="matrix(-0.9823 0.187314 -0.247655 -0.968848 374 71.5693)" stroke="black"/>
</svg>
