<svg width="20" height="18" viewBox="0 0 20 18" fill="none" xmlns="http://www.w3.org/2000/svg">
<path d="M19.732 5.95334C19.732 7.34534 19.388 8.52134 18.7 9.48134C18.028 10.4413 16.868 11.1373 15.22 11.5693C15.412 11.8253 15.548 12.0253 15.628 12.1693L19.516 17.5693H12.988C12.284 16.2573 11.172 14.4013 9.652 12.0013H6.124V17.5693H0.46C0.588 14.4653 0.652 11.5613 0.652 8.85734C0.652 6.15334 0.588 3.24934 0.46 0.145336H6.124V0.169335H11.044C14.276 0.169335 16.532 0.689335 17.812 1.72934C19.092 2.76934 19.732 4.17734 19.732 5.95334ZM6.124 4.77733V7.51334H9.364C10.724 7.51334 11.748 7.47334 12.436 7.39334C13.14 7.29734 13.628 7.15334 13.9 6.96134C14.172 6.76934 14.308 6.48934 14.308 6.12134C14.308 5.76934 14.18 5.49734 13.924 5.30534C13.668 5.11334 13.188 4.97734 12.484 4.89734C11.78 4.81734 10.74 4.77733 9.364 4.77733H6.124Z" fill="black"/>
</svg>
