<svg width="195" height="111" viewBox="0 0 195 111" fill="none" xmlns="http://www.w3.org/2000/svg">
<rect width="195" height="110" transform="translate(0 0.569336)" fill="#BDDA63"/>
<path d="M19.402 26.7473C19.4207 27.2233 19.57 27.606 19.85 27.8953C20.1393 28.1847 20.564 28.3293 21.124 28.3293C21.432 28.3293 21.7073 28.2733 21.95 28.1613C22.1927 28.04 22.4167 27.8627 22.622 27.6293C23.4153 27.9373 24.344 28.2033 25.408 28.4273C25.1 29.146 24.5773 29.706 23.84 30.1073C23.112 30.5087 22.1647 30.7093 20.998 30.7093C19.4393 30.7093 18.2867 30.3453 17.54 29.6173C16.7933 28.8893 16.42 27.9327 16.42 26.7473C16.42 25.562 16.7933 24.6053 17.54 23.8773C18.2867 23.1493 19.4393 22.7853 20.998 22.7853C22.1647 22.7853 23.112 22.986 23.84 23.3873C24.5773 23.7887 25.1 24.3487 25.408 25.0673C24.5773 25.2447 23.6487 25.5107 22.622 25.8653C22.4167 25.632 22.1927 25.4593 21.95 25.3473C21.7073 25.226 21.432 25.1653 21.124 25.1653C20.564 25.1653 20.1393 25.31 19.85 25.5993C19.57 25.8887 19.4207 26.2713 19.402 26.7473ZM34.1724 26.9153C34.5924 27.2513 34.9144 27.6293 35.1384 28.0493C35.3624 28.4693 35.5724 28.9733 35.7684 29.5613C35.9644 30.0747 36.1044 30.4107 36.1884 30.5693H32.8144C32.7864 30.504 32.7304 30.2987 32.6464 29.9533C32.5718 29.608 32.4971 29.3327 32.4224 29.1273C32.3478 28.9127 32.2358 28.726 32.0864 28.5673C31.8531 28.3153 31.5918 28.152 31.3024 28.0773C31.0131 28.0027 30.5838 27.9653 30.0144 27.9653V30.5693H27.0184C27.0651 29.5053 27.0884 28.2313 27.0884 26.7473C27.0884 25.2633 27.0651 23.9893 27.0184 22.9253H30.0144V25.6693H30.0704C31.1811 24.5587 31.9884 23.644 32.4924 22.9253H36.1884L32.9124 26.1873C33.3978 26.3927 33.8178 26.6353 34.1724 26.9153ZM46.0768 22.9253C46.0301 24.2787 46.0068 25.5013 46.0068 26.5933C46.0068 27.6667 46.0301 28.8893 46.0768 30.2613H43.2068L43.3608 25.4173L41.2188 30.2613H37.3128C37.3688 29.0293 37.3968 27.8067 37.3968 26.5933C37.3968 25.3613 37.3688 24.1387 37.3128 22.9253H40.0708L39.9308 27.8953L42.0728 22.9253H46.0768ZM56.4936 28.5813H56.9136V32.3473H54.2676V30.8213H49.8436V32.3753H47.1976V28.5813H47.6596C47.9769 28.5347 48.2149 28.418 48.3736 28.2313C48.5416 28.0447 48.6722 27.7367 48.7656 27.3073C48.8309 26.9713 48.8636 26.1687 48.8636 24.8993V22.9253L56.4936 22.9393V28.5813ZM51.2436 28.1193C51.2249 28.222 51.1876 28.376 51.1316 28.5813H53.8196V25.2913H51.4396V25.7113C51.4302 26.2527 51.4162 26.682 51.3976 26.9993C51.3789 27.3073 51.3276 27.6807 51.2436 28.1193ZM65.7528 26.9153C66.1728 27.2513 66.4948 27.6293 66.7188 28.0493C66.9428 28.4693 67.1528 28.9733 67.3488 29.5613C67.5448 30.0747 67.6848 30.4107 67.7688 30.5693H64.3948C64.3668 30.504 64.3108 30.2987 64.2268 29.9533C64.1522 29.608 64.0775 29.3327 64.0028 29.1273C63.9282 28.9127 63.8162 28.726 63.6668 28.5673C63.4335 28.3153 63.1722 28.152 62.8828 28.0773C62.5935 28.0027 62.1642 27.9653 61.5948 27.9653V30.5693H58.5988C58.6455 29.5053 58.6688 28.2313 58.6688 26.7473C58.6688 25.2633 58.6455 23.9893 58.5988 22.9253H61.5948V25.6693H61.6508C62.7615 24.5587 63.5688 23.644 64.0728 22.9253H67.7688L64.4928 26.1873C64.9782 26.3927 65.3982 26.6353 65.7528 26.9153ZM77.6572 22.9253C77.6105 24.2787 77.5872 25.5013 77.5872 26.5933C77.5872 27.6667 77.6105 28.8893 77.6572 30.2613H74.7872L74.9412 25.4173L72.7992 30.2613H68.8932C68.9492 29.0293 68.9772 27.8067 68.9772 26.5933C68.9772 25.3613 68.9492 24.1387 68.8932 22.9253H71.6512L71.5112 27.8953L73.6532 22.9253H77.6572ZM86.2147 28.1193C89.248 27.9513 91.6 27.7647 93.2707 27.5593C93.112 28.0447 92.9907 28.558 92.9067 29.0993C92.8227 29.6407 92.7807 30.1307 92.7807 30.5693H82.7707L82.7567 30.2753C82.7567 29.3607 83.0227 28.5673 83.5547 27.8953C84.096 27.2233 84.8474 26.6027 85.8087 26.0333C86.0887 25.8653 86.5274 25.6507 87.1247 25.3893C87.8994 25.0533 88.4967 24.7593 88.9167 24.5073C89.3367 24.246 89.5467 23.9893 89.5467 23.7373C89.5467 23.42 89.416 23.168 89.1547 22.9813C88.8934 22.7947 88.4874 22.7013 87.9367 22.7013C87.33 22.7013 86.868 22.8553 86.5507 23.1633C86.2427 23.4713 86.0887 23.8633 86.0887 24.3393C86.0887 24.4887 86.1027 24.6427 86.1307 24.8013C84.9547 24.652 83.8114 24.5493 82.7007 24.4933C82.7007 23.7 82.906 22.986 83.3167 22.3513C83.7367 21.7073 84.362 21.1987 85.1927 20.8253C86.0327 20.452 87.0594 20.2653 88.2727 20.2653C89.3834 20.2653 90.3074 20.4193 91.0447 20.7273C91.7914 21.026 92.3374 21.4087 92.6827 21.8753C93.0374 22.3327 93.2147 22.804 93.2147 23.2893C93.2147 23.8493 93.0887 24.33 92.8367 24.7313C92.594 25.1327 92.2394 25.492 91.7727 25.8093C91.3154 26.1173 90.6994 26.4533 89.9247 26.8173C89.8127 26.8733 89.6307 26.9387 89.3787 27.0133C89.1267 27.0787 88.968 27.1207 88.9027 27.1393C88.24 27.3353 87.7127 27.4987 87.3207 27.6293C86.9287 27.76 86.56 27.9233 86.2147 28.1193ZM100.816 30.7093C98.8095 30.7093 97.3302 30.2473 96.3782 29.3233C95.4262 28.3993 94.9502 27.116 94.9502 25.4733C94.9502 23.84 95.4262 22.566 96.3782 21.6513C97.3395 20.7273 98.8188 20.2653 100.816 20.2653C102.813 20.2653 104.288 20.7273 105.24 21.6513C106.192 22.566 106.668 23.84 106.668 25.4733C106.668 27.116 106.192 28.3993 105.24 29.3233C104.288 30.2473 102.813 30.7093 100.816 30.7093ZM100.83 28.2593C101.689 28.2593 102.314 27.998 102.706 27.4753C103.098 26.9433 103.294 26.276 103.294 25.4733C103.294 24.68 103.098 24.022 102.706 23.4993C102.314 22.9673 101.689 22.7013 100.83 22.7013C99.9435 22.7013 99.2995 22.9673 98.8982 23.4993C98.5062 24.022 98.3102 24.68 98.3102 25.4733C98.3102 26.2667 98.5062 26.9293 98.8982 27.4613C99.2995 27.9933 99.9435 28.2593 100.83 28.2593ZM117.168 25.5573C117.784 25.5573 118.311 25.6693 118.75 25.8933C119.189 26.108 119.52 26.4067 119.744 26.7893C119.977 27.172 120.094 27.5967 120.094 28.0633C120.094 28.5393 119.977 28.9687 119.744 29.3513C119.52 29.734 119.189 30.0373 118.75 30.2613C118.311 30.476 117.784 30.5833 117.168 30.5833C116.543 30.5833 116.006 30.476 115.558 30.2613C115.119 30.0373 114.783 29.734 114.55 29.3513C114.326 28.9687 114.214 28.5393 114.214 28.0633C114.214 27.7833 114.256 27.5173 114.34 27.2653L111.862 30.5833H108.628L112.982 24.7593C112.459 25.2073 111.759 25.4313 110.882 25.4313C110.257 25.4313 109.72 25.324 109.272 25.1093C108.833 24.8853 108.497 24.582 108.264 24.1993C108.04 23.8167 107.928 23.3873 107.928 22.9113C107.928 22.4447 108.04 22.02 108.264 21.6373C108.497 21.2547 108.833 20.956 109.272 20.7413C109.72 20.5173 110.257 20.4053 110.882 20.4053C111.498 20.4053 112.025 20.5173 112.464 20.7413C112.903 20.956 113.234 21.2547 113.458 21.6373C113.691 22.02 113.808 22.4447 113.808 22.9113C113.808 23.2847 113.738 23.6253 113.598 23.9333L116.16 20.5173H119.38L115.222 26.0893C115.726 25.7347 116.375 25.5573 117.168 25.5573ZM110.882 23.6673C111.078 23.6673 111.255 23.588 111.414 23.4293C111.582 23.2707 111.666 23.0933 111.666 22.8973C111.666 22.7013 111.582 22.5333 111.414 22.3933C111.255 22.2533 111.078 22.1833 110.882 22.1833C110.667 22.1833 110.476 22.2533 110.308 22.3933C110.149 22.5333 110.07 22.7013 110.07 22.8973C110.07 23.1027 110.149 23.2847 110.308 23.4433C110.476 23.5927 110.667 23.6673 110.882 23.6673ZM117.168 28.8193C117.364 28.8193 117.541 28.74 117.7 28.5813C117.868 28.4227 117.952 28.2453 117.952 28.0493C117.952 27.8533 117.868 27.6853 117.7 27.5453C117.541 27.4053 117.364 27.3353 117.168 27.3353C116.953 27.3353 116.762 27.4053 116.594 27.5453C116.435 27.6853 116.356 27.8533 116.356 28.0493C116.356 28.2547 116.435 28.4367 116.594 28.5953C116.762 28.7447 116.953 28.8193 117.168 28.8193ZM133.532 22.9253C133.486 24.344 133.462 25.618 133.462 26.7473C133.462 27.8767 133.486 29.1507 133.532 30.5693H130.494V28.0213H127.75V30.5693H124.712C124.759 29.5053 124.782 28.2313 124.782 26.7473C124.782 25.2633 124.759 23.9893 124.712 22.9253H127.75V25.4733H130.494V22.9253H133.532ZM144.186 28.2453C144.186 28.5627 144.223 28.7867 144.298 28.9173C144.372 29.048 144.522 29.1413 144.746 29.1973L144.69 30.5133C144.391 30.56 144.13 30.5927 143.906 30.6113C143.691 30.63 143.402 30.6393 143.038 30.6393C142.235 30.6393 141.703 30.462 141.442 30.1073C141.18 29.7433 141.05 29.2813 141.05 28.7213V28.3713C140.779 29.1367 140.382 29.706 139.86 30.0793C139.346 30.4527 138.688 30.6393 137.886 30.6393C136.952 30.6393 136.248 30.4527 135.772 30.0793C135.305 29.706 135.072 29.1507 135.072 28.4133C135.072 27.8067 135.272 27.3307 135.674 26.9853C136.075 26.64 136.696 26.402 137.536 26.2713C136.826 25.7673 136.117 25.3287 135.408 24.9553C135.968 24.246 136.607 23.7093 137.326 23.3453C138.044 22.972 138.917 22.7853 139.944 22.7853C141.381 22.7853 142.445 23.098 143.136 23.7233C143.836 24.3393 144.186 25.2913 144.186 26.5793V28.2453ZM140.238 25.2493C139.762 25.2493 139.342 25.3287 138.978 25.4873C138.614 25.646 138.287 25.884 137.998 26.2013C138.558 26.136 139.258 26.1033 140.098 26.1033C140.443 26.1033 140.686 26.0613 140.826 25.9773C140.966 25.8933 141.036 25.786 141.036 25.6553C141.036 25.5433 140.966 25.45 140.826 25.3753C140.686 25.2913 140.49 25.2493 140.238 25.2493ZM138.768 28.3573C139.29 28.3573 139.762 28.2593 140.182 28.0633C140.602 27.858 140.891 27.592 141.05 27.2653V26.9013C140.826 27.0133 140.578 27.102 140.308 27.1673C140.037 27.2233 139.71 27.2793 139.328 27.3353L138.824 27.4193C138.301 27.522 138.04 27.6993 138.04 27.9513C138.04 28.222 138.282 28.3573 138.768 28.3573ZM25.534 43.2453C25.534 43.5627 25.5713 43.7867 25.646 43.9173C25.7207 44.048 25.87 44.1413 26.094 44.1973L26.038 45.5133C25.7393 45.56 25.478 45.5927 25.254 45.6113C25.0393 45.63 24.75 45.6393 24.386 45.6393C23.5833 45.6393 23.0513 45.462 22.79 45.1073C22.5287 44.7433 22.398 44.2813 22.398 43.7213V43.3713C22.1273 44.1367 21.7307 44.706 21.208 45.0793C20.6947 45.4527 20.0367 45.6393 19.234 45.6393C18.3007 45.6393 17.596 45.4527 17.12 45.0793C16.6533 44.706 16.42 44.1507 16.42 43.4133C16.42 42.8067 16.6207 42.3307 17.022 41.9853C17.4233 41.64 18.044 41.402 18.884 41.2713C18.1747 40.7673 17.4653 40.3287 16.756 39.9553C17.316 39.246 17.9553 38.7093 18.674 38.3453C19.3927 37.972 20.2653 37.7853 21.292 37.7853C22.7293 37.7853 23.7933 38.098 24.484 38.7233C25.184 39.3393 25.534 40.2913 25.534 41.5793V43.2453ZM21.586 40.2493C21.11 40.2493 20.69 40.3287 20.326 40.4873C19.962 40.646 19.6353 40.884 19.346 41.2013C19.906 41.136 20.606 41.1033 21.446 41.1033C21.7913 41.1033 22.034 41.0613 22.174 40.9773C22.314 40.8933 22.384 40.786 22.384 40.6553C22.384 40.5433 22.314 40.45 22.174 40.3753C22.034 40.2913 21.838 40.2493 21.586 40.2493ZM20.116 43.3573C20.6387 43.3573 21.11 43.2593 21.53 43.0633C21.95 42.858 22.2393 42.592 22.398 42.2653V41.9013C22.174 42.0133 21.9267 42.102 21.656 42.1673C21.3853 42.2233 21.0587 42.2793 20.676 42.3353L20.172 42.4193C19.6493 42.522 19.388 42.6993 19.388 42.9513C19.388 43.222 19.6307 43.3573 20.116 43.3573ZM34.651 41.9153C35.071 42.2513 35.393 42.6293 35.617 43.0493C35.841 43.4693 36.051 43.9733 36.247 44.5613C36.443 45.0747 36.583 45.4107 36.667 45.5693H33.293C33.265 45.504 33.209 45.2987 33.125 44.9533C33.0503 44.608 32.9756 44.3327 32.901 44.1273C32.8263 43.9127 32.7143 43.726 32.565 43.5673C32.3316 43.3153 32.0703 43.152 31.781 43.0773C31.4916 43.0027 31.0623 42.9653 30.493 42.9653V45.5693H27.497C27.5436 44.5053 27.567 43.2313 27.567 41.7473C27.567 40.2633 27.5436 38.9893 27.497 37.9253H30.493V40.6693H30.549C31.6596 39.5587 32.467 38.644 32.971 37.9253H36.667L33.391 41.1873C33.8763 41.3927 34.2963 41.6353 34.651 41.9153ZM40.3599 41.7473C40.3786 42.2233 40.5279 42.606 40.8079 42.8953C41.0972 43.1847 41.5219 43.3293 42.0819 43.3293C42.3899 43.3293 42.6652 43.2733 42.9079 43.1613C43.1506 43.04 43.3746 42.8627 43.5799 42.6293C44.3732 42.9373 45.3019 43.2033 46.3659 43.4273C46.0579 44.146 45.5352 44.706 44.7979 45.1073C44.0699 45.5087 43.1226 45.7093 41.9559 45.7093C40.3972 45.7093 39.2446 45.3453 38.4979 44.6173C37.7512 43.8893 37.3779 42.9327 37.3779 41.7473C37.3779 40.562 37.7512 39.6053 38.4979 38.8773C39.2446 38.1493 40.3972 37.7853 41.9559 37.7853C43.1226 37.7853 44.0699 37.986 44.7979 38.3873C45.5352 38.7887 46.0579 39.3487 46.3659 40.0673C45.5352 40.2447 44.6066 40.5107 43.5799 40.8653C43.3746 40.632 43.1506 40.4593 42.9079 40.3473C42.6652 40.226 42.3899 40.1653 42.0819 40.1653C41.5219 40.1653 41.0972 40.31 40.8079 40.5993C40.5279 40.8887 40.3786 41.2713 40.3599 41.7473ZM55.3823 42.0693H50.8183C50.893 42.48 51.075 42.816 51.3643 43.0773C51.663 43.3293 52.083 43.4553 52.6243 43.4553C53.0163 43.4553 53.385 43.3807 53.7303 43.2313C54.0757 43.0727 54.351 42.8533 54.5563 42.5733C55.1817 42.8813 56.0123 43.2127 57.0483 43.5673C56.759 44.2207 56.2317 44.7433 55.4663 45.1353C54.7103 45.518 53.721 45.7093 52.4983 45.7093C50.9117 45.7093 49.7357 45.3453 48.9703 44.6173C48.2143 43.88 47.8363 42.914 47.8363 41.7193C47.8363 40.5527 48.2143 39.6053 48.9703 38.8773C49.7263 38.1493 50.9023 37.7853 52.4983 37.7853C53.4503 37.7853 54.2763 37.944 54.9763 38.2613C55.6763 38.5787 56.213 39.022 56.5863 39.5913C56.9597 40.1513 57.1463 40.7953 57.1463 41.5233C57.1463 41.766 57.137 41.948 57.1183 42.0693H55.3823ZM52.6943 39.8993C52.2277 39.8993 51.845 39.988 51.5463 40.1653C51.2477 40.3427 51.0377 40.5853 50.9163 40.8933H54.2203C54.1083 40.5947 53.9263 40.3567 53.6743 40.1793C53.4223 39.9927 53.0957 39.8993 52.6943 39.8993ZM61.5229 41.7473C61.5415 42.2233 61.6909 42.606 61.9709 42.8953C62.2602 43.1847 62.6849 43.3293 63.2449 43.3293C63.5529 43.3293 63.8282 43.2733 64.0709 43.1613C64.3135 43.04 64.5375 42.8627 64.7429 42.6293C65.5362 42.9373 66.4649 43.2033 67.5289 43.4273C67.2209 44.146 66.6982 44.706 65.9609 45.1073C65.2329 45.5087 64.2855 45.7093 63.1189 45.7093C61.5602 45.7093 60.4075 45.3453 59.6609 44.6173C58.9142 43.8893 58.5409 42.9327 58.5409 41.7473C58.5409 40.562 58.9142 39.6053 59.6609 38.8773C60.4075 38.1493 61.5602 37.7853 63.1189 37.7853C64.2855 37.7853 65.2329 37.986 65.9609 38.3873C66.6982 38.7887 67.2209 39.3487 67.5289 40.0673C66.6982 40.2447 65.7695 40.5107 64.7429 40.8653C64.5375 40.632 64.3135 40.4593 64.0709 40.3473C63.8282 40.226 63.5529 40.1653 63.2449 40.1653C62.6849 40.1653 62.2602 40.31 61.9709 40.5993C61.6909 40.8887 61.5415 41.2713 61.5229 41.7473ZM71.9813 41.7473C72 42.2233 72.1493 42.606 72.4293 42.8953C72.7186 43.1847 73.1433 43.3293 73.7033 43.3293C74.0113 43.3293 74.2866 43.2733 74.5293 43.1613C74.772 43.04 74.996 42.8627 75.2013 42.6293C75.9946 42.9373 76.9233 43.2033 77.9873 43.4273C77.6793 44.146 77.1566 44.706 76.4193 45.1073C75.6913 45.5087 74.744 45.7093 73.5773 45.7093C72.0186 45.7093 70.866 45.3453 70.1193 44.6173C69.3726 43.8893 68.9993 42.9327 68.9993 41.7473C68.9993 40.562 69.3726 39.6053 70.1193 38.8773C70.866 38.1493 72.0186 37.7853 73.5773 37.7853C74.744 37.7853 75.6913 37.986 76.4193 38.3873C77.1566 38.7887 77.6793 39.3487 77.9873 40.0673C77.1566 40.2447 76.228 40.5107 75.2013 40.8653C74.996 40.632 74.772 40.4593 74.5293 40.3473C74.2866 40.226 74.0113 40.1653 73.7033 40.1653C73.1433 40.1653 72.7186 40.31 72.4293 40.5993C72.1493 40.8887 72 41.2713 71.9813 41.7473ZM87.9758 37.9253L87.6538 38.7373C86.7671 41.0987 85.8384 43.376 84.8678 45.5693C84.3638 46.6893 83.6358 47.5853 82.6838 48.2573C81.7318 48.9387 80.5371 49.2653 79.0998 49.2373C78.9224 48.4627 78.7731 47.856 78.6518 47.4173C78.5398 46.988 78.3904 46.554 78.2038 46.1153C78.7171 46.2367 79.1978 46.2973 79.6458 46.2973C80.3738 46.2973 80.9524 46.1433 81.3818 45.8353C81.0458 44.8367 80.6491 43.7633 80.1918 42.6153C79.7344 41.4673 79.0718 39.904 78.2038 37.9253H81.5218C81.6338 38.392 81.7878 38.9333 81.9838 39.5493C82.1798 40.1653 82.3758 40.758 82.5718 41.3273C82.6278 41.5047 82.7164 41.7753 82.8378 42.1393C82.9684 42.494 83.0711 42.7927 83.1458 43.0353L83.5098 41.9293C84.2098 39.904 84.6251 38.5693 84.7558 37.9253H87.9758ZM98.0731 43.2453C98.0731 43.5627 98.1105 43.7867 98.1851 43.9173C98.2598 44.048 98.4091 44.1413 98.6331 44.1973L98.5771 45.5133C98.2785 45.56 98.0171 45.5927 97.7931 45.6113C97.5785 45.63 97.2891 45.6393 96.9251 45.6393C96.1225 45.6393 95.5905 45.462 95.3291 45.1073C95.0678 44.7433 94.9371 44.2813 94.9371 43.7213V43.3713C94.6665 44.1367 94.2698 44.706 93.7471 45.0793C93.2338 45.4527 92.5758 45.6393 91.7731 45.6393C90.8398 45.6393 90.1351 45.4527 89.6591 45.0793C89.1925 44.706 88.9591 44.1507 88.9591 43.4133C88.9591 42.8067 89.1598 42.3307 89.5611 41.9853C89.9625 41.64 90.5831 41.402 91.4231 41.2713C90.7138 40.7673 90.0045 40.3287 89.2951 39.9553C89.8551 39.246 90.4945 38.7093 91.2131 38.3453C91.9318 37.972 92.8045 37.7853 93.8311 37.7853C95.2685 37.7853 96.3325 38.098 97.0231 38.7233C97.7231 39.3393 98.0731 40.2913 98.0731 41.5793V43.2453ZM94.1251 40.2493C93.6491 40.2493 93.2291 40.3287 92.8651 40.4873C92.5011 40.646 92.1745 40.884 91.8851 41.2013C92.4451 41.136 93.1451 41.1033 93.9851 41.1033C94.3305 41.1033 94.5731 41.0613 94.7131 40.9773C94.8531 40.8933 94.9231 40.786 94.9231 40.6553C94.9231 40.5433 94.8531 40.45 94.7131 40.3753C94.5731 40.2913 94.3771 40.2493 94.1251 40.2493ZM92.6551 43.3573C93.1778 43.3573 93.6491 43.2593 94.0691 43.0633C94.4891 42.858 94.7785 42.592 94.9371 42.2653V41.9013C94.7131 42.0133 94.4658 42.102 94.1951 42.1673C93.9245 42.2233 93.5978 42.2793 93.2151 42.3353L92.7111 42.4193C92.1885 42.522 91.9271 42.6993 91.9271 42.9513C91.9271 43.222 92.1698 43.3573 92.6551 43.3573ZM106.154 37.7853C106.761 37.7853 107.307 37.958 107.792 38.3033C108.277 38.6487 108.655 39.12 108.926 39.7173C109.197 40.3053 109.332 40.954 109.332 41.6633C109.332 42.3633 109.197 43.026 108.926 43.6513C108.655 44.2673 108.273 44.7667 107.778 45.1493C107.293 45.5227 106.737 45.7093 106.112 45.7093C105.384 45.7093 104.759 45.56 104.236 45.2613C103.723 44.9533 103.34 44.482 103.088 43.8473C103.088 44.3793 103.107 45.2333 103.144 46.4093C103.181 47.548 103.2 48.3507 103.2 48.8173H100.036C100.092 47.0813 100.12 45.266 100.12 43.3713C100.12 41.4767 100.092 39.6613 100.036 37.9253H102.724L103.13 39.6753C103.391 39.022 103.783 38.546 104.306 38.2473C104.829 37.9393 105.445 37.7853 106.154 37.7853ZM104.656 43.1893C105.076 43.1893 105.426 43.0587 105.706 42.7973C105.995 42.5267 106.14 42.1767 106.14 41.7473C106.14 41.2713 106.009 40.884 105.748 40.5853C105.487 40.2867 105.132 40.1373 104.684 40.1373C104.171 40.1373 103.783 40.2633 103.522 40.5153C103.261 40.758 103.13 41.1687 103.13 41.7473C103.13 42.074 103.214 42.3493 103.382 42.5733C103.55 42.788 103.751 42.9467 103.984 43.0493C104.217 43.1427 104.441 43.1893 104.656 43.1893ZM115.735 39.6333C117.126 39.6333 118.097 39.9087 118.647 40.4593C119.198 41.0007 119.473 41.7567 119.473 42.7273C119.473 43.6327 119.198 44.3327 118.647 44.8273C118.106 45.3127 117.135 45.5553 115.735 45.5553H113.873V45.5693H110.877C110.924 44.5053 110.947 43.2313 110.947 41.7473C110.947 40.2633 110.924 38.9893 110.877 37.9253H113.873V39.6333H115.735ZM123.085 37.9253C123.039 38.9707 123.015 40.24 123.015 41.7333C123.015 43.2173 123.039 44.4867 123.085 45.5413H120.019C120.047 43.6653 120.061 42.088 120.061 40.8093C120.061 39.5307 120.047 38.5693 120.019 37.9253H123.085ZM114.895 43.3293C115.558 43.3293 116.02 43.278 116.281 43.1753C116.543 43.0727 116.673 42.872 116.673 42.5733C116.673 42.2747 116.538 42.074 116.267 41.9713C115.997 41.8593 115.539 41.8033 114.895 41.8033L113.873 41.8173V43.3293H114.895Z" fill="black"/>
<path d="M20.336 73.8413L22.64 67.5693H24.128L20.864 76.0653C20.5227 76.972 20.0427 77.66 19.424 78.1293C18.8053 78.6093 18.1013 78.8227 17.312 78.7693V77.4733C18.2827 77.548 19.0027 77.0147 19.472 75.8733L19.6 75.5853L16.128 67.5693H17.6L20.336 73.8413ZM30.5585 71.4733C31.4438 71.8467 31.8865 72.4813 31.8865 73.3773C31.8865 74.0707 31.6145 74.6467 31.0705 75.1053C30.5265 75.5533 29.7745 75.7773 28.8145 75.7773C27.2145 75.7773 26.1425 75.1373 25.5985 73.8573L26.7665 73.1693C27.0652 74.044 27.7532 74.4813 28.8305 74.4813C29.3532 74.4813 29.7638 74.3693 30.0625 74.1453C30.3612 73.9213 30.5105 73.6227 30.5105 73.2493C30.5105 72.9293 30.3878 72.668 30.1425 72.4653C29.9078 72.2627 29.5878 72.1613 29.1825 72.1613H28.0145V70.8973H28.8785C29.2838 70.8973 29.5985 70.8013 29.8225 70.6093C30.0465 70.4067 30.1585 70.1347 30.1585 69.7933C30.1585 69.4413 30.0252 69.164 29.7585 68.9613C29.4918 68.748 29.1345 68.6413 28.6865 68.6413C27.7905 68.6413 27.1825 69.02 26.8625 69.7773L25.7265 69.1213C26.2918 67.948 27.2785 67.3613 28.6865 67.3613C29.5398 67.3613 30.2225 67.5853 30.7345 68.0333C31.2572 68.4707 31.5185 69.02 31.5185 69.6813C31.5185 70.492 31.1985 71.0893 30.5585 71.4733ZM40.0508 70.8973V67.5693H41.4427V75.5693H40.0508V72.2253H35.9067V75.5693H34.5147V67.5693H35.9067V70.8973H40.0508ZM51.3056 68.9453V67.5693H52.6976V75.5693H51.3056V74.1933C50.623 75.2493 49.615 75.7773 48.2816 75.7773C47.151 75.7773 46.1963 75.372 45.4176 74.5613C44.6283 73.74 44.2336 72.7427 44.2336 71.5693C44.2336 70.4067 44.6283 69.4147 45.4176 68.5933C46.207 67.772 47.1616 67.3613 48.2816 67.3613C49.615 67.3613 50.623 67.8893 51.3056 68.9453ZM48.4576 74.4333C49.2683 74.4333 49.9456 74.1613 50.4896 73.6173C51.0336 73.052 51.3056 72.3693 51.3056 71.5693C51.3056 70.7587 51.0336 70.0813 50.4896 69.5373C49.9456 68.9827 49.2683 68.7053 48.4576 68.7053C47.6576 68.7053 46.9856 68.9827 46.4416 69.5373C45.8976 70.0813 45.6256 70.7587 45.6256 71.5693C45.6256 72.3693 45.8976 73.052 46.4416 73.6173C46.9856 74.1613 47.6576 74.4333 48.4576 74.4333ZM55.0306 67.5693H61.8786V68.9133H59.1586V75.5693H57.7666V68.9133H55.0306V67.5693ZM65.6105 70.4493H67.5945C68.3945 70.4493 69.0558 70.6893 69.5785 71.1693C70.1118 71.6387 70.3785 72.252 70.3785 73.0093C70.3785 73.7667 70.1118 74.3853 69.5785 74.8653C69.0452 75.3347 68.3838 75.5693 67.5945 75.5693H64.2185V67.5693H65.6105V70.4493ZM65.6105 74.2733H67.5945C67.9998 74.2733 68.3358 74.156 68.6025 73.9213C68.8692 73.6867 69.0025 73.3827 69.0025 73.0093C69.0025 72.636 68.8638 72.332 68.5865 72.0973C68.3198 71.852 67.9892 71.7293 67.5945 71.7293H65.6105V74.2733ZM81.7468 75.7773C80.5628 75.7773 79.5868 75.388 78.8188 74.6093C78.0508 73.82 77.6668 72.8173 77.6668 71.6013C77.6668 70.2253 77.8641 69.1747 78.2588 68.4493C78.6641 67.7133 79.4854 67.0467 80.7228 66.4493C80.7868 66.4173 80.8614 66.38 80.9468 66.3373C81.0428 66.2947 81.1548 66.2467 81.2828 66.1933C81.4214 66.1293 81.5388 66.076 81.6348 66.0333L82.4988 65.6493C83.3521 65.2227 83.8054 64.7107 83.8588 64.1133L84.9788 64.7533C84.9041 65.1267 84.7814 65.4253 84.6108 65.6493C84.6001 65.6707 84.5681 65.7187 84.5148 65.7933C84.4614 65.8573 84.4241 65.9053 84.4028 65.9373C84.3814 65.9587 84.3441 65.996 84.2908 66.0493C84.2481 66.092 84.2001 66.1347 84.1468 66.1773C84.1041 66.22 84.0454 66.2627 83.9708 66.3053C83.5761 66.5507 83.2934 66.7107 83.1228 66.7853C83.0588 66.8173 82.9894 66.8493 82.9148 66.8813C82.8508 66.9133 82.7974 66.94 82.7548 66.9613C82.7121 66.9827 82.6801 66.9987 82.6588 67.0093L82.1308 67.2333L81.6188 67.4413C80.9041 67.7507 80.3761 68.0653 80.0348 68.3853C79.6934 68.7053 79.4481 69.1107 79.2988 69.6013C79.6294 69.196 80.0454 68.8867 80.5468 68.6733C81.0588 68.46 81.5814 68.3533 82.1148 68.3533C83.1281 68.3533 83.9761 68.6947 84.6588 69.3773C85.3628 70.0707 85.7148 70.9507 85.7148 72.0173C85.7148 73.1053 85.3414 74.0067 84.5948 74.7213C83.8374 75.4253 82.8881 75.7773 81.7468 75.7773ZM84.3228 72.0173C84.3228 71.3027 84.0881 70.7213 83.6188 70.2733C83.1601 69.8147 82.5521 69.5853 81.7948 69.5853C81.1228 69.5853 80.5041 69.804 79.9388 70.2413C79.3948 70.6787 79.1228 71.244 79.1228 71.9373C79.1228 72.6627 79.3734 73.26 79.8748 73.7293C80.3761 74.1987 81.0001 74.4333 81.7468 74.4333C82.5041 74.4333 83.1174 74.204 83.5868 73.7453C84.0774 73.2867 84.3228 72.7107 84.3228 72.0173ZM95.0649 74.5613C94.2542 75.372 93.2569 75.7773 92.0729 75.7773C90.8889 75.7773 89.8915 75.372 89.0809 74.5613C88.2702 73.7507 87.8649 72.7533 87.8649 71.5693C87.8649 70.3853 88.2702 69.388 89.0809 68.5773C89.8915 67.7667 90.8889 67.3613 92.0729 67.3613C93.2569 67.3613 94.2542 67.7667 95.0649 68.5773C95.8862 69.3987 96.2969 70.396 96.2969 71.5693C96.2969 72.7427 95.8862 73.74 95.0649 74.5613ZM92.0729 74.4173C92.8729 74.4173 93.5449 74.1453 94.0889 73.6013C94.6329 73.0573 94.9049 72.38 94.9049 71.5693C94.9049 70.7587 94.6329 70.0813 94.0889 69.5373C93.5449 68.9933 92.8729 68.7213 92.0729 68.7213C91.2835 68.7213 90.6169 68.9933 90.0729 69.5373C89.5289 70.0813 89.2569 70.7587 89.2569 71.5693C89.2569 72.38 89.5289 73.0573 90.0729 73.6013C90.6169 74.1453 91.2835 74.4173 92.0729 74.4173ZM99.5126 67.5693H105.449V75.5693H104.057V68.9133H100.905V72.1773C100.905 73.4573 100.649 74.3693 100.137 74.9133C99.6246 75.4467 98.8726 75.6653 97.8806 75.5693V74.2573C98.4353 74.332 98.846 74.2093 99.1126 73.8893C99.3793 73.5587 99.5126 72.9773 99.5126 72.1453V67.5693ZM110.07 70.4493H112.054C112.854 70.4493 113.515 70.6893 114.038 71.1693C114.571 71.6387 114.838 72.252 114.838 73.0093C114.838 73.7667 114.571 74.3853 114.038 74.8653C113.505 75.3347 112.843 75.5693 112.054 75.5693H108.678V67.5693H110.07V70.4493ZM110.07 74.2733H112.054C112.459 74.2733 112.795 74.156 113.062 73.9213C113.329 73.6867 113.462 73.3827 113.462 73.0093C113.462 72.636 113.323 72.332 113.046 72.0973C112.779 71.852 112.449 71.7293 112.054 71.7293H110.07V74.2733ZM127.022 74.2413V67.5693H128.414V75.5693H117.454V67.5693H118.846V74.2413H122.238V67.5693H123.63V74.2413H127.022ZM139.348 72.2093H132.644C132.783 72.9133 133.108 73.468 133.62 73.8733C134.132 74.268 134.772 74.4653 135.54 74.4653C136.596 74.4653 137.364 74.076 137.844 73.2973L139.028 73.9693C138.239 75.1747 137.065 75.7773 135.508 75.7773C134.249 75.7773 133.215 75.3827 132.404 74.5933C131.615 73.7827 131.22 72.7747 131.22 71.5693C131.22 70.3533 131.609 69.3507 132.388 68.5613C133.167 67.7613 134.175 67.3613 135.412 67.3613C136.585 67.3613 137.54 67.7773 138.276 68.6093C139.023 69.42 139.396 70.412 139.396 71.5853C139.396 71.788 139.38 71.996 139.348 72.2093ZM135.412 68.6733C134.676 68.6733 134.057 68.8813 133.556 69.2973C133.065 69.7133 132.761 70.2787 132.644 70.9933H137.988C137.871 70.2573 137.577 69.6867 137.108 69.2813C136.639 68.876 136.073 68.6733 135.412 68.6733Z" fill="black"/>
<line x1="16" y1="86.5942" x2="140" y2="86.5942" stroke="black"/>
<line y1="-0.5" x2="47.6473" y2="-0.5" transform="matrix(-0.9823 0.187314 -0.247655 -0.968848 140 86.5693)" stroke="black"/>
</svg>
