<svg width="16" height="16" viewBox="0 0 16 16" fill="none" xmlns="http://www.w3.org/2000/svg">
<g id="Icons">
<path id="Oval" fill-rule="evenodd" clip-rule="evenodd" d="M8.0013 9.33334C8.73768 9.33334 9.33464 8.73638 9.33464 8.00001C9.33464 7.26363 8.73768 6.66667 8.0013 6.66667C7.26492 6.66667 6.66797 7.26363 6.66797 8.00001C6.66797 8.73638 7.26492 9.33334 8.0013 9.33334Z" stroke="black" stroke-width="1.5" stroke-linecap="round" stroke-linejoin="round"/>
<path id="Oval_2" fill-rule="evenodd" clip-rule="evenodd" d="M8.0013 3.99999C8.73768 3.99999 9.33464 3.40304 9.33464 2.66666C9.33464 1.93028 8.73768 1.33333 8.0013 1.33333C7.26492 1.33333 6.66797 1.93028 6.66797 2.66666C6.66797 3.40304 7.26492 3.99999 8.0013 3.99999Z" stroke="black" stroke-width="1.5" stroke-linecap="round" stroke-linejoin="round"/>
<path id="Oval_3" fill-rule="evenodd" clip-rule="evenodd" d="M8.0013 14.6667C8.73768 14.6667 9.33464 14.0697 9.33464 13.3333C9.33464 12.597 8.73768 12 8.0013 12C7.26492 12 6.66797 12.597 6.66797 13.3333C6.66797 14.0697 7.26492 14.6667 8.0013 14.6667Z" stroke="black" stroke-width="1.5" stroke-linecap="round" stroke-linejoin="round"/>
</g>
</svg>
