<svg width="195" height="161" viewBox="0 0 195 161" fill="none" xmlns="http://www.w3.org/2000/svg">
<mask id="path-1-inside-1_4451_41991" fill="white">
<path d="M0 0.569336H195V160.569H0V0.569336Z"/>
</mask>
<path d="M0 0.569336H195V160.569H0V0.569336Z" fill="white"/>
<path d="M22.342 23.6253C23.154 23.6253 23.868 23.7793 24.484 24.0873C25.1093 24.386 25.5853 24.7873 25.912 25.2913C26.248 25.7953 26.416 26.3507 26.416 26.9573C26.416 27.7227 26.1967 28.39 25.758 28.9593C25.3193 29.5287 24.722 29.9627 23.966 30.2613C23.21 30.56 22.3653 30.7093 21.432 30.7093C20.48 30.7093 19.6353 30.504 18.898 30.0933C18.1607 29.6733 17.5867 29.0947 17.176 28.3573C16.7653 27.62 16.56 26.78 16.56 25.8373C16.56 23.9707 17.0267 22.5707 17.96 21.6373C18.8933 20.6947 20.172 20.1627 21.796 20.0413L22.776 19.9993C23.756 19.962 24.442 19.9153 24.834 19.8593V22.5193C24.5073 22.566 23.966 22.608 23.21 22.6453C22.6127 22.6827 22.1833 22.7153 21.922 22.7433C21.4367 22.8087 20.9793 22.9533 20.55 23.1773C20.1207 23.392 19.78 23.6393 19.528 23.9193C19.276 24.19 19.15 24.428 19.15 24.6333C19.57 24.288 20.0647 24.036 20.634 23.8773C21.2033 23.7093 21.7727 23.6253 22.342 23.6253ZM21.572 25.4313C21.068 25.4313 20.662 25.5667 20.354 25.8373C20.046 26.0987 19.892 26.514 19.892 27.0833C19.892 27.6527 20.046 28.068 20.354 28.3293C20.662 28.5907 21.068 28.7213 21.572 28.7213C22.076 28.7213 22.482 28.5907 22.79 28.3293C23.098 28.068 23.252 27.6527 23.252 27.0833C23.252 26.514 23.098 26.0987 22.79 25.8373C22.482 25.5667 22.076 25.4313 21.572 25.4313ZM32.4698 30.7093C30.8738 30.7093 29.6978 30.3453 28.9418 29.6173C28.1951 28.88 27.8218 27.914 27.8218 26.7193C27.8218 25.5527 28.1951 24.6053 28.9418 23.8773C29.6978 23.1493 30.8738 22.7853 32.4698 22.7853C33.5431 22.7853 34.4391 22.9627 35.1578 23.3173C35.8858 23.6627 36.4225 24.134 36.7678 24.7313C37.1131 25.3193 37.2858 25.982 37.2858 26.7193C37.2858 27.9233 36.8845 28.8893 36.0818 29.6173C35.2885 30.3453 34.0845 30.7093 32.4698 30.7093ZM32.5258 28.3293C33.1325 28.3293 33.5851 28.1847 33.8838 27.8953C34.1825 27.606 34.3318 27.2187 34.3318 26.7333C34.3318 26.276 34.1825 25.9027 33.8838 25.6133C33.5851 25.3147 33.1325 25.1653 32.5258 25.1653C31.9191 25.1653 31.4758 25.31 31.1958 25.5993C30.9158 25.8887 30.7758 26.2667 30.7758 26.7333C30.7758 27.2187 30.9158 27.606 31.1958 27.8953C31.4758 28.1847 31.9191 28.3293 32.5258 28.3293ZM47.5524 30.6393H44.4864V25.5713H42.4984L42.4844 26.0053C42.4751 26.4533 42.4564 26.85 42.4284 27.1953C42.4097 27.5313 42.3631 27.8953 42.2884 28.2873C41.9711 29.9953 40.6784 30.8493 38.4104 30.8493V28.6233C38.8491 28.5673 39.1477 28.432 39.3064 28.2173C39.4651 27.9933 39.5444 27.648 39.5444 27.1813V22.9253L47.5524 22.9393V30.6393ZM54.0921 24.6333C55.4828 24.6333 56.4535 24.9087 57.0041 25.4593C57.5548 26.0007 57.8301 26.7567 57.8301 27.7273C57.8301 28.6327 57.5548 29.3327 57.0041 29.8273C56.4628 30.3127 55.4921 30.5553 54.0921 30.5553H52.2301V30.5693H49.2341C49.2808 29.5053 49.3041 28.2313 49.3041 26.7473C49.3041 25.2633 49.2808 23.9893 49.2341 22.9253H52.2301V24.6333H54.0921ZM53.2521 28.3293C53.9148 28.3293 54.3768 28.278 54.6381 28.1753C54.8995 28.0727 55.0301 27.872 55.0301 27.5733C55.0301 27.2747 54.8948 27.074 54.6241 26.9713C54.3535 26.8593 53.8961 26.8033 53.2521 26.8033L52.2301 26.8173V28.3293H53.2521ZM69.7525 22.9253C69.7058 24.344 69.6825 25.618 69.6825 26.7473C69.6825 27.8767 69.7058 29.1507 69.7525 30.5693H59.3645C59.4111 29.5053 59.4345 28.2313 59.4345 26.7473C59.4345 25.2633 59.4111 23.9893 59.3645 22.9253H62.2485V28.0213H63.3265V22.9253H65.8045V28.0213H66.8685V22.9253H69.7525ZM80.4102 28.2453C80.4102 28.5627 80.4475 28.7867 80.5222 28.9173C80.5968 29.048 80.7462 29.1413 80.9702 29.1973L80.9142 30.5133C80.6155 30.56 80.3542 30.5927 80.1302 30.6113C79.9155 30.63 79.6262 30.6393 79.2622 30.6393C78.4595 30.6393 77.9275 30.462 77.6662 30.1073C77.4048 29.7433 77.2742 29.2813 77.2742 28.7213V28.3713C77.0035 29.1367 76.6068 29.706 76.0842 30.0793C75.5708 30.4527 74.9128 30.6393 74.1102 30.6393C73.1768 30.6393 72.4722 30.4527 71.9962 30.0793C71.5295 29.706 71.2962 29.1507 71.2962 28.4133C71.2962 27.8067 71.4968 27.3307 71.8982 26.9853C72.2995 26.64 72.9202 26.402 73.7602 26.2713C73.0508 25.7673 72.3415 25.3287 71.6322 24.9553C72.1922 24.246 72.8315 23.7093 73.5502 23.3453C74.2688 22.972 75.1415 22.7853 76.1682 22.7853C77.6055 22.7853 78.6695 23.098 79.3602 23.7233C80.0602 24.3393 80.4102 25.2913 80.4102 26.5793V28.2453ZM76.4622 25.2493C75.9862 25.2493 75.5662 25.3287 75.2022 25.4873C74.8382 25.646 74.5115 25.884 74.2222 26.2013C74.7822 26.136 75.4822 26.1033 76.3222 26.1033C76.6675 26.1033 76.9102 26.0613 77.0502 25.9773C77.1902 25.8933 77.2602 25.786 77.2602 25.6553C77.2602 25.5433 77.1902 25.45 77.0502 25.3753C76.9102 25.2913 76.7142 25.2493 76.4622 25.2493ZM74.9922 28.3573C75.5148 28.3573 75.9862 28.2593 76.4062 28.0633C76.8262 27.858 77.1155 27.592 77.2742 27.2653V26.9013C77.0502 27.0133 76.8028 27.102 76.5322 27.1673C76.2615 27.2233 75.9348 27.2793 75.5522 27.3353L75.0482 27.4193C74.5255 27.522 74.2642 27.6993 74.2642 27.9513C74.2642 28.222 74.5068 28.3573 74.9922 28.3573ZM90.9551 22.9253C90.9085 24.344 90.8851 25.618 90.8851 26.7473C90.8851 27.8767 90.9085 29.1507 90.9551 30.5693H88.1971V28.1333H87.0631C86.4191 29.1507 85.9338 29.9627 85.6071 30.5693H82.3171C83.0638 29.552 83.6938 28.6747 84.2071 27.9373C83.4885 27.7507 82.9798 27.4473 82.6811 27.0273C82.3825 26.6073 82.2331 26.0893 82.2331 25.4733C82.2331 24.6987 82.5131 24.0827 83.0731 23.6253C83.6331 23.168 84.6225 22.9393 86.0411 22.9393H88.1971V22.9253H90.9551ZM88.1971 26.1593V24.9553H86.9371C86.2558 24.9553 85.7938 24.9973 85.5511 25.0813C85.3178 25.1653 85.2011 25.3193 85.2011 25.5433C85.2011 25.7767 85.3225 25.94 85.5651 26.0333C85.8171 26.1173 86.2745 26.1593 86.9371 26.1593H88.1971ZM22.678 37.7853C23.2847 37.7853 23.8307 37.958 24.316 38.3033C24.8013 38.6487 25.1793 39.12 25.45 39.7173C25.7207 40.3053 25.856 40.954 25.856 41.6633C25.856 42.3633 25.7207 43.026 25.45 43.6513C25.1793 44.2673 24.7967 44.7667 24.302 45.1493C23.8167 45.5227 23.2613 45.7093 22.636 45.7093C21.908 45.7093 21.2827 45.56 20.76 45.2613C20.2467 44.9533 19.864 44.482 19.612 43.8473C19.612 44.3793 19.6307 45.2333 19.668 46.4093C19.7053 47.548 19.724 48.3507 19.724 48.8173H16.56C16.616 47.0813 16.644 45.266 16.644 43.3713C16.644 41.4767 16.616 39.6613 16.56 37.9253H19.248L19.654 39.6753C19.9153 39.022 20.3073 38.546 20.83 38.2473C21.3527 37.9393 21.9687 37.7853 22.678 37.7853ZM21.18 43.1893C21.6 43.1893 21.95 43.0587 22.23 42.7973C22.5193 42.5267 22.664 42.1767 22.664 41.7473C22.664 41.2713 22.5333 40.884 22.272 40.5853C22.0107 40.2867 21.656 40.1373 21.208 40.1373C20.6947 40.1373 20.3073 40.2633 20.046 40.5153C19.7847 40.758 19.654 41.1687 19.654 41.7473C19.654 42.074 19.738 42.3493 19.906 42.5733C20.074 42.788 20.2747 42.9467 20.508 43.0493C20.7413 43.1427 20.9653 43.1893 21.18 43.1893ZM36.3753 43.2453C36.3753 43.5627 36.4126 43.7867 36.4873 43.9173C36.5619 44.048 36.7113 44.1413 36.9353 44.1973L36.8793 45.5133C36.5806 45.56 36.3193 45.5927 36.0953 45.6113C35.8806 45.63 35.5913 45.6393 35.2273 45.6393C34.4246 45.6393 33.8926 45.462 33.6313 45.1073C33.3699 44.7433 33.2393 44.2813 33.2393 43.7213V43.3713C32.9686 44.1367 32.5719 44.706 32.0493 45.0793C31.5359 45.4527 30.8779 45.6393 30.0753 45.6393C29.1419 45.6393 28.4373 45.4527 27.9613 45.0793C27.4946 44.706 27.2613 44.1507 27.2613 43.4133C27.2613 42.8067 27.4619 42.3307 27.8633 41.9853C28.2646 41.64 28.8853 41.402 29.7253 41.2713C29.0159 40.7673 28.3066 40.3287 27.5973 39.9553C28.1573 39.246 28.7966 38.7093 29.5153 38.3453C30.2339 37.972 31.1066 37.7853 32.1333 37.7853C33.5706 37.7853 34.6346 38.098 35.3253 38.7233C36.0253 39.3393 36.3753 40.2913 36.3753 41.5793V43.2453ZM32.4273 40.2493C31.9513 40.2493 31.5313 40.3287 31.1673 40.4873C30.8033 40.646 30.4766 40.884 30.1873 41.2013C30.7473 41.136 31.4473 41.1033 32.2873 41.1033C32.6326 41.1033 32.8753 41.0613 33.0153 40.9773C33.1553 40.8933 33.2253 40.786 33.2253 40.6553C33.2253 40.5433 33.1553 40.45 33.0153 40.3753C32.8753 40.2913 32.6793 40.2493 32.4273 40.2493ZM30.9573 43.3573C31.4799 43.3573 31.9513 43.2593 32.3713 43.0633C32.7913 42.858 33.0806 42.592 33.2393 42.2653V41.9013C33.0153 42.0133 32.7679 42.102 32.4973 42.1673C32.2266 42.2233 31.8999 42.2793 31.5173 42.3353L31.0133 42.4193C30.4906 42.522 30.2293 42.6993 30.2293 42.9513C30.2293 43.222 30.4719 43.3573 30.9573 43.3573ZM41.1802 41.7473C41.1989 42.2233 41.3482 42.606 41.6282 42.8953C41.9175 43.1847 42.3422 43.3293 42.9022 43.3293C43.2102 43.3293 43.4855 43.2733 43.7282 43.1613C43.9709 43.04 44.1949 42.8627 44.4002 42.6293C45.1935 42.9373 46.1222 43.2033 47.1862 43.4273C46.8782 44.146 46.3555 44.706 45.6182 45.1073C44.8902 45.5087 43.9429 45.7093 42.7762 45.7093C41.2175 45.7093 40.0649 45.3453 39.3182 44.6173C38.5715 43.8893 38.1982 42.9327 38.1982 41.7473C38.1982 40.562 38.5715 39.6053 39.3182 38.8773C40.0649 38.1493 41.2175 37.7853 42.7762 37.7853C43.9429 37.7853 44.8902 37.986 45.6182 38.3873C46.3555 38.7887 46.8782 39.3487 47.1862 40.0673C46.3555 40.2447 45.4269 40.5107 44.4002 40.8653C44.1949 40.632 43.9709 40.4593 43.7282 40.3473C43.4855 40.226 43.2102 40.1653 42.9022 40.1653C42.3422 40.1653 41.9175 40.31 41.6282 40.5993C41.3482 40.8887 41.1989 41.2713 41.1802 41.7473ZM48.7966 37.9393H57.8406V45.6393H54.7746V40.5713H51.8626V45.6393H48.7966V37.9393ZM65.6328 37.7853C66.2395 37.7853 66.7855 37.958 67.2708 38.3033C67.7562 38.6487 68.1342 39.12 68.4048 39.7173C68.6755 40.3053 68.8108 40.954 68.8108 41.6633C68.8108 42.3633 68.6755 43.026 68.4048 43.6513C68.1342 44.2673 67.7515 44.7667 67.2568 45.1493C66.7715 45.5227 66.2162 45.7093 65.5908 45.7093C64.8628 45.7093 64.2375 45.56 63.7148 45.2613C63.2015 44.9533 62.8188 44.482 62.5668 43.8473C62.5668 44.3793 62.5855 45.2333 62.6228 46.4093C62.6602 47.548 62.6788 48.3507 62.6788 48.8173H59.5148C59.5708 47.0813 59.5988 45.266 59.5988 43.3713C59.5988 41.4767 59.5708 39.6613 59.5148 37.9253H62.2028L62.6088 39.6753C62.8702 39.022 63.2622 38.546 63.7848 38.2473C64.3075 37.9393 64.9235 37.7853 65.6328 37.7853ZM64.1348 43.1893C64.5548 43.1893 64.9048 43.0587 65.1848 42.7973C65.4742 42.5267 65.6188 42.1767 65.6188 41.7473C65.6188 41.2713 65.4882 40.884 65.2268 40.5853C64.9655 40.2867 64.6108 40.1373 64.1628 40.1373C63.6495 40.1373 63.2622 40.2633 63.0008 40.5153C62.7395 40.758 62.6088 41.1687 62.6088 41.7473C62.6088 42.074 62.6928 42.3493 62.8608 42.5733C63.0288 42.788 63.2295 42.9467 63.4628 43.0493C63.6962 43.1427 63.9202 43.1893 64.1348 43.1893ZM74.8641 45.7093C73.2681 45.7093 72.0921 45.3453 71.3361 44.6173C70.5894 43.88 70.2161 42.914 70.2161 41.7193C70.2161 40.5527 70.5894 39.6053 71.3361 38.8773C72.0921 38.1493 73.2681 37.7853 74.8641 37.7853C75.9374 37.7853 76.8334 37.9627 77.5521 38.3173C78.2801 38.6627 78.8168 39.134 79.1621 39.7313C79.5074 40.3193 79.6801 40.982 79.6801 41.7193C79.6801 42.9233 79.2788 43.8893 78.4761 44.6173C77.6828 45.3453 76.4788 45.7093 74.8641 45.7093ZM74.9201 43.3293C75.5268 43.3293 75.9794 43.1847 76.2781 42.8953C76.5768 42.606 76.7261 42.2187 76.7261 41.7333C76.7261 41.276 76.5768 40.9027 76.2781 40.6133C75.9794 40.3147 75.5268 40.1653 74.9201 40.1653C74.3134 40.1653 73.8701 40.31 73.5901 40.5993C73.3101 40.8887 73.1701 41.2667 73.1701 41.7333C73.1701 42.2187 73.3101 42.606 73.5901 42.8953C73.8701 43.1847 74.3134 43.3293 74.9201 43.3293ZM89.9607 43.5813H90.3807V47.3473H87.7347V45.8213H83.3107V47.3753H80.6647V43.5813H81.1267C81.444 43.5347 81.682 43.418 81.8407 43.2313C82.0087 43.0447 82.1394 42.7367 82.2327 42.3073C82.298 41.9713 82.3307 41.1687 82.3307 39.8993V37.9253L89.9607 37.9393V43.5813ZM84.7107 43.1193C84.692 43.222 84.6547 43.376 84.5987 43.5813H87.2867V40.2913H84.9067V40.7113C84.8974 41.2527 84.8834 41.682 84.8647 41.9993C84.846 42.3073 84.7947 42.6807 84.7107 43.1193ZM101.04 43.2453C101.04 43.5627 101.077 43.7867 101.152 43.9173C101.227 44.048 101.376 44.1413 101.6 44.1973L101.544 45.5133C101.245 45.56 100.984 45.5927 100.76 45.6113C100.545 45.63 100.256 45.6393 99.8919 45.6393C99.0893 45.6393 98.5573 45.462 98.2959 45.1073C98.0346 44.7433 97.9039 44.2813 97.9039 43.7213V43.3713C97.6333 44.1367 97.2366 44.706 96.7139 45.0793C96.2006 45.4527 95.5426 45.6393 94.7399 45.6393C93.8066 45.6393 93.1019 45.4527 92.6259 45.0793C92.1593 44.706 91.9259 44.1507 91.9259 43.4133C91.9259 42.8067 92.1266 42.3307 92.5279 41.9853C92.9293 41.64 93.5499 41.402 94.3899 41.2713C93.6806 40.7673 92.9713 40.3287 92.2619 39.9553C92.8219 39.246 93.4613 38.7093 94.1799 38.3453C94.8986 37.972 95.7713 37.7853 96.7979 37.7853C98.2353 37.7853 99.2993 38.098 99.9899 38.7233C100.69 39.3393 101.04 40.2913 101.04 41.5793V43.2453ZM97.0919 40.2493C96.6159 40.2493 96.1959 40.3287 95.8319 40.4873C95.4679 40.646 95.1413 40.884 94.8519 41.2013C95.4119 41.136 96.1119 41.1033 96.9519 41.1033C97.2973 41.1033 97.5399 41.0613 97.6799 40.9773C97.8199 40.8933 97.8899 40.786 97.8899 40.6553C97.8899 40.5433 97.8199 40.45 97.6799 40.3753C97.5399 40.2913 97.3439 40.2493 97.0919 40.2493ZM95.6219 43.3573C96.1446 43.3573 96.6159 43.2593 97.0359 43.0633C97.4559 42.858 97.7453 42.592 97.9039 42.2653V41.9013C97.6799 42.0133 97.4326 42.102 97.1619 42.1673C96.8913 42.2233 96.5646 42.2793 96.1819 42.3353L95.6779 42.4193C95.1553 42.522 94.8939 42.6993 94.8939 42.9513C94.8939 43.222 95.1366 43.3573 95.6219 43.3573ZM110.941 41.3973C111.184 41.5373 111.398 41.71 111.585 41.9153C111.902 42.2513 112.145 42.6247 112.313 43.0353C112.481 43.4367 112.649 43.9453 112.817 44.5613C112.938 45.0093 113.041 45.3453 113.125 45.5693H110.423C110.386 45.4387 110.339 45.224 110.283 44.9253C110.227 44.5893 110.171 44.3187 110.115 44.1133C110.059 43.908 109.975 43.726 109.863 43.5673C109.714 43.3433 109.55 43.166 109.373 43.0353C109.196 42.8953 108.99 42.7927 108.757 42.7273C108.757 43.3527 108.776 44.3 108.813 45.5693H106.727C106.764 44.3187 106.783 43.3807 106.783 42.7553C106.578 42.8207 106.396 42.9233 106.237 43.0633C106.078 43.194 105.924 43.362 105.775 43.5673C105.663 43.726 105.579 43.908 105.523 44.1133C105.467 44.3187 105.411 44.5893 105.355 44.9253C105.299 45.224 105.252 45.4387 105.215 45.5693H102.513C102.597 45.3453 102.7 45.0093 102.821 44.5613C102.989 43.9453 103.157 43.4367 103.325 43.0353C103.493 42.6247 103.736 42.2513 104.053 41.9153C104.24 41.71 104.454 41.5373 104.697 41.3973L102.443 37.9253H105.257C105.649 38.8213 106.158 39.722 106.783 40.6273C106.764 39.414 106.746 38.5133 106.727 37.9253H108.813C108.776 39.1573 108.757 40.0813 108.757 40.6973L108.799 40.7113C109.434 39.806 109.961 38.8773 110.381 37.9253H113.195L110.941 41.3973ZM123.283 43.2453C123.283 43.5627 123.32 43.7867 123.395 43.9173C123.47 44.048 123.619 44.1413 123.843 44.1973L123.787 45.5133C123.488 45.56 123.227 45.5927 123.003 45.6113C122.788 45.63 122.499 45.6393 122.135 45.6393C121.332 45.6393 120.8 45.462 120.539 45.1073C120.278 44.7433 120.147 44.2813 120.147 43.7213V43.3713C119.876 44.1367 119.48 44.706 118.957 45.0793C118.444 45.4527 117.786 45.6393 116.983 45.6393C116.05 45.6393 115.345 45.4527 114.869 45.0793C114.402 44.706 114.169 44.1507 114.169 43.4133C114.169 42.8067 114.37 42.3307 114.771 41.9853C115.172 41.64 115.793 41.402 116.633 41.2713C115.924 40.7673 115.214 40.3287 114.505 39.9553C115.065 39.246 115.704 38.7093 116.423 38.3453C117.142 37.972 118.014 37.7853 119.041 37.7853C120.478 37.7853 121.542 38.098 122.233 38.7233C122.933 39.3393 123.283 40.2913 123.283 41.5793V43.2453ZM119.335 40.2493C118.859 40.2493 118.439 40.3287 118.075 40.4873C117.711 40.646 117.384 40.884 117.095 41.2013C117.655 41.136 118.355 41.1033 119.195 41.1033C119.54 41.1033 119.783 41.0613 119.923 40.9773C120.063 40.8933 120.133 40.786 120.133 40.6553C120.133 40.5433 120.063 40.45 119.923 40.3753C119.783 40.2913 119.587 40.2493 119.335 40.2493ZM117.865 43.3573C118.388 43.3573 118.859 43.2593 119.279 43.0633C119.699 42.858 119.988 42.592 120.147 42.2653V41.9013C119.923 42.0133 119.676 42.102 119.405 42.1673C119.134 42.2233 118.808 42.2793 118.425 42.3353L117.921 42.4193C117.398 42.522 117.137 42.6993 117.137 42.9513C117.137 43.222 117.38 43.3573 117.865 43.3573ZM22.706 56.6493C22.7993 56.64 22.93 56.6353 23.098 56.6353C23.7233 56.6353 24.1807 56.78 24.47 57.0693C24.7687 57.3587 24.918 57.6993 24.918 58.0913C24.918 58.922 24.54 59.566 23.784 60.0233C23.028 60.4807 22.0573 60.7093 20.872 60.7093C19.836 60.7093 18.9213 60.532 18.128 60.1773C17.344 59.8227 16.7747 59.2253 16.42 58.3853L17.022 58.2313C17.89 58.0167 18.534 57.8113 18.954 57.6153C19.1033 57.9047 19.3133 58.1287 19.584 58.2873C19.8547 58.4367 20.214 58.5113 20.662 58.5113C21.166 58.5113 21.5487 58.4647 21.81 58.3713C22.0807 58.278 22.216 58.124 22.216 57.9093C22.216 57.7413 22.0667 57.6247 21.768 57.5593C21.4693 57.494 21.04 57.4613 20.48 57.4613H19.682V55.6133H20.158C20.6713 55.6133 21.082 55.59 21.39 55.5433C21.698 55.4967 21.852 55.394 21.852 55.2353C21.852 55.0767 21.7633 54.9507 21.586 54.8573C21.4087 54.764 21.1707 54.7173 20.872 54.7173C20.3867 54.7173 20.004 54.806 19.724 54.9833C19.4533 55.1607 19.1967 55.45 18.954 55.8513C18.2167 55.5433 17.4093 55.324 16.532 55.1933C17.2507 53.5973 18.744 52.7993 21.012 52.7993C21.6747 52.7993 22.2813 52.8973 22.832 53.0933C23.3827 53.28 23.8167 53.5413 24.134 53.8773C24.4513 54.204 24.61 54.5727 24.61 54.9833C24.61 55.8793 23.9753 56.4347 22.706 56.6493ZM35.2219 52.9253C35.1752 54.2787 35.1519 55.5013 35.1519 56.5933C35.1519 57.6667 35.1752 58.8893 35.2219 60.2613H32.3519L32.5059 55.4173L30.3639 60.2613H26.4579C26.5139 59.0293 26.5419 57.8067 26.5419 56.5933C26.5419 55.3613 26.5139 54.1387 26.4579 52.9253H29.2159L29.0759 57.8953L31.2179 52.9253H35.2219ZM47.5847 52.9253L48.1167 60.5693H45.4007L45.2327 55.0953L44.1687 60.5693H40.8507L39.7727 55.1653L39.6187 60.5693H36.9027L37.4347 52.9253H41.5787L42.4887 57.9233L43.3007 52.9253H47.5847ZM58.6147 52.9253C58.568 54.344 58.5447 55.618 58.5447 56.7473C58.5447 57.8767 58.568 59.1507 58.6147 60.5693H55.5767V58.0213H52.8327V60.5693H49.7947C49.8414 59.5053 49.8647 58.2313 49.8647 56.7473C49.8647 55.2633 49.8414 53.9893 49.7947 52.9253H52.8327V55.4733H55.5767V52.9253H58.6147ZM67.7001 57.0693H63.1361C63.2108 57.48 63.3928 57.816 63.6821 58.0773C63.9808 58.3293 64.4008 58.4553 64.9421 58.4553C65.3341 58.4553 65.7028 58.3807 66.0481 58.2313C66.3935 58.0727 66.6688 57.8533 66.8741 57.5733C67.4995 57.8813 68.3301 58.2127 69.3661 58.5673C69.0768 59.2207 68.5495 59.7433 67.7841 60.1353C67.0281 60.518 66.0388 60.7093 64.8161 60.7093C63.2295 60.7093 62.0535 60.3453 61.2881 59.6173C60.5321 58.88 60.1541 57.914 60.1541 56.7193C60.1541 55.5527 60.5321 54.6053 61.2881 53.8773C62.0441 53.1493 63.2201 52.7853 64.8161 52.7853C65.7681 52.7853 66.5941 52.944 67.2941 53.2613C67.9941 53.5787 68.5308 54.022 68.9041 54.5913C69.2775 55.1513 69.4641 55.7953 69.4641 56.5233C69.4641 56.766 69.4548 56.948 69.4361 57.0693H67.7001ZM65.0121 54.8993C64.5455 54.8993 64.1628 54.988 63.8641 55.1653C63.5655 55.3427 63.3555 55.5853 63.2341 55.8933H66.5381C66.4261 55.5947 66.2441 55.3567 65.9921 55.1793C65.7401 54.9927 65.4135 54.8993 65.0121 54.8993ZM79.7627 52.9253C79.716 54.2787 79.6927 55.5013 79.6927 56.5933C79.6927 57.6667 79.716 58.8893 79.7627 60.2613H76.8927L77.0467 55.4173L74.9047 60.2613H70.9987C71.0547 59.0293 71.0827 57.8067 71.0827 56.5933C71.0827 55.3613 71.0547 54.1387 70.9987 52.9253H73.7567L73.6167 57.8953L75.7587 52.9253H79.7627ZM75.2407 52.5893C74.802 52.5893 74.396 52.4913 74.0227 52.2953C73.6587 52.0993 73.3693 51.8193 73.1547 51.4553C72.94 51.0913 72.8327 50.6667 72.8327 50.1813H74.2187C74.2187 50.5453 74.312 50.816 74.4987 50.9933C74.6947 51.1613 74.942 51.2453 75.2407 51.2453C75.5393 51.2453 75.782 51.1613 75.9687 50.9933C76.1647 50.816 76.2627 50.5453 76.2627 50.1813H77.6487C77.6487 50.6667 77.5413 51.0913 77.3267 51.4553C77.112 51.8193 76.818 52.0993 76.4447 52.2953C76.0807 52.4913 75.6793 52.5893 75.2407 52.5893ZM91.9602 56.9153C92.3802 57.2513 92.7022 57.6293 92.9262 58.0493C93.1502 58.4693 93.3602 58.9733 93.5562 59.5613C93.7522 60.0747 93.8922 60.4107 93.9762 60.5693H90.6022C90.5742 60.504 90.5182 60.2987 90.4342 59.9533C90.3595 59.608 90.2848 59.3327 90.2102 59.1273C90.1355 58.9127 90.0235 58.726 89.8742 58.5673C89.6408 58.3153 89.3795 58.152 89.0902 58.0773C88.8008 58.0027 88.3715 57.9653 87.8022 57.9653V60.5693H84.8062C84.8528 59.5053 84.8762 58.2313 84.8762 56.7473C84.8762 55.2633 84.8528 53.9893 84.8062 52.9253H87.8022V55.6693H87.8582C88.9688 54.5587 89.7762 53.644 90.2802 52.9253H93.9762L90.7002 56.1873C91.1855 56.3927 91.6055 56.6353 91.9602 56.9153ZM99.6086 60.7093C98.0126 60.7093 96.8366 60.3453 96.0806 59.6173C95.3339 58.88 94.9606 57.914 94.9606 56.7193C94.9606 55.5527 95.3339 54.6053 96.0806 53.8773C96.8366 53.1493 98.0126 52.7853 99.6086 52.7853C100.682 52.7853 101.578 52.9627 102.297 53.3173C103.025 53.6627 103.561 54.134 103.907 54.7313C104.252 55.3193 104.425 55.982 104.425 56.7193C104.425 57.9233 104.023 58.8893 103.221 59.6173C102.427 60.3453 101.223 60.7093 99.6086 60.7093ZM99.6646 58.3293C100.271 58.3293 100.724 58.1847 101.023 57.8953C101.321 57.606 101.471 57.2187 101.471 56.7333C101.471 56.276 101.321 55.9027 101.023 55.6133C100.724 55.3147 100.271 55.1653 99.6646 55.1653C99.0579 55.1653 98.6146 55.31 98.3346 55.5993C98.0546 55.8887 97.9146 56.2667 97.9146 56.7333C97.9146 57.2187 98.0546 57.606 98.3346 57.8953C98.6146 58.1847 99.0579 58.3293 99.6646 58.3293ZM114.691 60.6393H111.625V55.5713H109.637L109.623 56.0053C109.614 56.4533 109.595 56.85 109.567 57.1953C109.548 57.5313 109.502 57.8953 109.427 58.2873C109.11 59.9953 107.817 60.8493 105.549 60.8493V58.6233C105.988 58.5673 106.286 58.432 106.445 58.2173C106.604 57.9933 106.683 57.648 106.683 57.1813V52.9253L114.691 52.9393V60.6393ZM125.095 60.6393H122.029V55.5713H120.041L120.027 56.0053C120.018 56.4533 119.999 56.85 119.971 57.1953C119.952 57.5313 119.906 57.8953 119.831 58.2873C119.514 59.9953 118.221 60.8493 115.953 60.8493V58.6233C116.392 58.5673 116.69 58.432 116.849 58.2173C117.008 57.9933 117.087 57.648 117.087 57.1813V52.9253L125.095 52.9393V60.6393ZM134.183 57.0693H129.619C129.693 57.48 129.875 57.816 130.165 58.0773C130.463 58.3293 130.883 58.4553 131.425 58.4553C131.817 58.4553 132.185 58.3807 132.531 58.2313C132.876 58.0727 133.151 57.8533 133.357 57.5733C133.982 57.8813 134.813 58.2127 135.849 58.5673C135.559 59.2207 135.032 59.7433 134.267 60.1353C133.511 60.518 132.521 60.7093 131.299 60.7093C129.712 60.7093 128.536 60.3453 127.771 59.6173C127.015 58.88 126.637 57.914 126.637 56.7193C126.637 55.5527 127.015 54.6053 127.771 53.8773C128.527 53.1493 129.703 52.7853 131.299 52.7853C132.251 52.7853 133.077 52.944 133.777 53.2613C134.477 53.5787 135.013 54.022 135.387 54.5913C135.76 55.1513 135.947 55.7953 135.947 56.5233C135.947 56.766 135.937 56.948 135.919 57.0693H134.183ZM131.495 54.8993C131.028 54.8993 130.645 54.988 130.347 55.1653C130.048 55.3427 129.838 55.5853 129.717 55.8933H133.021C132.909 55.5947 132.727 55.3567 132.475 55.1793C132.223 54.9927 131.896 54.8993 131.495 54.8993ZM144.635 56.9153C145.055 57.2513 145.377 57.6293 145.601 58.0493C145.825 58.4693 146.035 58.9733 146.231 59.5613C146.427 60.0747 146.567 60.4107 146.651 60.5693H143.277C143.249 60.504 143.193 60.2987 143.109 59.9533C143.035 59.608 142.96 59.3327 142.885 59.1273C142.811 58.9127 142.699 58.726 142.549 58.5673C142.316 58.3153 142.055 58.152 141.765 58.0773C141.476 58.0027 141.047 57.9653 140.477 57.9653V60.5693H137.481C137.528 59.5053 137.551 58.2313 137.551 56.7473C137.551 55.2633 137.528 53.9893 137.481 52.9253H140.477V55.6693H140.533C141.644 54.5587 142.451 53.644 142.955 52.9253H146.651L143.375 56.1873C143.861 56.3927 144.281 56.6353 144.635 56.9153ZM156.722 58.0213V63.2993H153.824V60.5693H147.776C147.832 59.2907 147.86 58.0167 147.86 56.7473C147.86 55.4687 147.832 54.1947 147.776 52.9253H150.674V58.0213H153.39V52.9253H156.288C156.232 54.1853 156.204 55.4453 156.204 56.7053C156.204 57.2933 156.208 57.732 156.218 58.0213H156.722ZM167.162 52.9253C167.115 54.2787 167.092 55.5013 167.092 56.5933C167.092 57.6667 167.115 58.8893 167.162 60.2613H164.292L164.446 55.4173L162.304 60.2613H158.398C158.454 59.0293 158.482 57.8067 158.482 56.5933C158.482 55.3613 158.454 54.1387 158.398 52.9253H161.156L161.016 57.8953L163.158 52.9253H167.162ZM177.607 52.9253C177.56 54.2787 177.537 55.5013 177.537 56.5933C177.537 57.6667 177.56 58.8893 177.607 60.2613H174.737L174.891 55.4173L172.749 60.2613H168.843C168.899 59.0293 168.927 57.8067 168.927 56.5933C168.927 55.3613 168.899 54.1387 168.843 52.9253H171.601L171.461 57.8953L173.603 52.9253H177.607ZM22.44 72.1673H16.42V69.4373H22.44V72.1673ZM35.7993 71.1593V73.7913H33.8953V75.5693H30.5493C30.5866 75.1773 30.6146 74.5847 30.6333 73.7913H23.9833V70.9633C26.1579 69.2927 28.0993 67.44 29.8073 65.4053H33.8953V71.1593H35.7993ZM30.7033 68.1773C30.0593 68.84 29.5039 69.3953 29.0373 69.8433C28.5706 70.282 28.0433 70.7207 27.4553 71.1593H30.6613L30.7033 68.1773ZM43.3429 75.7093C41.3362 75.7093 39.8569 75.2473 38.9049 74.3233C37.9529 73.3993 37.4769 72.116 37.4769 70.4733C37.4769 68.84 37.9529 67.566 38.9049 66.6513C39.8662 65.7273 41.3455 65.2653 43.3429 65.2653C45.3402 65.2653 46.8149 65.7273 47.7669 66.6513C48.7189 67.566 49.1949 68.84 49.1949 70.4733C49.1949 72.116 48.7189 73.3993 47.7669 74.3233C46.8149 75.2473 45.3402 75.7093 43.3429 75.7093ZM43.3569 73.2593C44.2155 73.2593 44.8409 72.998 45.2329 72.4753C45.6249 71.9433 45.8209 71.276 45.8209 70.4733C45.8209 69.68 45.6249 69.022 45.2329 68.4993C44.8409 67.9673 44.2155 67.7013 43.3569 67.7013C42.4702 67.7013 41.8262 67.9673 41.4249 68.4993C41.0329 69.022 40.8369 69.68 40.8369 70.4733C40.8369 71.2667 41.0329 71.9293 41.4249 72.4613C41.8262 72.9933 42.4702 73.2593 43.3569 73.2593ZM59.6948 70.5573C60.3108 70.5573 60.8381 70.6693 61.2768 70.8933C61.7154 71.108 62.0468 71.4067 62.2708 71.7893C62.5041 72.172 62.6208 72.5967 62.6208 73.0633C62.6208 73.5393 62.5041 73.9687 62.2708 74.3513C62.0468 74.734 61.7154 75.0373 61.2768 75.2613C60.8381 75.476 60.3108 75.5833 59.6948 75.5833C59.0694 75.5833 58.5328 75.476 58.0848 75.2613C57.6461 75.0373 57.3101 74.734 57.0768 74.3513C56.8528 73.9687 56.7408 73.5393 56.7408 73.0633C56.7408 72.7833 56.7828 72.5173 56.8668 72.2653L54.3888 75.5833H51.1548L55.5088 69.7593C54.9861 70.2073 54.2861 70.4313 53.4088 70.4313C52.7834 70.4313 52.2468 70.324 51.7988 70.1093C51.3601 69.8853 51.0241 69.582 50.7908 69.1993C50.5668 68.8167 50.4548 68.3873 50.4548 67.9113C50.4548 67.4447 50.5668 67.02 50.7908 66.6373C51.0241 66.2547 51.3601 65.956 51.7988 65.7413C52.2468 65.5173 52.7834 65.4053 53.4088 65.4053C54.0248 65.4053 54.5521 65.5173 54.9908 65.7413C55.4294 65.956 55.7608 66.2547 55.9848 66.6373C56.2181 67.02 56.3348 67.4447 56.3348 67.9113C56.3348 68.2847 56.2648 68.6253 56.1248 68.9333L58.6868 65.5173H61.9068L57.7488 71.0893C58.2528 70.7347 58.9014 70.5573 59.6948 70.5573ZM53.4088 68.6673C53.6048 68.6673 53.7821 68.588 53.9408 68.4293C54.1088 68.2707 54.1928 68.0933 54.1928 67.8973C54.1928 67.7013 54.1088 67.5333 53.9408 67.3933C53.7821 67.2533 53.6048 67.1833 53.4088 67.1833C53.1941 67.1833 53.0028 67.2533 52.8348 67.3933C52.6761 67.5333 52.5968 67.7013 52.5968 67.8973C52.5968 68.1027 52.6761 68.2847 52.8348 68.4433C53.0028 68.5927 53.1941 68.6673 53.4088 68.6673ZM59.6948 73.8193C59.8908 73.8193 60.0681 73.74 60.2268 73.5813C60.3948 73.4227 60.4788 73.2453 60.4788 73.0493C60.4788 72.8533 60.3948 72.6853 60.2268 72.5453C60.0681 72.4053 59.8908 72.3353 59.6948 72.3353C59.4801 72.3353 59.2888 72.4053 59.1208 72.5453C58.9621 72.6853 58.8828 72.8533 58.8828 73.0493C58.8828 73.2547 58.9621 73.4367 59.1208 73.5953C59.2888 73.7447 59.4801 73.8193 59.6948 73.8193ZM76.0589 67.9253C76.0122 69.344 75.9889 70.618 75.9889 71.7473C75.9889 72.8767 76.0122 74.1507 76.0589 75.5693H73.0209V73.0213H70.2769V75.5693H67.2389C67.2856 74.5053 67.3089 73.2313 67.3089 71.7473C67.3089 70.2633 67.2856 68.9893 67.2389 67.9253H70.2769V70.4733H73.0209V67.9253H76.0589ZM86.7124 73.2453C86.7124 73.5627 86.7497 73.7867 86.8244 73.9173C86.899 74.048 87.0484 74.1413 87.2724 74.1973L87.2164 75.5133C86.9177 75.56 86.6564 75.5927 86.4324 75.6113C86.2177 75.63 85.9284 75.6393 85.5644 75.6393C84.7617 75.6393 84.2297 75.462 83.9684 75.1073C83.707 74.7433 83.5764 74.2813 83.5764 73.7213V73.3713C83.3057 74.1367 82.909 74.706 82.3864 75.0793C81.873 75.4527 81.215 75.6393 80.4124 75.6393C79.479 75.6393 78.7744 75.4527 78.2984 75.0793C77.8317 74.706 77.5984 74.1507 77.5984 73.4133C77.5984 72.8067 77.799 72.3307 78.2004 71.9853C78.6017 71.64 79.2224 71.402 80.0624 71.2713C79.353 70.7673 78.6437 70.3287 77.9344 69.9553C78.4944 69.246 79.1337 68.7093 79.8524 68.3453C80.571 67.972 81.4437 67.7853 82.4704 67.7853C83.9077 67.7853 84.9717 68.098 85.6624 68.7233C86.3624 69.3393 86.7124 70.2913 86.7124 71.5793V73.2453ZM82.7644 70.2493C82.2884 70.2493 81.8684 70.3287 81.5044 70.4873C81.1404 70.646 80.8137 70.884 80.5244 71.2013C81.0844 71.136 81.7844 71.1033 82.6244 71.1033C82.9697 71.1033 83.2124 71.0613 83.3524 70.9773C83.4924 70.8933 83.5624 70.786 83.5624 70.6553C83.5624 70.5433 83.4924 70.45 83.3524 70.3753C83.2124 70.2913 83.0164 70.2493 82.7644 70.2493ZM81.2944 73.3573C81.817 73.3573 82.2884 73.2593 82.7084 73.0633C83.1284 72.858 83.4177 72.592 83.5764 72.2653V71.9013C83.3524 72.0133 83.105 72.102 82.8344 72.1673C82.5637 72.2233 82.237 72.2793 81.8544 72.3353L81.3504 72.4193C80.8277 72.522 80.5664 72.6993 80.5664 72.9513C80.5664 73.222 80.809 73.3573 81.2944 73.3573ZM98.2121 71.7753C99.8081 71.7753 100.606 72.284 100.606 73.3013C100.606 74.0293 100.326 74.5893 99.7661 74.9813C99.2154 75.3733 98.2167 75.5693 96.7701 75.5693H92.0381C92.0847 74.5053 92.1081 73.2313 92.1081 71.7473C92.1081 70.2633 92.0847 68.9893 92.0381 67.9253H94.9361V67.9393H96.7561C97.6334 67.9393 98.3194 68.014 98.8141 68.1633C99.3181 68.3033 99.6727 68.5087 99.8781 68.7793C100.083 69.05 100.186 69.3953 100.186 69.8153C100.186 70.758 99.5281 71.4113 98.2121 71.7753ZM94.9361 69.8573V70.8373H96.0001C96.4294 70.8373 96.7327 70.8 96.9101 70.7253C97.0874 70.6413 97.1761 70.4967 97.1761 70.2913C97.1761 70.1327 97.0827 70.0207 96.8961 69.9553C96.7187 69.89 96.4201 69.8573 96.0001 69.8573H94.9361ZM96.0001 73.6373C96.5321 73.6373 96.8961 73.6 97.0921 73.5253C97.2881 73.4413 97.3861 73.2967 97.3861 73.0913C97.3861 72.914 97.2834 72.7833 97.0781 72.6993C96.8727 72.6153 96.5134 72.5733 96.0001 72.5733H94.9361V73.6373H96.0001ZM104.983 71.7473C105.002 72.2233 105.151 72.606 105.431 72.8953C105.72 73.1847 106.145 73.3293 106.705 73.3293C107.013 73.3293 107.288 73.2733 107.531 73.1613C107.774 73.04 107.998 72.8627 108.203 72.6293C108.996 72.9373 109.925 73.2033 110.989 73.4273C110.681 74.146 110.158 74.706 109.421 75.1073C108.693 75.5087 107.746 75.7093 106.579 75.7093C105.02 75.7093 103.868 75.3453 103.121 74.6173C102.374 73.8893 102.001 72.9327 102.001 71.7473C102.001 70.562 102.374 69.6053 103.121 68.8773C103.868 68.1493 105.02 67.7853 106.579 67.7853C107.746 67.7853 108.693 67.986 109.421 68.3873C110.158 68.7887 110.681 69.3487 110.989 70.0673C110.158 70.2447 109.23 70.5107 108.203 70.8653C107.998 70.632 107.774 70.4593 107.531 70.3473C107.288 70.226 107.013 70.1653 106.705 70.1653C106.145 70.1653 105.72 70.31 105.431 70.5993C105.151 70.8887 105.002 71.2713 104.983 71.7473ZM120.005 72.0693H115.441C115.516 72.48 115.698 72.816 115.987 73.0773C116.286 73.3293 116.706 73.4553 117.247 73.4553C117.639 73.4553 118.008 73.3807 118.353 73.2313C118.699 73.0727 118.974 72.8533 119.179 72.5733C119.805 72.8813 120.635 73.2127 121.671 73.5673C121.382 74.2207 120.855 74.7433 120.089 75.1353C119.333 75.518 118.344 75.7093 117.121 75.7093C115.535 75.7093 114.359 75.3453 113.593 74.6173C112.837 73.88 112.459 72.914 112.459 71.7193C112.459 70.5527 112.837 69.6053 113.593 68.8773C114.349 68.1493 115.525 67.7853 117.121 67.7853C118.073 67.7853 118.899 67.944 119.599 68.2613C120.299 68.5787 120.836 69.022 121.209 69.5913C121.583 70.1513 121.769 70.7953 121.769 71.5233C121.769 71.766 121.76 71.948 121.741 72.0693H120.005ZM117.317 69.8993C116.851 69.8993 116.468 69.988 116.169 70.1653C115.871 70.3427 115.661 70.5853 115.539 70.8933H118.843C118.731 70.5947 118.549 70.3567 118.297 70.1793C118.045 69.9927 117.719 69.8993 117.317 69.8993ZM25.058 85.5573C23.658 85.52 22.6407 85.4967 22.006 85.4873V90.5693H19.038V85.4873C18.4127 85.4967 17.4 85.52 16 85.5573V82.9253H25.058V85.5573ZM30.6925 90.7093C29.0965 90.7093 27.9205 90.3453 27.1645 89.6173C26.4178 88.88 26.0445 87.914 26.0445 86.7193C26.0445 85.5527 26.4178 84.6053 27.1645 83.8773C27.9205 83.1493 29.0965 82.7853 30.6925 82.7853C31.7658 82.7853 32.6618 82.9627 33.3805 83.3173C34.1085 83.6627 34.6451 84.134 34.9905 84.7313C35.3358 85.3193 35.5085 85.982 35.5085 86.7193C35.5085 87.9233 35.1071 88.8893 34.3045 89.6173C33.5111 90.3453 32.3071 90.7093 30.6925 90.7093ZM30.7485 88.3293C31.3551 88.3293 31.8078 88.1847 32.1065 87.8953C32.4051 87.606 32.5545 87.2187 32.5545 86.7333C32.5545 86.276 32.4051 85.9027 32.1065 85.6133C31.8078 85.3147 31.3551 85.1653 30.7485 85.1653C30.1418 85.1653 29.6985 85.31 29.4185 85.5993C29.1385 85.8887 28.9985 86.2667 28.9985 86.7333C28.9985 87.2187 29.1385 87.606 29.4185 87.8953C29.6985 88.1847 30.1418 88.3293 30.7485 88.3293ZM43.227 86.7753C44.823 86.7753 45.621 87.284 45.621 88.3013C45.621 89.0293 45.341 89.5893 44.781 89.9813C44.2304 90.3733 43.2317 90.5693 41.785 90.5693H37.053C37.0997 89.5053 37.123 88.2313 37.123 86.7473C37.123 85.2633 37.0997 83.9893 37.053 82.9253H39.951V82.9393H41.771C42.6484 82.9393 43.3344 83.014 43.829 83.1633C44.333 83.3033 44.6877 83.5087 44.893 83.7793C45.0984 84.05 45.201 84.3953 45.201 84.8153C45.201 85.758 44.543 86.4113 43.227 86.7753ZM39.951 84.8573V85.8373H41.015C41.4444 85.8373 41.7477 85.8 41.925 85.7253C42.1024 85.6413 42.191 85.4967 42.191 85.2913C42.191 85.1327 42.0977 85.0207 41.911 84.9553C41.7337 84.89 41.435 84.8573 41.015 84.8573H39.951ZM41.015 88.6373C41.547 88.6373 41.911 88.6 42.107 88.5253C42.303 88.4413 42.401 88.2967 42.401 88.0913C42.401 87.914 42.2984 87.7833 42.093 87.6993C41.8877 87.6153 41.5284 87.5733 41.015 87.5733H39.951V88.6373H41.015ZM56.13 88.2453C56.13 88.5627 56.1673 88.7867 56.242 88.9173C56.3167 89.048 56.466 89.1413 56.69 89.1973L56.634 90.5133C56.3353 90.56 56.074 90.5927 55.85 90.6113C55.6353 90.63 55.346 90.6393 54.982 90.6393C54.1793 90.6393 53.6473 90.462 53.386 90.1073C53.1247 89.7433 52.994 89.2813 52.994 88.7213V88.3713C52.7233 89.1367 52.3267 89.706 51.804 90.0793C51.2907 90.4527 50.6327 90.6393 49.83 90.6393C48.8967 90.6393 48.192 90.4527 47.716 90.0793C47.2493 89.706 47.016 89.1507 47.016 88.4133C47.016 87.8067 47.2167 87.3307 47.618 86.9853C48.0193 86.64 48.64 86.402 49.48 86.2713C48.7707 85.7673 48.0613 85.3287 47.352 84.9553C47.912 84.246 48.5513 83.7093 49.27 83.3453C49.9887 82.972 50.8613 82.7853 51.888 82.7853C53.3253 82.7853 54.3893 83.098 55.08 83.7233C55.78 84.3393 56.13 85.2913 56.13 86.5793V88.2453ZM52.182 85.2493C51.706 85.2493 51.286 85.3287 50.922 85.4873C50.558 85.646 50.2313 85.884 49.942 86.2013C50.502 86.136 51.202 86.1033 52.042 86.1033C52.3873 86.1033 52.63 86.0613 52.77 85.9773C52.91 85.8933 52.98 85.786 52.98 85.6553C52.98 85.5433 52.91 85.45 52.77 85.3753C52.63 85.2913 52.434 85.2493 52.182 85.2493ZM50.712 88.3573C51.2347 88.3573 51.706 88.2593 52.126 88.0633C52.546 87.858 52.8353 87.592 52.994 87.2653V86.9013C52.77 87.0133 52.5227 87.102 52.252 87.1673C51.9813 87.2233 51.6547 87.2793 51.272 87.3353L50.768 87.4193C50.2453 87.522 49.984 87.6993 49.984 87.9513C49.984 88.222 50.2267 88.3573 50.712 88.3573ZM64.211 82.7853C64.8176 82.7853 65.3636 82.958 65.849 83.3033C66.3343 83.6487 66.7123 84.12 66.983 84.7173C67.2536 85.3053 67.389 85.954 67.389 86.6633C67.389 87.3633 67.2536 88.026 66.983 88.6513C66.7123 89.2673 66.3296 89.7667 65.835 90.1493C65.3496 90.5227 64.7943 90.7093 64.169 90.7093C63.441 90.7093 62.8156 90.56 62.293 90.2613C61.7796 89.9533 61.397 89.482 61.145 88.8473C61.145 89.3793 61.1636 90.2333 61.201 91.4093C61.2383 92.548 61.257 93.3507 61.257 93.8173H58.093C58.149 92.0813 58.177 90.266 58.177 88.3713C58.177 86.4767 58.149 84.6613 58.093 82.9253H60.781L61.187 84.6753C61.4483 84.022 61.8403 83.546 62.363 83.2473C62.8856 82.9393 63.5016 82.7853 64.211 82.7853ZM62.713 88.1893C63.133 88.1893 63.483 88.0587 63.763 87.7973C64.0523 87.5267 64.197 87.1767 64.197 86.7473C64.197 86.2713 64.0663 85.884 63.805 85.5853C63.5436 85.2867 63.189 85.1373 62.741 85.1373C62.2276 85.1373 61.8403 85.2633 61.579 85.5153C61.3176 85.758 61.187 86.1687 61.187 86.7473C61.187 87.074 61.271 87.3493 61.439 87.5733C61.607 87.788 61.8076 87.9467 62.041 88.0493C62.2743 88.1427 62.4983 88.1893 62.713 88.1893ZM73.7922 84.6333C75.1829 84.6333 76.1536 84.9087 76.7042 85.4593C77.2549 86.0007 77.5302 86.7567 77.5302 87.7273C77.5302 88.6327 77.2549 89.3327 76.7042 89.8273C76.1629 90.3127 75.1922 90.5553 73.7922 90.5553H71.9302V90.5693H68.9342C68.9809 89.5053 69.0042 88.2313 69.0042 86.7473C69.0042 85.2633 68.9809 83.9893 68.9342 82.9253H71.9302V84.6333H73.7922ZM81.1422 82.9253C81.0956 83.9707 81.0722 85.24 81.0722 86.7333C81.0722 88.2173 81.0956 89.4867 81.1422 90.5413H78.0762C78.1042 88.6653 78.1182 87.088 78.1182 85.8093C78.1182 84.5307 78.1042 83.5693 78.0762 82.9253H81.1422ZM72.9522 88.3293C73.6149 88.3293 74.0769 88.278 74.3382 88.1753C74.5996 88.0727 74.7302 87.872 74.7302 87.5733C74.7302 87.2747 74.5949 87.074 74.3242 86.9713C74.0536 86.8593 73.5962 86.8033 72.9522 86.8033L71.9302 86.8173V88.3293H72.9522Z" fill="black"/>
<path d="M120.688 120.777C119.504 120.777 118.528 120.388 117.76 119.609C116.992 118.82 116.608 117.817 116.608 116.601C116.608 115.225 116.805 114.175 117.2 113.449C117.605 112.713 118.427 112.047 119.664 111.449C119.728 111.417 119.803 111.38 119.888 111.337C119.984 111.295 120.096 111.247 120.224 111.193C120.363 111.129 120.48 111.076 120.576 111.033L121.44 110.649C122.293 110.223 122.747 109.711 122.8 109.113L123.92 109.753C123.845 110.127 123.723 110.425 123.552 110.649C123.541 110.671 123.509 110.719 123.456 110.793C123.403 110.857 123.365 110.905 123.344 110.937C123.323 110.959 123.285 110.996 123.232 111.049C123.189 111.092 123.141 111.135 123.088 111.177C123.045 111.22 122.987 111.263 122.912 111.305C122.517 111.551 122.235 111.711 122.064 111.785C122 111.817 121.931 111.849 121.856 111.881C121.792 111.913 121.739 111.94 121.696 111.961C121.653 111.983 121.621 111.999 121.6 112.009L121.072 112.233L120.56 112.441C119.845 112.751 119.317 113.065 118.976 113.385C118.635 113.705 118.389 114.111 118.24 114.601C118.571 114.196 118.987 113.887 119.488 113.673C120 113.46 120.523 113.353 121.056 113.353C122.069 113.353 122.917 113.695 123.6 114.377C124.304 115.071 124.656 115.951 124.656 117.017C124.656 118.105 124.283 119.007 123.536 119.721C122.779 120.425 121.829 120.777 120.688 120.777ZM123.264 117.017C123.264 116.303 123.029 115.721 122.56 115.273C122.101 114.815 121.493 114.585 120.736 114.585C120.064 114.585 119.445 114.804 118.88 115.241C118.336 115.679 118.064 116.244 118.064 116.937C118.064 117.663 118.315 118.26 118.816 118.729C119.317 119.199 119.941 119.433 120.688 119.433C121.445 119.433 122.059 119.204 122.528 118.745C123.019 118.287 123.264 117.711 123.264 117.017ZM134.006 119.561C133.195 120.372 132.198 120.777 131.014 120.777C129.83 120.777 128.833 120.372 128.022 119.561C127.211 118.751 126.806 117.753 126.806 116.569C126.806 115.385 127.211 114.388 128.022 113.577C128.833 112.767 129.83 112.361 131.014 112.361C132.198 112.361 133.195 112.767 134.006 113.577C134.827 114.399 135.238 115.396 135.238 116.569C135.238 117.743 134.827 118.74 134.006 119.561ZM131.014 119.417C131.814 119.417 132.486 119.145 133.03 118.601C133.574 118.057 133.846 117.38 133.846 116.569C133.846 115.759 133.574 115.081 133.03 114.537C132.486 113.993 131.814 113.721 131.014 113.721C130.225 113.721 129.558 113.993 129.014 114.537C128.47 115.081 128.198 115.759 128.198 116.569C128.198 117.38 128.47 118.057 129.014 118.601C129.558 119.145 130.225 119.417 131.014 119.417ZM138.454 112.569H144.39V120.569H142.998V113.913H139.846V117.177C139.846 118.457 139.59 119.369 139.078 119.913C138.566 120.447 137.814 120.665 136.822 120.569V119.257C137.377 119.332 137.787 119.209 138.054 118.889C138.321 118.559 138.454 117.977 138.454 117.145V112.569ZM149.011 115.449H150.995C151.795 115.449 152.456 115.689 152.979 116.169C153.512 116.639 153.779 117.252 153.779 118.009C153.779 118.767 153.512 119.385 152.979 119.865C152.446 120.335 151.784 120.569 150.995 120.569H147.619V112.569H149.011V115.449ZM149.011 119.273H150.995C151.4 119.273 151.736 119.156 152.003 118.921C152.27 118.687 152.403 118.383 152.403 118.009C152.403 117.636 152.264 117.332 151.987 117.097C151.72 116.852 151.39 116.729 150.995 116.729H149.011V119.273ZM165.963 119.241V112.569H167.355V120.569H156.395V112.569H157.787V119.241H161.179V112.569H162.571V119.241H165.963ZM178.289 117.209H171.585C171.724 117.913 172.049 118.468 172.561 118.873C173.073 119.268 173.713 119.465 174.481 119.465C175.537 119.465 176.305 119.076 176.785 118.297L177.969 118.969C177.18 120.175 176.006 120.777 174.449 120.777C173.19 120.777 172.156 120.383 171.345 119.593C170.556 118.783 170.161 117.775 170.161 116.569C170.161 115.353 170.55 114.351 171.329 113.561C172.108 112.761 173.116 112.361 174.353 112.361C175.526 112.361 176.481 112.777 177.217 113.609C177.964 114.42 178.337 115.412 178.337 116.585C178.337 116.788 178.321 116.996 178.289 117.209ZM174.353 113.673C173.617 113.673 172.998 113.881 172.497 114.297C172.006 114.713 171.702 115.279 171.585 115.993H176.929C176.812 115.257 176.518 114.687 176.049 114.281C175.58 113.876 175.014 113.673 174.353 113.673Z" fill="black"/>
<line x1="116" y1="131.594" x2="179" y2="131.594" stroke="black"/>
<line y1="-0.5" x2="25.3991" y2="-0.5" transform="matrix(-0.936229 0.35139 -0.128789 -0.991672 179 131.569)" stroke="black"/>
<path d="M0 2.56934H195V-1.43066H0V2.56934Z" fill="black" mask="url(#path-1-inside-1_4451_41991)"/>
</svg>
