<svg width="16" height="16" viewBox="0 0 16 16" fill="none" xmlns="http://www.w3.org/2000/svg">
<g id="Icons">
<path id="Shape" d="M2 4H3.33333H14" stroke="black" stroke-width="2" stroke-linecap="square" stroke-linejoin="round"/>
<path id="Shape_2" d="M13.4154 4C13.4154 3.58579 13.0796 3.25 12.6654 3.25C12.2512 3.25 11.9154 3.58579 11.9154 4H13.4154ZM4.08203 4C4.08203 3.58579 3.74624 3.25 3.33203 3.25C2.91782 3.25 2.58203 3.58579 2.58203 4H4.08203ZM4.58203 4C4.58203 4.41421 4.91782 4.75 5.33203 4.75C5.74625 4.75 6.08203 4.41421 6.08203 4H4.58203ZM9.91537 4C9.91537 4.41421 10.2512 4.75 10.6654 4.75C11.0796 4.75 11.4154 4.41421 11.4154 4H9.91537ZM11.9154 4V13.3333H13.4154V4H11.9154ZM11.9154 13.3333C11.9154 13.6555 11.6542 13.9167 11.332 13.9167V15.4167C12.4826 15.4167 13.4154 14.4839 13.4154 13.3333H11.9154ZM11.332 13.9167H4.66536V15.4167H11.332V13.9167ZM4.66536 13.9167C4.3432 13.9167 4.08203 13.6555 4.08203 13.3333H2.58203C2.58203 14.4839 3.51477 15.4167 4.66536 15.4167V13.9167ZM4.08203 13.3333V4H2.58203V13.3333H4.08203ZM6.08203 4V2.66667H4.58203V4H6.08203ZM6.08203 2.66667C6.08203 2.3445 6.3432 2.08333 6.66536 2.08333V0.583332C5.51477 0.583332 4.58203 1.51607 4.58203 2.66667H6.08203ZM6.66536 2.08333H9.33203V0.583332H6.66536V2.08333ZM9.33203 2.08333C9.6542 2.08333 9.91537 2.3445 9.91537 2.66667H11.4154C11.4154 1.51607 10.4826 0.583332 9.33203 0.583332V2.08333ZM9.91537 2.66667V4H11.4154V2.66667H9.91537Z" fill="black"/>
</g>
</svg>
