<svg width="862" height="74" viewBox="0 0 862 74" fill="none" xmlns="http://www.w3.org/2000/svg">
<path d="M21.544 29.6V38.648C21.544 40.12 21.88 41.272 22.552 42.104C23.24 42.936 24.192 43.352 25.408 43.352C26.672 43.352 27.648 42.96 28.336 42.176C29.04 41.392 29.4 40.304 29.416 38.912V29.6H31V38.768C31 40.48 30.472 41.832 29.416 42.824C28.376 43.816 26.896 44.312 24.976 44.312C22.656 44.312 20.928 43.824 19.792 42.848C18.656 41.856 18.088 40.504 18.088 38.792V29.6H21.544ZM18.136 29.6V30.848H18.088C18.072 30.544 17.96 30.296 17.752 30.104C17.544 29.912 17.288 29.816 16.984 29.816C16.984 29.816 16.928 29.816 16.816 29.816C16.704 29.816 16.648 29.816 16.648 29.816V29.6H18.136ZM22.96 29.6V29.816C22.96 29.816 22.904 29.816 22.792 29.816C22.68 29.816 22.624 29.816 22.624 29.816C22.32 29.816 22.064 29.912 21.856 30.104C21.648 30.296 21.544 30.544 21.544 30.848H21.496V29.6H22.96ZM29.464 29.6V30.848H29.416C29.4 30.544 29.288 30.296 29.08 30.104C28.872 29.912 28.624 29.816 28.336 29.816C28.336 29.816 28.28 29.816 28.168 29.816C28.056 29.816 28 29.816 28 29.816V29.6H29.464ZM32.416 29.6V29.816C32.416 29.816 32.36 29.816 32.248 29.816C32.152 29.816 32.104 29.816 32.104 29.816C31.8 29.816 31.536 29.912 31.312 30.104C31.104 30.296 31 30.544 31 30.848H30.952V29.6H32.416ZM42.9779 29.6H45.2819C46.5779 29.6 47.6259 29.776 48.4259 30.128C49.2259 30.48 49.8259 30.96 50.2259 31.568C50.6259 32.16 50.8419 32.832 50.8739 33.584C50.9059 34.528 50.7139 35.352 50.2979 36.056C49.8979 36.76 49.3539 37.296 48.6659 37.664C47.9779 38.032 47.2259 38.2 46.4099 38.168C45.5939 38.12 44.7859 37.832 43.9859 37.304V37.088C43.9859 37.088 44.0659 37.088 44.2259 37.088C44.4019 37.088 44.6179 37.064 44.8739 37.016C45.1299 36.952 45.3939 36.84 45.6659 36.68C45.9539 36.52 46.2259 36.28 46.4819 35.96C46.7379 35.64 46.9379 35.208 47.0819 34.664C47.1299 34.472 47.1619 34.264 47.1779 34.04C47.2099 33.8 47.2179 33.592 47.2019 33.416C47.1859 32.536 46.9219 31.84 46.4099 31.328C45.9139 30.8 45.2179 30.536 44.3219 30.536H43.1939C43.1939 30.536 43.1779 30.464 43.1459 30.32C43.1139 30.16 43.0739 30 43.0259 29.84C42.9939 29.68 42.9779 29.6 42.9779 29.6ZM43.2419 29.6V44H39.7859V29.6H43.2419ZM39.8339 42.488L39.9299 44H38.2019V43.76C38.2179 43.76 38.2659 43.76 38.3459 43.76C38.4259 43.76 38.4739 43.76 38.4899 43.76C38.8419 43.76 39.1379 43.64 39.3779 43.4C39.6339 43.144 39.7699 42.84 39.7859 42.488H39.8339ZM39.8339 31.088H39.7859C39.7699 30.72 39.6339 30.424 39.3779 30.2C39.1379 29.96 38.8419 29.84 38.4899 29.84C38.4579 29.84 38.4019 29.84 38.3219 29.84C38.2579 29.84 38.2099 29.84 38.1779 29.84V29.6H39.9299L39.8339 31.088ZM43.1939 42.488H43.2419C43.2579 42.84 43.3859 43.144 43.6259 43.4C43.8659 43.64 44.1699 43.76 44.5379 43.76C44.5699 43.76 44.6179 43.76 44.6819 43.76C44.7619 43.76 44.8099 43.76 44.8259 43.76V44H43.0739L43.1939 42.488ZM71.4085 37.976L71.6725 41.6C71.3685 42.112 70.9445 42.576 70.4005 42.992C69.8565 43.392 69.1925 43.712 68.4085 43.952C67.6245 44.192 66.7125 44.312 65.6725 44.312C63.8805 44.296 62.3365 43.992 61.0405 43.4C59.7445 42.808 58.7445 41.96 58.0405 40.856C57.3525 39.736 57.0085 38.376 57.0085 36.776C57.0085 35.208 57.3525 33.872 58.0405 32.768C58.7285 31.648 59.7205 30.792 61.0165 30.2C62.3125 29.592 63.8645 29.288 65.6725 29.288C66.7605 29.288 67.7685 29.392 68.6965 29.6C69.6405 29.808 70.4245 30.072 71.0485 30.392L71.0725 34.208H70.8805C70.4805 32.736 69.8485 31.704 68.9845 31.112C68.1205 30.52 67.0965 30.224 65.9125 30.224C64.7445 30.224 63.7685 30.496 62.9845 31.04C62.2165 31.584 61.6325 32.344 61.2325 33.32C60.8485 34.296 60.6565 35.44 60.6565 36.752C60.6565 38.08 60.8485 39.232 61.2325 40.208C61.6325 41.184 62.2085 41.944 62.9605 42.488C63.7125 43.032 64.6165 43.32 65.6725 43.352C66.8085 43.352 67.7445 43.176 68.4805 42.824C69.2325 42.472 69.8245 41.904 70.2565 41.12C70.7045 40.336 71.0245 39.288 71.2165 37.976H71.4085ZM81.9302 29.624L86.4422 37.424L83.2503 37.784L77.9942 29.624H81.9302ZM86.5863 37.472V44H83.1302V37.52L86.5863 37.472ZM89.9942 29.624H91.7702L86.3463 37.952L85.2182 37.736L89.9942 29.624ZM89.1303 31.088C89.3063 30.784 89.3063 30.504 89.1303 30.248C88.9543 29.976 88.7143 29.84 88.4103 29.84C88.4103 29.84 88.3623 29.84 88.2662 29.84C88.1703 29.84 88.1223 29.84 88.1223 29.84V29.6H93.2823V29.84H92.9703C92.5382 29.84 92.1302 29.96 91.7463 30.2C91.3783 30.424 91.0823 30.696 90.8583 31.016L89.1303 31.088ZM82.7702 31.088L78.8822 31.016C78.6582 30.68 78.3622 30.4 77.9942 30.176C77.6262 29.952 77.2182 29.84 76.7702 29.84H76.4822V29.6H83.7782V29.84C83.7782 29.84 83.7302 29.84 83.6343 29.84C83.5543 29.84 83.5143 29.84 83.5143 29.84C83.1943 29.84 82.9462 29.976 82.7702 30.248C82.6102 30.52 82.6102 30.8 82.7702 31.088ZM83.2023 42.488V44H81.4982V43.76C81.5142 43.76 81.5622 43.76 81.6423 43.76C81.7383 43.76 81.7862 43.76 81.7862 43.76C82.1543 43.76 82.4663 43.64 82.7223 43.4C82.9782 43.144 83.1142 42.84 83.1302 42.488H83.2023ZM86.5382 42.488H86.5863C86.6023 42.84 86.7383 43.144 86.9942 43.4C87.2663 43.64 87.5783 43.76 87.9302 43.76C87.9302 43.76 87.9783 43.76 88.0743 43.76C88.1703 43.76 88.2183 43.76 88.2183 43.76V44H86.5382V42.488ZM111.32 37.976L111.584 41.6C111.28 42.112 110.856 42.576 110.312 42.992C109.768 43.392 109.104 43.712 108.32 43.952C107.536 44.192 106.624 44.312 105.584 44.312C103.792 44.296 102.248 43.992 100.952 43.4C99.6558 42.808 98.6558 41.96 97.9518 40.856C97.2638 39.736 96.9198 38.376 96.9198 36.776C96.9198 35.208 97.2638 33.872 97.9518 32.768C98.6398 31.648 99.6318 30.792 100.928 30.2C102.224 29.592 103.776 29.288 105.584 29.288C106.672 29.288 107.68 29.392 108.608 29.6C109.552 29.808 110.336 30.072 110.96 30.392L110.984 34.208H110.792C110.392 32.736 109.76 31.704 108.896 31.112C108.032 30.52 107.008 30.224 105.824 30.224C104.656 30.224 103.68 30.496 102.896 31.04C102.128 31.584 101.544 32.344 101.144 33.32C100.76 34.296 100.568 35.44 100.568 36.752C100.568 38.08 100.76 39.232 101.144 40.208C101.544 41.184 102.12 41.944 102.872 42.488C103.624 43.032 104.528 43.32 105.584 43.352C106.72 43.352 107.656 43.176 108.392 42.824C109.144 42.472 109.736 41.904 110.168 41.12C110.616 40.336 110.936 39.288 111.128 37.976H111.32ZM122.807 29.6V44H119.351V29.6H122.807ZM128.399 43.04L128.975 44H122.759V43.04H128.399ZM129.983 39.584L129.047 44H124.895L125.639 43.04C126.327 43.04 126.935 42.904 127.463 42.632C128.007 42.344 128.471 41.944 128.855 41.432C129.239 40.904 129.535 40.288 129.743 39.584H129.983ZM119.399 42.488L119.519 44H117.743V43.76C117.743 43.76 117.791 43.76 117.887 43.76C117.983 43.76 118.039 43.76 118.055 43.76C118.407 43.76 118.703 43.64 118.943 43.4C119.199 43.144 119.335 42.84 119.351 42.488H119.399ZM122.759 31.112V29.6H124.415V29.84C124.399 29.84 124.343 29.84 124.247 29.84C124.167 29.84 124.127 29.84 124.127 29.84C123.775 29.84 123.471 29.96 123.215 30.2C122.959 30.44 122.823 30.744 122.807 31.112H122.759ZM119.399 31.112H119.351C119.335 30.744 119.199 30.44 118.943 30.2C118.687 29.96 118.383 29.84 118.031 29.84C118.015 29.84 117.959 29.84 117.863 29.84C117.783 29.84 117.743 29.84 117.743 29.84V29.6H119.399V31.112ZM140.184 29.6V44H136.728V29.6H140.184ZM145.8 43.04L146.352 44H140.136V43.04H145.8ZM144.984 36.392V37.352H140.136V36.392H144.984ZM146.064 29.6V30.56H140.136V29.6H146.064ZM147.336 39.584L146.424 44H142.272L143.016 43.04C143.704 43.04 144.312 42.904 144.84 42.632C145.384 42.344 145.848 41.944 146.232 41.432C146.616 40.904 146.912 40.288 147.12 39.584H147.336ZM144.984 37.304V39.416H144.744V39.224C144.744 38.696 144.576 38.256 144.24 37.904C143.92 37.552 143.48 37.368 142.92 37.352V37.304H144.984ZM144.984 34.328V36.44H142.92V36.392C143.48 36.376 143.92 36.192 144.24 35.84C144.576 35.472 144.744 35.024 144.744 34.496V34.328H144.984ZM146.064 30.512V33.056H145.824V32.84C145.824 32.136 145.632 31.584 145.248 31.184C144.88 30.784 144.344 30.576 143.64 30.56V30.512H146.064ZM146.064 29.24V29.816L143.544 29.6C144.008 29.6 144.496 29.56 145.008 29.48C145.52 29.384 145.872 29.304 146.064 29.24ZM136.776 42.488L136.896 44H135.12V43.76C135.12 43.76 135.168 43.76 135.264 43.76C135.36 43.76 135.416 43.76 135.432 43.76C135.784 43.76 136.08 43.64 136.32 43.4C136.576 43.144 136.712 42.84 136.728 42.488H136.776ZM136.776 31.112H136.728C136.712 30.744 136.576 30.44 136.32 30.2C136.08 29.96 135.784 29.84 135.432 29.84C135.416 29.84 135.36 29.84 135.264 29.84C135.168 29.84 135.12 29.84 135.12 29.84V29.6H136.896L136.776 31.112Z" fill="black"/>
<path d="M182.56 32.104C183.936 32.104 184.624 32.816 184.624 34.24C184.624 34.496 184.472 35.624 184.168 37.624C183.864 39.608 183.712 41.312 183.712 42.736C183.712 44.16 183.864 45.416 184.168 46.504C183.192 46.12 182.512 45.576 182.128 44.872C181.76 44.168 181.576 43.296 181.576 42.256C181.576 41.856 181.664 40.952 181.84 39.544C181.36 41.368 180.616 42.904 179.608 44.152C178.6 45.384 177.664 46 176.8 46C174.976 46 174.064 44.672 174.064 42.016C174.064 41.136 174.192 39.912 174.448 38.344C174.72 36.76 174.856 35.56 174.856 34.744C174.856 33.928 174.744 33.104 174.52 32.272C175.544 32.272 176.312 32.448 176.824 32.8C177.336 33.152 177.592 33.832 177.592 34.84C177.592 35.384 177.424 36.504 177.088 38.2C176.752 39.896 176.584 41.152 176.584 41.968C176.584 43.152 176.952 43.744 177.688 43.744C178.296 43.744 178.928 43.272 179.584 42.328C180.256 41.368 180.816 40.128 181.264 38.608C181.712 37.088 181.936 35.584 181.936 34.096C181.936 33.424 181.888 32.776 181.792 32.152C182.144 32.12 182.4 32.104 182.56 32.104ZM196.155 37.336C196.811 35.848 197.635 34.712 198.627 33.928C199.635 33.128 200.627 32.728 201.603 32.728C202.595 32.728 203.411 33.128 204.051 33.928C204.691 34.712 205.011 35.856 205.011 37.36C205.011 39.744 204.379 41.784 203.115 43.48C201.867 45.16 200.363 46 198.603 46C197.979 46 197.339 45.872 196.683 45.616C197.883 45.376 198.931 44.768 199.827 43.792C200.739 42.8 201.395 41.744 201.795 40.624C202.211 39.488 202.419 38.472 202.419 37.576C202.419 36.664 202.259 35.968 201.939 35.488C201.619 35.008 201.163 34.768 200.571 34.768C199.467 34.768 198.483 35.384 197.619 36.616C196.755 37.832 196.091 39.488 195.627 41.584C195.163 43.68 194.931 45.84 194.931 48.064C194.931 50.304 195.091 52.248 195.411 53.896C194.435 53.848 193.667 53.632 193.107 53.248C192.547 52.864 192.267 52.152 192.267 51.112C192.267 50.728 192.507 48.704 192.987 45.04C193.483 41.36 193.731 38.528 193.731 36.544C193.731 34.56 193.611 32.888 193.371 31.528C194.427 31.832 195.155 32.456 195.555 33.4C195.955 34.328 196.155 35.64 196.155 37.336ZM217.045 34.528C216.421 35.264 215.949 36.176 215.629 37.264C215.325 38.336 215.173 39.488 215.173 40.72C215.173 41.952 215.381 42.944 215.797 43.696C216.213 44.448 216.765 44.824 217.453 44.824C218.157 44.824 218.845 44.616 219.517 44.2C220.189 43.784 220.757 43.208 221.221 42.472C221.813 42.552 222.109 42.768 222.109 43.12C221.677 43.92 221.133 44.576 220.477 45.088C219.837 45.6 219.237 45.936 218.677 46.096C218.117 46.272 217.549 46.36 216.973 46.36C215.741 46.36 214.701 45.88 213.853 44.92C213.005 43.944 212.581 42.536 212.581 40.696C212.581 38.36 213.213 36.352 214.477 34.672C215.741 32.992 217.421 32.152 219.517 32.152C220.669 32.152 221.541 32.456 222.133 33.064C222.725 33.656 223.021 34.352 223.021 35.152C223.021 35.936 222.797 36.608 222.349 37.168C221.917 37.728 221.357 38.008 220.669 38.008C220.237 38.008 219.869 37.936 219.565 37.792C219.821 37.504 220.037 37.104 220.213 36.592C220.405 36.064 220.501 35.552 220.501 35.056C220.501 33.952 220.045 33.4 219.133 33.4C218.365 33.4 217.669 33.776 217.045 34.528ZM240.443 33.808C240.443 34.368 240.203 35.144 239.723 36.136C239.243 37.128 238.659 38.216 237.971 39.4C237.283 40.584 236.595 41.848 235.907 43.192C235.219 44.52 234.635 45.976 234.155 47.56C233.675 49.16 233.435 50.688 233.435 52.144C233.435 52.864 233.491 53.552 233.603 54.208C232.579 53.968 231.883 53.608 231.515 53.128C231.163 52.664 230.987 52.112 230.987 51.472C230.987 50.56 231.547 48.824 232.667 46.264C232.427 45.272 232.131 43.72 231.779 41.608C231.427 39.48 231.067 37.632 230.699 36.064C230.347 34.496 229.939 33.328 229.475 32.56C230.083 32.144 230.603 31.936 231.035 31.936C231.867 31.936 232.435 32.368 232.739 33.232C233.043 34.08 233.307 35.712 233.531 38.128C233.771 40.544 234.011 42.32 234.251 43.456C237.387 37.552 238.955 33.608 238.955 31.624C239.947 32.296 240.443 33.024 240.443 33.808ZM251.026 34.528C250.402 35.264 249.93 36.176 249.61 37.264C249.306 38.336 249.154 39.488 249.154 40.72C249.154 41.952 249.362 42.944 249.778 43.696C250.194 44.448 250.746 44.824 251.434 44.824C252.138 44.824 252.826 44.616 253.498 44.2C254.17 43.784 254.738 43.208 255.202 42.472C255.794 42.552 256.09 42.768 256.09 43.12C255.658 43.92 255.114 44.576 254.458 45.088C253.818 45.6 253.218 45.936 252.658 46.096C252.098 46.272 251.53 46.36 250.954 46.36C249.722 46.36 248.682 45.88 247.834 44.92C246.986 43.944 246.562 42.536 246.562 40.696C246.562 38.36 247.194 36.352 248.458 34.672C249.722 32.992 251.402 32.152 253.498 32.152C254.65 32.152 255.522 32.456 256.114 33.064C256.706 33.656 257.002 34.352 257.002 35.152C257.002 35.936 256.778 36.608 256.33 37.168C255.898 37.728 255.338 38.008 254.65 38.008C254.218 38.008 253.85 37.936 253.546 37.792C253.802 37.504 254.018 37.104 254.194 36.592C254.386 36.064 254.482 35.552 254.482 35.056C254.482 33.952 254.026 33.4 253.114 33.4C252.346 33.4 251.65 33.776 251.026 34.528ZM264.488 44.248C264.472 43.992 264.464 43.584 264.464 43.024C264.464 42.448 264.728 40.016 265.256 35.728C265.8 31.44 266.072 28.496 266.072 26.896C266.072 25.296 265.976 24.256 265.784 23.776C266.68 24.112 267.312 24.608 267.68 25.264C268.048 25.92 268.232 26.712 268.232 27.64C268.232 28.568 268 30.968 267.536 34.84C267.072 38.712 266.84 41.832 266.84 44.2C266.84 44.712 266.872 45.432 266.936 46.36C266.056 46.296 265.432 46.088 265.064 45.736C264.76 45.448 264.568 44.952 264.488 44.248ZM282.124 33.4C281.164 33.4 280.348 33.952 279.676 35.056C279.02 36.16 278.58 37.456 278.356 38.944H279.028C279.876 38.944 280.612 38.824 281.236 38.584C281.86 38.344 282.34 38.032 282.676 37.648C283.316 36.912 283.636 36.08 283.636 35.152C283.636 34.624 283.508 34.2 283.252 33.88C283.012 33.56 282.636 33.4 282.124 33.4ZM285.508 43.12C284.772 44.32 283.964 45.16 283.084 45.64C282.204 46.12 281.18 46.36 280.012 46.36C278.86 46.36 277.852 45.848 276.988 44.824C276.124 43.8 275.692 42.36 275.692 40.504C275.692 38.392 276.26 36.504 277.396 34.84C277.956 34.04 278.684 33.392 279.58 32.896C280.492 32.4 281.492 32.152 282.58 32.152C284.98 32.152 286.18 33.312 286.18 35.632C286.18 37.024 285.636 38.12 284.548 38.92C283.476 39.704 282.228 40.096 280.804 40.096C279.86 40.096 279.012 40.008 278.26 39.832C278.244 39.992 278.236 40.24 278.236 40.576C278.236 43.408 279.076 44.824 280.756 44.824C282.34 44.824 283.628 44.04 284.62 42.472C285.212 42.552 285.508 42.768 285.508 43.12Z" fill="black"/>
<path d="M326.28 46H320.808L320.544 44.248C320.288 44.888 319.904 45.384 319.392 45.736C318.896 46.072 318.152 46.24 317.16 46.24C314.68 46.24 313.44 44.904 313.44 42.232V35.008H312.096V34.576H317.904V42.808C317.904 43.768 317.968 44.4 318.096 44.704C318.24 45.008 318.512 45.16 318.912 45.16C319.328 45.16 319.696 44.912 320.016 44.416C320.336 43.92 320.496 43.232 320.496 42.352V35.008H319.392V34.576H324.96V45.568H326.28V46ZM339.971 39.544C339.971 37.896 339.891 36.792 339.731 36.232C339.571 35.656 339.259 35.368 338.795 35.368C338.331 35.368 337.915 35.672 337.547 36.28C337.179 36.872 336.995 37.672 336.995 38.68V43.072C336.995 43.76 337.131 44.344 337.403 44.824C337.675 45.304 338.075 45.544 338.603 45.544C339.131 45.544 339.491 45.192 339.683 44.488C339.875 43.784 339.971 42.552 339.971 40.792V39.544ZM336.947 34.576V36.472C337.571 35.048 338.675 34.336 340.259 34.336C341.635 34.336 342.699 34.832 343.451 35.824C344.219 36.816 344.603 38.32 344.603 40.336C344.603 42.352 344.187 43.84 343.355 44.8C342.539 45.76 341.307 46.24 339.659 46.24C338.891 46.24 338.315 46.144 337.931 45.952C337.547 45.76 337.235 45.464 336.995 45.064V51.28H340.091V51.712H331.211V51.28H332.531V35.008H331.259V34.576H336.947ZM356.481 34.768C355.777 34.768 355.273 35.152 354.969 35.92C354.665 36.688 354.513 37.96 354.513 39.736V40.984C354.513 42.568 354.689 43.704 355.041 44.392C355.393 45.08 356.041 45.424 356.985 45.424C357.929 45.424 358.681 45.104 359.241 44.464C359.801 43.824 360.161 43.096 360.321 42.28L360.753 42.328C360.449 43.704 359.889 44.696 359.073 45.304C358.241 45.928 357.097 46.24 355.641 46.24C353.785 46.24 352.361 45.744 351.369 44.752C350.377 43.744 349.881 42.28 349.881 40.36C349.881 38.424 350.441 36.936 351.561 35.896C352.697 34.856 354.273 34.336 356.289 34.336C357.713 34.336 358.801 34.616 359.553 35.176C360.305 35.72 360.681 36.408 360.681 37.24C360.681 38.072 360.497 38.68 360.129 39.064C359.777 39.448 359.281 39.64 358.641 39.64C358.017 39.64 357.513 39.472 357.129 39.136C356.745 38.8 356.553 38.304 356.553 37.648C356.553 37.36 356.593 37.072 356.673 36.784H357.465C357.577 36.464 357.633 36.176 357.633 35.92C357.633 35.152 357.249 34.768 356.481 34.768ZM365.073 35.008V34.576H372.033V35.008H370.737L373.353 42.976L376.137 35.008H374.529V34.576H377.913V35.008H376.713L372.225 47.944C371.697 49.448 371.105 50.496 370.449 51.088C369.793 51.696 368.993 52 368.049 52C367.105 52 366.361 51.784 365.817 51.352C365.273 50.92 365.001 50.368 365.001 49.696C365.001 49.024 365.177 48.512 365.529 48.16C365.881 47.808 366.345 47.632 366.921 47.632C368.249 47.632 368.913 48.184 368.913 49.288C368.913 49.528 368.865 49.816 368.769 50.152H367.929C367.801 50.52 367.785 50.824 367.881 51.064C367.977 51.304 368.193 51.424 368.529 51.424C369.185 51.424 369.769 51.096 370.281 50.44C370.793 49.8 371.281 48.816 371.745 47.488L372.273 46H370.161L366.057 35.008H365.073ZM388.517 34.768C387.813 34.768 387.309 35.152 387.005 35.92C386.701 36.688 386.549 37.96 386.549 39.736V40.984C386.549 42.568 386.725 43.704 387.077 44.392C387.429 45.08 388.077 45.424 389.021 45.424C389.965 45.424 390.717 45.104 391.277 44.464C391.837 43.824 392.197 43.096 392.357 42.28L392.789 42.328C392.485 43.704 391.925 44.696 391.109 45.304C390.277 45.928 389.133 46.24 387.677 46.24C385.821 46.24 384.397 45.744 383.405 44.752C382.413 43.744 381.917 42.28 381.917 40.36C381.917 38.424 382.477 36.936 383.597 35.896C384.733 34.856 386.309 34.336 388.325 34.336C389.749 34.336 390.837 34.616 391.589 35.176C392.341 35.72 392.717 36.408 392.717 37.24C392.717 38.072 392.533 38.68 392.165 39.064C391.813 39.448 391.317 39.64 390.677 39.64C390.053 39.64 389.549 39.472 389.165 39.136C388.781 38.8 388.589 38.304 388.589 37.648C388.589 37.36 388.629 37.072 388.709 36.784H389.501C389.613 36.464 389.669 36.176 389.669 35.92C389.669 35.152 389.285 34.768 388.517 34.768ZM397.508 28H403.388V45.568H404.732V46H397.604V45.568H398.924V28.432H397.508V28ZM415.95 46.24C413.886 46.24 412.334 45.712 411.294 44.656C410.27 43.584 409.758 42.104 409.758 40.216C409.758 38.312 410.334 36.856 411.486 35.848C412.654 34.84 414.134 34.336 415.926 34.336C419.558 34.336 421.302 36.16 421.158 39.808H414.39V40.744C414.39 42.312 414.59 43.496 414.99 44.296C415.39 45.096 416.086 45.496 417.078 45.496C418.934 45.496 420.15 44.504 420.726 42.52L421.158 42.592C420.854 43.744 420.302 44.64 419.502 45.28C418.718 45.92 417.534 46.24 415.95 46.24ZM414.414 39.328H416.886V38.152C416.886 36.856 416.806 35.976 416.646 35.512C416.502 35.032 416.198 34.792 415.734 34.792C415.286 34.792 414.95 35.048 414.726 35.56C414.518 36.056 414.414 36.92 414.414 38.152V39.328Z" fill="black"/>
<path d="M450.176 46C449.648 46 449.16 45.872 448.712 45.616C448.28 45.344 447.928 44.992 447.656 44.56C447.4 44.112 447.272 43.624 447.272 43.096V32.08H449.24V43.096C449.24 43.352 449.328 43.576 449.504 43.768C449.696 43.944 449.92 44.032 450.176 44.032H458.528C458.784 44.032 459.008 43.944 459.2 43.768C459.392 43.576 459.488 43.352 459.488 43.096V32.08H461.456V43.096C461.456 43.624 461.32 44.112 461.048 44.56C460.792 44.992 460.44 45.344 459.992 45.616C459.56 45.872 459.072 46 458.528 46H450.176ZM468.072 51.52V32.08H479.352C479.88 32.08 480.36 32.216 480.792 32.488C481.24 32.744 481.592 33.096 481.848 33.544C482.12 33.976 482.256 34.456 482.256 34.984V43.096C482.256 43.624 482.12 44.112 481.848 44.56C481.592 44.992 481.24 45.344 480.792 45.616C480.36 45.872 479.88 46 479.352 46H470.04V51.52H468.072ZM471 44.032H479.352C479.608 44.032 479.824 43.944 480 43.768C480.192 43.576 480.288 43.352 480.288 43.096V34.984C480.288 34.728 480.192 34.512 480 34.336C479.824 34.144 479.608 34.048 479.352 34.048H471C470.744 34.048 470.52 34.144 470.328 34.336C470.136 34.512 470.04 34.728 470.04 34.984V43.096C470.04 43.352 470.136 43.576 470.328 43.768C470.52 43.944 470.744 44.032 471 44.032ZM491.281 46C490.753 46 490.265 45.872 489.817 45.616C489.385 45.344 489.033 44.992 488.761 44.56C488.505 44.112 488.377 43.624 488.377 43.096V34.984C488.377 34.456 488.505 33.976 488.761 33.544C489.033 33.096 489.385 32.744 489.817 32.488C490.265 32.216 490.753 32.08 491.281 32.08H502.513V34.048H491.281C491.025 34.048 490.801 34.144 490.609 34.336C490.433 34.512 490.345 34.728 490.345 34.984V43.096C490.345 43.352 490.433 43.576 490.609 43.768C490.801 43.944 491.025 44.032 491.281 44.032H502.561V46H491.281ZM511.857 51.52V49.528H520.545C520.801 49.528 521.017 49.432 521.193 49.24C521.385 49.064 521.481 48.848 521.481 48.592V46H512.193C511.665 46 511.177 45.872 510.729 45.616C510.297 45.344 509.945 44.992 509.673 44.56C509.417 44.112 509.289 43.624 509.289 43.096V32.128H511.257V43.096C511.257 43.352 511.345 43.576 511.521 43.768C511.713 43.944 511.937 44.032 512.193 44.032H520.545C520.801 44.032 521.017 43.944 521.193 43.768C521.385 43.576 521.481 43.352 521.481 43.096V32.128H523.449V48.592C523.449 49.136 523.321 49.624 523.065 50.056C522.809 50.504 522.457 50.856 522.009 51.112C521.577 51.384 521.089 51.52 520.545 51.52H511.857ZM532.81 46C532.282 46 531.794 45.872 531.346 45.616C530.914 45.344 530.562 44.992 530.29 44.56C530.034 44.112 529.906 43.624 529.906 43.096V34.984C529.906 34.456 530.034 33.976 530.29 33.544C530.562 33.096 530.914 32.744 531.346 32.488C531.794 32.216 532.282 32.08 532.81 32.08H544.042V34.048H532.81C532.554 34.048 532.33 34.144 532.138 34.336C531.962 34.512 531.874 34.728 531.874 34.984V43.096C531.874 43.352 531.962 43.576 532.138 43.768C532.33 43.944 532.554 44.032 532.81 44.032H544.09V46H532.81ZM553.961 46C553.433 46 552.945 45.872 552.497 45.616C552.065 45.344 551.713 44.992 551.441 44.56C551.185 44.112 551.057 43.624 551.057 43.096V27.52H553.025V43.096C553.025 43.352 553.113 43.576 553.289 43.768C553.481 43.944 553.705 44.032 553.961 44.032H556.313V46H553.961ZM565.268 46C564.74 46 564.252 45.872 563.804 45.616C563.372 45.344 563.02 44.992 562.748 44.56C562.492 44.112 562.364 43.624 562.364 43.096V34.984C562.364 34.456 562.492 33.976 562.748 33.544C563.02 33.096 563.372 32.744 563.804 32.488C564.252 32.216 564.74 32.08 565.268 32.08H573.62C574.164 32.08 574.652 32.216 575.084 32.488C575.532 32.744 575.884 33.096 576.14 33.544C576.412 33.976 576.548 34.456 576.548 34.984V40.024H564.332V43.096C564.332 43.352 564.42 43.576 564.596 43.768C564.788 43.944 565.012 44.032 565.268 44.032H576.548V46H565.268ZM564.332 38.056H574.556V34.984C574.556 34.728 574.46 34.512 574.268 34.336C574.092 34.144 573.876 34.048 573.62 34.048H565.268C565.012 34.048 564.788 34.144 564.596 34.336C564.42 34.512 564.332 34.728 564.332 34.984V38.056Z" fill="black"/>
<path d="M607.256 44.288C606.344 44.288 605.64 43.992 605.144 43.4C604.648 42.792 604.4 41.84 604.4 40.544V34.304L604.76 34.664L603.272 34.4C603.16 34.384 603.072 34.312 603.008 34.184C602.944 34.04 602.912 33.832 602.912 33.56C603.52 33.48 603.976 33.424 604.28 33.392C604.6 33.344 604.856 33.32 605.048 33.32C605.48 33.32 605.8 33.424 606.008 33.632C606.232 33.84 606.344 34.168 606.344 34.616V40.496C606.344 41.36 606.512 42 606.848 42.416C607.2 42.816 607.712 43.016 608.384 43.016C608.816 43.016 609.216 42.944 609.584 42.8C609.968 42.656 610.304 42.464 610.592 42.224C610.896 41.968 611.152 41.688 611.36 41.384L611.192 41.792V34.304L611.552 34.664L610.04 34.4C609.928 34.384 609.84 34.312 609.776 34.184C609.728 34.04 609.704 33.832 609.704 33.56C610.312 33.48 610.768 33.424 611.072 33.392C611.392 33.344 611.64 33.32 611.816 33.32C612.264 33.32 612.592 33.424 612.8 33.632C613.008 33.84 613.112 34.168 613.112 34.616V42.272C613.112 42.544 613.168 42.752 613.28 42.896C613.408 43.04 613.576 43.112 613.784 43.112C613.96 43.112 614.144 43.072 614.336 42.992C614.544 42.896 614.728 42.784 614.888 42.656L615.08 43.304C614.808 43.608 614.472 43.848 614.072 44.024C613.672 44.2 613.288 44.288 612.92 44.288C612.424 44.288 612.032 44.128 611.744 43.808C611.456 43.472 611.312 43 611.312 42.392H611.192C610.104 43.656 608.792 44.288 607.256 44.288ZM621.206 50.168C621.206 49.688 621.334 49.4 621.59 49.304L622.958 48.872L622.694 49.28V34.184L622.982 34.544L621.566 34.28C621.326 34.232 621.206 33.952 621.206 33.44C621.814 33.344 622.27 33.28 622.574 33.248C622.894 33.2 623.15 33.176 623.342 33.176C623.758 33.176 624.054 33.264 624.23 33.44C624.422 33.616 624.518 33.896 624.518 34.28V35.36L624.446 35.288H624.638C625.15 34.536 625.774 33.952 626.51 33.536C627.246 33.12 627.998 32.912 628.766 32.912C629.566 32.912 630.254 33.12 630.83 33.536C631.406 33.952 631.854 34.544 632.174 35.312C632.494 36.064 632.654 36.96 632.654 38C632.654 39.264 632.422 40.368 631.958 41.312C631.51 42.256 630.87 42.992 630.038 43.52C629.206 44.032 628.222 44.288 627.086 44.288C626.622 44.288 626.15 44.24 625.67 44.144C625.19 44.048 624.734 43.912 624.302 43.736L624.638 43.544V49.16L624.35 48.848L626.294 49.28C626.294 49.504 626.262 49.68 626.198 49.808C626.134 49.952 626.014 50.072 625.838 50.168H621.206ZM626.942 43.352C628.206 43.352 629.126 42.96 629.702 42.176C630.294 41.392 630.59 40.152 630.59 38.456C630.59 36.984 630.366 35.904 629.918 35.216C629.486 34.528 628.806 34.184 627.878 34.184C627.398 34.184 626.95 34.28 626.534 34.472C626.134 34.648 625.758 34.912 625.406 35.264C625.054 35.6 624.71 36.008 624.374 36.488L624.614 35.936V42.944L624.374 42.512C624.934 42.816 625.39 43.032 625.742 43.16C626.11 43.288 626.51 43.352 626.942 43.352ZM643.71 44.288C642.718 44.288 641.846 44.072 641.094 43.64C640.358 43.208 639.79 42.6 639.39 41.816C638.99 41.032 638.79 40.104 638.79 39.032C638.79 37.832 639.022 36.776 639.486 35.864C639.966 34.936 640.622 34.216 641.454 33.704C642.286 33.176 643.23 32.912 644.286 32.912C645.006 32.912 645.662 33.032 646.254 33.272C646.846 33.496 647.31 33.808 647.646 34.208C647.998 34.608 648.174 35.048 648.174 35.528C648.174 35.848 648.078 36.104 647.886 36.296C647.71 36.472 647.462 36.56 647.142 36.56C646.998 36.56 646.862 36.544 646.734 36.512C646.606 36.464 646.478 36.408 646.35 36.344C646.35 35.496 646.15 34.848 645.75 34.4C645.366 33.952 644.798 33.728 644.046 33.728C643.022 33.728 642.238 34.136 641.694 34.952C641.15 35.752 640.878 36.904 640.878 38.408C640.878 39.976 641.174 41.168 641.766 41.984C642.374 42.784 643.27 43.184 644.454 43.184C645.094 43.184 645.71 43.056 646.302 42.8C646.91 42.528 647.462 42.144 647.958 41.648L648.27 42.224C647.934 42.64 647.518 43.008 647.022 43.328C646.542 43.632 646.014 43.864 645.438 44.024C644.878 44.2 644.302 44.288 643.71 44.288ZM655.011 50.48C654.563 50.48 654.211 50.384 653.955 50.192C653.715 50.016 653.595 49.792 653.595 49.52C653.595 49.424 653.611 49.312 653.643 49.184C653.675 49.056 653.723 48.936 653.787 48.824H654.291C655.011 48.824 655.611 48.736 656.091 48.56C656.571 48.4 656.987 48.128 657.339 47.744C657.691 47.36 658.019 46.832 658.323 46.16C658.643 45.504 658.987 44.68 659.355 43.688L659.259 44.816L655.059 34.376L655.491 34.688L653.691 34.256C653.691 34.016 653.723 33.84 653.787 33.728C653.851 33.6 653.963 33.48 654.123 33.368H658.491C658.491 33.88 658.363 34.176 658.107 34.256L656.667 34.664L657.003 34.256L660.339 42.632H659.787L662.955 34.376L663.099 34.688L661.419 34.256C661.419 33.968 661.443 33.768 661.491 33.656C661.555 33.528 661.675 33.432 661.851 33.368H665.475C665.475 33.64 665.443 33.848 665.379 33.992C665.315 34.12 665.219 34.2 665.091 34.232L663.723 34.664L664.155 34.232L660.315 44.216C659.579 46.12 658.747 47.64 657.819 48.776C656.891 49.912 655.955 50.48 655.011 50.48ZM675.348 44.288C674.356 44.288 673.484 44.072 672.732 43.64C671.996 43.208 671.428 42.6 671.028 41.816C670.628 41.032 670.428 40.104 670.428 39.032C670.428 37.832 670.66 36.776 671.124 35.864C671.604 34.936 672.26 34.216 673.092 33.704C673.924 33.176 674.868 32.912 675.924 32.912C676.644 32.912 677.3 33.032 677.892 33.272C678.484 33.496 678.948 33.808 679.284 34.208C679.636 34.608 679.812 35.048 679.812 35.528C679.812 35.848 679.716 36.104 679.524 36.296C679.348 36.472 679.1 36.56 678.78 36.56C678.636 36.56 678.5 36.544 678.372 36.512C678.244 36.464 678.116 36.408 677.988 36.344C677.988 35.496 677.788 34.848 677.388 34.4C677.004 33.952 676.436 33.728 675.684 33.728C674.66 33.728 673.876 34.136 673.332 34.952C672.788 35.752 672.516 36.904 672.516 38.408C672.516 39.976 672.812 41.168 673.404 41.984C674.012 42.784 674.908 43.184 676.092 43.184C676.732 43.184 677.348 43.056 677.94 42.8C678.548 42.528 679.1 42.144 679.596 41.648L679.908 42.224C679.572 42.64 679.156 43.008 678.66 43.328C678.18 43.632 677.652 43.864 677.076 44.024C676.516 44.2 675.94 44.288 675.348 44.288ZM686.169 44C686.169 43.728 686.201 43.528 686.265 43.4C686.329 43.272 686.425 43.184 686.553 43.136L687.993 42.68L687.729 43.016V27.392L688.017 27.752L686.529 27.488C686.289 27.44 686.169 27.16 686.169 26.648C686.697 26.568 687.145 26.504 687.513 26.456C687.881 26.408 688.233 26.384 688.569 26.384C689.305 26.384 689.673 26.848 689.673 27.776V42.968L689.385 42.656L691.329 43.112C691.329 43.352 691.297 43.536 691.233 43.664C691.185 43.776 691.073 43.888 690.897 44H686.169ZM702.367 44.288C701.391 44.288 700.535 44.072 699.799 43.64C699.079 43.192 698.519 42.576 698.119 41.792C697.719 41.008 697.519 40.104 697.519 39.08C697.519 37.912 697.759 36.864 698.239 35.936C698.735 35.008 699.391 34.272 700.207 33.728C701.023 33.184 701.911 32.912 702.871 32.912C703.703 32.912 704.423 33.104 705.031 33.488C705.655 33.856 706.143 34.376 706.495 35.048C706.847 35.72 707.023 36.496 707.023 37.376C707.023 37.68 706.967 37.888 706.855 38C706.743 38.096 706.615 38.144 706.471 38.144H698.911V37.4L705.439 37.232L705.175 37.496C705.207 36.728 705.111 36.064 704.887 35.504C704.679 34.944 704.375 34.512 703.975 34.208C703.591 33.888 703.135 33.728 702.607 33.728C701.727 33.728 701.007 34.136 700.447 34.952C699.887 35.768 699.607 36.92 699.607 38.408C699.607 39.368 699.743 40.208 700.015 40.928C700.303 41.632 700.719 42.184 701.263 42.584C701.807 42.984 702.463 43.184 703.231 43.184C703.871 43.184 704.487 43.024 705.079 42.704C705.671 42.368 706.199 41.904 706.663 41.312L706.975 41.912C706.639 42.392 706.223 42.816 705.727 43.184C705.231 43.536 704.695 43.808 704.119 44C703.559 44.192 702.975 44.288 702.367 44.288Z" fill="black"/>
<path d="M742.992 43.3477C742.828 43.543 742.617 43.7461 742.359 43.957C742.109 44.1602 741.797 44.3477 741.422 44.5195C741.055 44.6914 740.621 44.8359 740.121 44.9531C739.621 45.0625 739.043 45.1172 738.387 45.1172C737.551 45.1172 736.836 45.0391 736.242 44.8828C735.656 44.7188 735.176 44.4688 734.801 44.1328C734.426 43.7891 734.152 43.3555 733.98 42.832C733.809 42.3008 733.723 41.6641 733.723 40.9219V36.8672C733.723 36.7656 733.727 36.6641 733.734 36.5625C733.75 36.4609 733.773 36.3711 733.805 36.293C733.836 36.2148 733.883 36.1523 733.945 36.1055C734.008 36.0508 734.09 36.0234 734.191 36.0234C734.309 36.0234 734.398 36.0508 734.461 36.1055C734.523 36.1523 734.566 36.2148 734.59 36.293C734.621 36.3711 734.641 36.4609 734.648 36.5625C734.656 36.6641 734.66 36.7656 734.66 36.8672V40.9219C734.66 41.5781 734.715 42.1289 734.824 42.5742C734.934 43.0195 735.125 43.3789 735.398 43.6523C735.68 43.9258 736.059 44.125 736.535 44.25C737.02 44.3672 737.637 44.4258 738.387 44.4258C738.934 44.4258 739.438 44.3789 739.898 44.2852C740.367 44.1914 740.793 44.0742 741.176 43.9336C741.559 43.7852 741.902 43.6211 742.207 43.4414C742.512 43.2617 742.777 43.0859 743.004 42.9141V36.8672C743.004 36.7656 743.008 36.6641 743.016 36.5625C743.023 36.4609 743.039 36.3711 743.062 36.293C743.094 36.2148 743.137 36.1523 743.191 36.1055C743.254 36.0508 743.336 36.0234 743.438 36.0234C743.555 36.0234 743.645 36.0508 743.707 36.1055C743.777 36.1523 743.828 36.2148 743.859 36.293C743.898 36.3711 743.922 36.4609 743.93 36.5625C743.938 36.6641 743.941 36.7656 743.941 36.8672V44.1797C743.941 44.2812 743.934 44.3828 743.918 44.4844C743.91 44.5781 743.891 44.6641 743.859 44.7422C743.828 44.8203 743.781 44.8828 743.719 44.9297C743.664 44.9766 743.59 45 743.496 45C743.277 45 743.137 44.9297 743.074 44.7891C743.02 44.6406 742.992 44.4727 742.992 44.2852V44.1797V43.3477ZM758.319 35.7891C759.022 35.7891 759.686 35.8633 760.311 36.0117C760.944 36.1523 761.495 36.3984 761.963 36.75C762.44 37.1016 762.815 37.5703 763.088 38.1562C763.37 38.7422 763.51 39.4766 763.51 40.3594C763.51 41.2344 763.393 41.9766 763.159 42.5859C762.932 43.1875 762.596 43.6758 762.151 44.0508C761.713 44.4258 761.17 44.6992 760.522 44.8711C759.881 45.0352 759.147 45.1172 758.319 45.1172C757.686 45.1172 757.104 45.0781 756.573 45C756.042 44.9219 755.557 44.8242 755.12 44.707C754.69 44.582 754.303 44.4453 753.96 44.2969C753.616 44.1484 753.311 44.0039 753.045 43.8633L753.022 48.1289C753.022 48.2305 753.018 48.3281 753.01 48.4219C753.01 48.5234 752.995 48.6133 752.963 48.6914C752.932 48.7695 752.885 48.832 752.823 48.8789C752.768 48.9258 752.682 48.9492 752.565 48.9492C752.448 48.9492 752.358 48.9219 752.295 48.8672C752.241 48.8203 752.198 48.7539 752.167 48.668C752.135 48.5898 752.116 48.4961 752.108 48.3867C752.108 48.2852 752.108 48.1758 752.108 48.0586V36.5977C752.108 36.3477 752.155 36.1914 752.249 36.1289C752.342 36.0586 752.444 36.0234 752.553 36.0234C752.686 36.0234 752.792 36.0586 752.87 36.1289C752.948 36.1914 752.987 36.3477 752.987 36.5977V38.1445C753.081 37.8164 753.241 37.5312 753.467 37.2891C753.694 37.0391 753.96 36.8281 754.264 36.6562C754.569 36.4766 754.897 36.332 755.249 36.2227C755.608 36.1055 755.967 36.0156 756.327 35.9531C756.694 35.8906 757.049 35.8477 757.393 35.8242C757.737 35.8008 758.045 35.7891 758.319 35.7891ZM758.319 36.4805C757.85 36.4883 757.338 36.5273 756.784 36.5977C756.229 36.6602 755.698 36.7773 755.19 36.9492C754.682 37.1211 754.233 37.3594 753.842 37.6641C753.452 37.9688 753.186 38.3672 753.045 38.8594V43.3594C753.381 43.4844 753.741 43.6133 754.124 43.7461C754.514 43.8711 754.928 43.9844 755.366 44.0859C755.803 44.1875 756.268 44.2695 756.76 44.332C757.253 44.3945 757.772 44.4258 758.319 44.4258C759.069 44.4258 759.71 44.3477 760.241 44.1914C760.78 44.0352 761.221 43.793 761.565 43.4648C761.917 43.1289 762.17 42.707 762.327 42.1992C762.491 41.6836 762.573 41.0703 762.573 40.3594C762.573 39.625 762.46 39.0078 762.233 38.5078C762.014 38.0078 761.713 37.6094 761.331 37.3125C760.948 37.0156 760.495 36.8047 759.971 36.6797C759.456 36.5469 758.905 36.4805 758.319 36.4805ZM776.763 36.4805C775.864 36.4805 775.099 36.5547 774.466 36.7031C773.833 36.8516 773.314 37.0898 772.907 37.418C772.509 37.7383 772.216 38.1523 772.028 38.6602C771.841 39.168 771.747 39.7773 771.747 40.4883C771.747 41.207 771.849 41.8164 772.052 42.3164C772.263 42.8164 772.575 43.2227 772.989 43.5352C773.411 43.8477 773.935 44.0742 774.56 44.2148C775.185 44.3555 775.915 44.4258 776.751 44.4258C777.126 44.4258 777.505 44.3984 777.888 44.3438C778.278 44.2891 778.65 44.2227 779.001 44.1445C779.353 44.0586 779.677 43.9648 779.974 43.8633C780.271 43.7617 780.513 43.6641 780.7 43.5703C780.818 43.5312 780.9 43.5117 780.946 43.5117C781.048 43.5117 781.126 43.543 781.181 43.6055C781.243 43.6602 781.275 43.7305 781.275 43.8164C781.275 43.8789 781.255 43.9453 781.216 44.0156C781.177 44.0781 781.114 44.1328 781.028 44.1797C780.341 44.5312 779.63 44.7773 778.896 44.918C778.161 45.0508 777.45 45.1172 776.763 45.1172C775.872 45.1172 775.06 45.0469 774.325 44.9062C773.599 44.7656 772.974 44.5195 772.45 44.168C771.935 43.8164 771.532 43.3438 771.243 42.75C770.954 42.1562 770.81 41.4023 770.81 40.4883C770.81 39.582 770.943 38.8281 771.208 38.2266C771.474 37.625 771.86 37.1445 772.368 36.7852C772.876 36.418 773.497 36.1602 774.232 36.0117C774.974 35.8633 775.818 35.7891 776.763 35.7891C777.45 35.7891 778.161 35.8594 778.896 36C779.63 36.1328 780.341 36.375 781.028 36.7266C781.114 36.7734 781.177 36.832 781.216 36.9023C781.255 36.9648 781.275 37.0273 781.275 37.0898C781.275 37.1758 781.243 37.25 781.181 37.3125C781.126 37.3672 781.048 37.3945 780.946 37.3945C780.9 37.3945 780.818 37.375 780.7 37.3359C780.513 37.2422 780.271 37.1445 779.974 37.043C779.677 36.9414 779.353 36.8516 779.001 36.7734C778.65 36.6875 778.278 36.6172 777.888 36.5625C777.505 36.5078 777.13 36.4805 776.763 36.4805ZM793.988 48.2227C794.793 48.2227 795.465 48.1328 796.004 47.9531C796.543 47.7812 796.972 47.4922 797.293 47.0859C797.621 46.6875 797.851 46.1523 797.984 45.4805C798.125 44.8164 798.195 43.9922 798.195 43.0078C798.109 43.3281 797.968 43.6016 797.773 43.8281C797.578 44.0547 797.343 44.2461 797.07 44.4023C796.804 44.5586 796.511 44.6836 796.191 44.7773C795.879 44.8711 795.558 44.9453 795.23 45C794.902 45.0469 794.578 45.0781 794.257 45.0938C793.945 45.1094 793.656 45.1172 793.39 45.1172C792.547 45.1172 791.836 45.043 791.257 44.8945C790.679 44.7383 790.211 44.4805 789.851 44.1211C789.492 43.7539 789.23 43.2734 789.066 42.6797C788.91 42.0859 788.832 41.3477 788.832 40.4648V36.8672C788.832 36.7656 788.836 36.6641 788.843 36.5625C788.851 36.4609 788.871 36.3711 788.902 36.293C788.933 36.2148 788.976 36.1523 789.031 36.1055C789.093 36.0508 789.179 36.0234 789.289 36.0234C789.406 36.0234 789.496 36.0508 789.558 36.1055C789.621 36.1523 789.668 36.2148 789.699 36.293C789.73 36.3711 789.75 36.4609 789.757 36.5625C789.765 36.6641 789.769 36.7656 789.769 36.8672V40.4648C789.769 41.2305 789.816 41.8672 789.91 42.375C790.011 42.8828 790.195 43.2891 790.461 43.5938C790.726 43.8984 791.093 44.1133 791.562 44.2383C792.039 44.3633 792.648 44.4258 793.39 44.4258C793.836 44.4258 794.312 44.3945 794.82 44.332C795.328 44.2695 795.808 44.1562 796.261 43.9922C796.722 43.8281 797.125 43.6016 797.468 43.3125C797.82 43.0234 798.062 42.6484 798.195 42.1875V36.8672C798.195 36.7656 798.199 36.6641 798.207 36.5625C798.222 36.4609 798.246 36.3711 798.277 36.293C798.308 36.2148 798.351 36.1523 798.406 36.1055C798.468 36.0508 798.547 36.0234 798.64 36.0234C798.757 36.0234 798.847 36.0508 798.91 36.1055C798.972 36.1523 799.019 36.2148 799.05 36.293C799.09 36.3711 799.113 36.4609 799.121 36.5625C799.129 36.6641 799.132 36.7656 799.132 36.8672V42.6211C799.132 43.8242 799.035 44.8281 798.84 45.6328C798.652 46.4375 798.351 47.082 797.937 47.5664C797.523 48.0586 796.992 48.4062 796.343 48.6094C795.695 48.8125 794.91 48.9141 793.988 48.9141C793.332 48.9141 792.777 48.8789 792.324 48.8086C791.879 48.7383 791.5 48.6484 791.187 48.5391C790.882 48.4375 790.629 48.3203 790.425 48.1875C790.222 48.0547 790.047 47.9297 789.898 47.8125C789.836 47.75 789.804 47.6758 789.804 47.5898C789.804 47.4805 789.832 47.3867 789.886 47.3086C789.949 47.2383 790.043 47.2031 790.168 47.2031C790.23 47.2031 790.297 47.2266 790.367 47.2734C790.515 47.3828 790.687 47.4922 790.882 47.6016C791.086 47.7188 791.328 47.8203 791.609 47.9062C791.898 48 792.234 48.0742 792.617 48.1289C793.007 48.1914 793.465 48.2227 793.988 48.2227ZM812.619 36.4805C811.721 36.4805 810.955 36.5547 810.323 36.7031C809.69 36.8516 809.17 37.0898 808.764 37.418C808.365 37.7383 808.073 38.1523 807.885 38.6602C807.698 39.168 807.604 39.7773 807.604 40.4883C807.604 41.207 807.705 41.8164 807.908 42.3164C808.119 42.8164 808.432 43.2227 808.846 43.5352C809.268 43.8477 809.791 44.0742 810.416 44.2148C811.041 44.3555 811.772 44.4258 812.608 44.4258C812.983 44.4258 813.362 44.3984 813.744 44.3438C814.135 44.2891 814.506 44.2227 814.858 44.1445C815.209 44.0586 815.533 43.9648 815.83 43.8633C816.127 43.7617 816.369 43.6641 816.557 43.5703C816.674 43.5312 816.756 43.5117 816.803 43.5117C816.905 43.5117 816.983 43.543 817.037 43.6055C817.1 43.6602 817.131 43.7305 817.131 43.8164C817.131 43.8789 817.112 43.9453 817.073 44.0156C817.033 44.0781 816.971 44.1328 816.885 44.1797C816.198 44.5312 815.487 44.7773 814.752 44.918C814.018 45.0508 813.307 45.1172 812.619 45.1172C811.729 45.1172 810.916 45.0469 810.182 44.9062C809.455 44.7656 808.83 44.5195 808.307 44.168C807.791 43.8164 807.389 43.3438 807.1 42.75C806.811 42.1562 806.666 41.4023 806.666 40.4883C806.666 39.582 806.799 38.8281 807.065 38.2266C807.33 37.625 807.717 37.1445 808.225 36.7852C808.733 36.418 809.354 36.1602 810.088 36.0117C810.83 35.8633 811.674 35.7891 812.619 35.7891C813.307 35.7891 814.018 35.8594 814.752 36C815.487 36.1328 816.198 36.375 816.885 36.7266C816.971 36.7734 817.033 36.832 817.073 36.9023C817.112 36.9648 817.131 37.0273 817.131 37.0898C817.131 37.1758 817.1 37.25 817.037 37.3125C816.983 37.3672 816.905 37.3945 816.803 37.3945C816.756 37.3945 816.674 37.375 816.557 37.3359C816.369 37.2422 816.127 37.1445 815.83 37.043C815.533 36.9414 815.209 36.8516 814.858 36.7734C814.506 36.6875 814.135 36.6172 813.744 36.5625C813.362 36.5078 812.987 36.4805 812.619 36.4805ZM825.778 44.1797C825.778 44.4062 825.751 44.6016 825.696 44.7656C825.641 44.9219 825.516 45 825.321 45C825.204 45 825.114 44.9805 825.052 44.9414C824.989 44.8945 824.942 44.8359 824.911 44.7656C824.88 44.6875 824.86 44.6016 824.852 44.5078C824.845 44.4141 824.841 44.3125 824.841 44.2031V32.7891C824.841 32.6719 824.845 32.5625 824.852 32.4609C824.86 32.3594 824.88 32.2734 824.911 32.2031C824.95 32.125 825.001 32.0625 825.063 32.0156C825.134 31.9688 825.227 31.9453 825.345 31.9453C825.438 31.9453 825.512 31.9688 825.567 32.0156C825.63 32.0625 825.677 32.125 825.708 32.2031C825.739 32.2812 825.759 32.3711 825.766 32.4727C825.774 32.5664 825.778 32.6641 825.778 32.7656V44.1797ZM839.124 36.4805C838.398 36.4805 837.753 36.543 837.191 36.668C836.628 36.793 836.148 36.9961 835.749 37.2773C835.359 37.5508 835.054 37.9062 834.835 38.3438C834.617 38.7812 834.492 39.3164 834.46 39.9492H843.296V39.3164C843.296 38.9258 843.222 38.5586 843.074 38.2148C842.933 37.8711 842.699 37.5703 842.37 37.3125C842.042 37.0547 841.613 36.8516 841.081 36.7031C840.55 36.5547 839.898 36.4805 839.124 36.4805ZM838.515 44.4258C839.257 44.4258 839.906 44.3789 840.46 44.2852C841.015 44.1914 841.492 44.0781 841.89 43.9453C842.288 43.8125 842.613 43.6758 842.863 43.5352C843.12 43.3945 843.32 43.2773 843.46 43.1836C843.507 43.168 843.538 43.1602 843.554 43.1602C843.64 43.1602 843.718 43.2031 843.788 43.2891C843.867 43.3672 843.906 43.4531 843.906 43.5469C843.906 43.6328 843.867 43.7031 843.788 43.7578C843.718 43.8281 843.566 43.9375 843.331 44.0859C843.105 44.2344 842.777 44.3867 842.347 44.543C841.917 44.6914 841.386 44.8242 840.753 44.9414C840.12 45.0586 839.37 45.1172 838.503 45.1172C837.597 45.1172 836.827 45.0039 836.195 44.7773C835.562 44.5508 835.046 44.2344 834.648 43.8281C834.249 43.4219 833.96 42.9336 833.781 42.3633C833.601 41.793 833.511 41.168 833.511 40.4883C833.511 39.582 833.656 38.8281 833.945 38.2266C834.234 37.625 834.628 37.1445 835.128 36.7852C835.636 36.418 836.23 36.1602 836.91 36.0117C837.597 35.8633 838.335 35.7891 839.124 35.7891C840.749 35.7891 841.964 36.1016 842.769 36.7266C843.581 37.3438 843.988 38.2305 843.988 39.3867C843.988 39.4961 843.98 39.6172 843.964 39.75C843.949 39.8828 843.925 40.0117 843.894 40.1367C843.87 40.2539 843.839 40.3555 843.8 40.4414C843.769 40.5195 843.738 40.5586 843.706 40.5586H840.261L834.449 40.4414C834.464 41.168 834.558 41.7852 834.73 42.293C834.91 42.793 835.167 43.2031 835.503 43.5234C835.847 43.8359 836.269 44.0664 836.769 44.2148C837.269 44.3555 837.851 44.4258 838.515 44.4258Z" fill="black"/>
<path d="M0 1H862V-1H0V1ZM862 73H0V75H862V73Z" fill="black" mask="url(#path-1-inside-1_5642_55953)"/>
</svg>
